<svg xmlns="http://www.w3.org/2000/svg" width="150" height="150" viewBox="0 0 150 150">
  <g id="ic-px2" transform="translate(23272 8023)">
    <circle id="Ellipse_2976" data-name="Ellipse 2976" cx="75" cy="75" r="75" transform="translate(-23272 -8023)" fill="#fff"/>
    <path id="Path_138558" data-name="Path 138558" d="M102.134,50.33,93.309,34.284a1.542,1.542,0,0,0-.964-.734c-.009,0-.016-.008-.023-.009l-35.3-8.023a1.51,1.51,0,0,0-.669,0l-35.3,8.023c-.009,0-.016.008-.025.01a1.543,1.543,0,0,0-.962.733L11.237,50.33a1.509,1.509,0,0,0,.987,2.2l7.652,1.739v28.08a1.507,1.507,0,0,0,1.174,1.47l35.3,8.023a1.522,1.522,0,0,0,.669,0l35.3-8.023a1.508,1.508,0,0,0,1.174-1.47V54.267l7.652-1.739A1.508,1.508,0,0,0,102.134,50.33Zm-45.449-21.8,28.5,6.477-28.5,6.477-28.5-6.477Zm-34.528,8.2L54.4,44.061l-7.313,13.3L14.845,50.029Zm.734,18.219,24.634,5.6a1.509,1.509,0,0,0,1.656-.744l6-10.9V88.481L22.892,81.143ZM90.479,81.143,58.194,88.481V48.905l6,10.9a1.509,1.509,0,0,0,1.656.744l24.634-5.6ZM66.285,57.358l-7.313-13.3,32.241-7.328,7.313,13.3Z" transform="translate(-23253.686 -8001.679)" fill="#2a94ee"/>
  </g>
</svg>
