<svg xmlns="http://www.w3.org/2000/svg" width="79" height="80" viewBox="0 0 79 80">
  <g id="t1-i18" transform="translate(-259 -11872)">
    <circle id="Base" cx="39.5" cy="39.5" r="39.5" transform="translate(259 11873)" fill="#fff"/>
    <g id="Group_22250" data-name="Group 22250" transform="translate(189.094 11872)">
      <path id="Path_19707" data-name="Path 19707" d="M308.627,381.234H295.334a1.724,1.724,0,0,1-1.718-1.573L291.849,359.6a1.1,1.1,0,0,1,1.094-1.195h18.076a1.1,1.1,0,0,1,1.094,1.195l-1.768,20.058A1.724,1.724,0,0,1,308.627,381.234Z" transform="translate(-176.292 -302.407)" fill="#e5f9f6"/>
      <path id="Path_19708" data-name="Path 19708" d="M363.657,358.408h-7.415l-2.012,22.826h7.035a1.724,1.724,0,0,0,1.718-1.573l1.768-20.058A1.1,1.1,0,0,0,363.657,358.408Z" transform="translate(-228.93 -302.407)" fill="#d6e5e2"/>
      <path id="Path_19709" data-name="Path 19709" d="M107.282,44.559V38.891H98.336v5.668a15.242,15.242,0,0,1-5.424,11.659l-1.478,1.245a2.874,2.874,0,0,0-1.023,2.2v49.047a2.933,2.933,0,0,0,2.933,2.933h18.93a2.933,2.933,0,0,0,2.933-2.933V59.661a2.875,2.875,0,0,0-1.023-2.2l-1.478-1.245A15.242,15.242,0,0,1,107.282,44.559Z" transform="translate(-6.332 -32.814)" fill="#e5f9f6"/>
      <g id="Group_22249" data-name="Group 22249" transform="translate(84.079 16.58)">
        <path id="Path_19710" data-name="Path 19710" d="M295.05,402.106l1.272,14.425a1.724,1.724,0,0,0,1.718,1.573h13.293a1.724,1.724,0,0,0,1.718-1.573l1.272-14.425Z" transform="translate(-263.075 -355.857)" fill="#fd9727"/>
        <path id="Path_19711" data-name="Path 19711" d="M92.912,112.933l-1.478,1.245a2.874,2.874,0,0,0-1.023,2.2v49.047a2.933,2.933,0,0,0,2.933,2.933h18.93a2.933,2.933,0,0,0,2.933-2.933V116.377a2.874,2.874,0,0,0-1.023-2.2l-1.478-1.245a15.239,15.239,0,0,1-4.637-6.824H97.548A15.24,15.24,0,0,1,92.912,112.933Z" transform="translate(-90.411 -106.109)" fill="#fd9727"/>
      </g>
      <path id="Path_19712" data-name="Path 19712" d="M173.091,165.422V116.376a2.874,2.874,0,0,0-1.023-2.2l-1.478-1.245c-.124-.1-.245-.211-.365-.318l-.11-.1q-.126-.116-.25-.233l-.117-.113q-.126-.124-.249-.25l-.092-.094q-.168-.175-.33-.355l-.019-.022q-.151-.169-.3-.342l-.084-.1q-.116-.139-.228-.281l-.084-.107q-.122-.158-.24-.319l-.049-.065q-.147-.2-.287-.409l-.005-.008q-.133-.2-.259-.4l-.053-.085q-.106-.17-.207-.343l-.049-.084q-.118-.2-.231-.412l0-.007q-.238-.443-.446-.9l-.03-.067q-.09-.2-.173-.4l-.025-.059q-.192-.469-.354-.951h-6.94a15.052,15.052,0,0,0,.992,3.863,7.73,7.73,0,0,0,1.907,2.961l.417.351a5.856,5.856,0,0,1,2.084,4.48v50.593h5.745a2.93,2.93,0,0,0,2.933-2.933Z" transform="translate(-64.215 -89.529)" fill="#e57f23"/>
      <path id="Path_19713" data-name="Path 19713" d="M144.629,15.673h-9.348a.845.845,0,0,1-.845-.845V8.35a.845.845,0,0,1,.845-.845h9.348a.845.845,0,0,1,.845.845v6.477A.846.846,0,0,1,144.629,15.673Z" transform="translate(-43.478 -6.332)" fill="#4a4256"/>
      <path id="Path_19714" data-name="Path 19714" d="M157.481,7.505h-7.814v8.168h7.814a.845.845,0,0,0,.845-.845V8.35A.846.846,0,0,0,157.481,7.505Z" transform="translate(-56.33 -6.332)" fill="#352f3f"/>
      <path id="Path_19715" data-name="Path 19715" d="M90.411,230.712l24.8,11.478V224.981L90.411,213.5Z" transform="translate(-6.332 -180.143)" fill="#4a4256"/>
      <path id="Path_19716" data-name="Path 19716" d="M202.247,282.478V265.269l-8.678-4.017v17.209Z" transform="translate(-93.372 -220.431)" fill="#352f3f"/>
      <path id="Path_19717" data-name="Path 19717" d="M115.208,229.412v-4.431L90.411,213.5v4.309Z" transform="translate(-6.332 -180.143)" fill="#fdc74f"/>
      <path id="Path_19718" data-name="Path 19718" d="M202.247,269.7v-4.431l-8.678-4.017v4.388Z" transform="translate(-93.372 -220.431)" fill="#e5a535"/>
      <path id="Path_19719" data-name="Path 19719" d="M90.411,297.286V301.4l24.8,11.478v-4Z" transform="translate(-6.332 -250.835)" fill="#fdc74f"/>
      <path id="Path_19720" data-name="Path 19720" d="M202.247,353.6v-4l-8.678-4.06v4.039Z" transform="translate(-93.372 -291.552)" fill="#e5a535"/>
      <path id="Path_19721" data-name="Path 19721" d="M132.468,460.23H118.4a1.173,1.173,0,1,1,0-2.345h14.073a1.173,1.173,0,1,1,0,2.345Z" transform="translate(-28.955 -386.341)" fill="#e9eaeb"/>
      <path id="Path_19722" data-name="Path 19722" d="M355.64,402.106l-1.41,16h7.035a1.724,1.724,0,0,0,1.718-1.573l1.272-14.425Z" transform="translate(-228.93 -339.277)" fill="#e57f23"/>
      <path id="Path_19723" data-name="Path 19723" d="M164.5,59.781h-6.275l0,5.285a16.291,16.291,0,0,0,.119,1.953h6.94a15.233,15.233,0,0,1-.788-4.835Z" transform="translate(-63.55 -50.44)" fill="#d6e5e2"/>
      <path id="Path_19724" data-name="Path 19724" d="M317.639,476.671H302.765a1.922,1.922,0,0,1-1.177-.4l.25,2.837a1.724,1.724,0,0,0,1.718,1.573h13.293a1.724,1.724,0,0,0,1.718-1.573l.25-2.837A1.923,1.923,0,0,1,317.639,476.671Z" transform="translate(-184.513 -401.853)" fill="#d7e0dc"/>
      <path id="Path_19725" data-name="Path 19725" d="M362.056,476.672h-7.473l-.353,4.009h7.035a1.724,1.724,0,0,0,1.717-1.573l.25-2.837A1.923,1.923,0,0,1,362.056,476.672Z" transform="translate(-228.93 -401.854)" fill="#cbd1cf"/>
      <path id="Path_19726" data-name="Path 19726" d="M118.4,433.686h14.073a1.173,1.173,0,1,0,0-2.345H118.4a1.173,1.173,0,1,0,0,2.345Z" transform="translate(-28.955 -363.944)"/>
      <path id="Path_19727" data-name="Path 19727" d="M118.4,460.23h14.073a1.173,1.173,0,1,0,0-2.345H118.4a1.173,1.173,0,1,0,0,2.345Z" transform="translate(-28.955 -386.341)"/>
      <path id="Path_19728" data-name="Path 19728" d="M108.608,23.751h0l-1.478-1.244a14.046,14.046,0,0,1-4.26-6.231,1.188,1.188,0,0,0-.039-.12,14.079,14.079,0,0,1-.708-4.411V10.263A2.019,2.019,0,0,0,103.169,8.5V2.018A2.021,2.021,0,0,0,101.151,0H91.8a2.02,2.02,0,0,0-2.018,2.018V8.5a2.019,2.019,0,0,0,1.046,1.768v1.482a14.084,14.084,0,0,1-.708,4.411,1.149,1.149,0,0,0-.039.12,14.045,14.045,0,0,1-4.26,6.231l-1.478,1.244a4.038,4.038,0,0,0-1.44,3.1V75.894A4.111,4.111,0,0,0,87.012,80h18.93a4.111,4.111,0,0,0,4.106-4.106V26.847A4.038,4.038,0,0,0,108.608,23.751ZM92.13,2.345h8.693V8.168H92.13V2.345Zm8.059,13.061H92.764a16.46,16.46,0,0,0,.412-3.662V10.513h6.6v1.231A16.46,16.46,0,0,0,100.19,15.407ZM107.7,75.894a1.763,1.763,0,0,1-1.76,1.761H87.012a1.763,1.763,0,0,1-1.76-1.761V52.4L107.7,62.8v13.1Zm0-15.682L85.251,49.82V48.294L107.7,58.8Zm0-4L85.251,45.7V39.512l22.451,10.5v6.193ZM107.7,43,94.146,36.727a1.173,1.173,0,1,0-.985,2.128L107.7,45.587v1.838l-22.451-10.5V35.195l2.877,1.332a1.173,1.173,0,1,0,.985-2.128l-3.862-1.788V26.847a1.7,1.7,0,0,1,.606-1.3L87.335,24.3a16.394,16.394,0,0,0,4.705-6.549h8.873a16.389,16.389,0,0,0,4.705,6.549l1.478,1.245h0a1.7,1.7,0,0,1,.606,1.3V43Z"/>
      <path id="Path_19729" data-name="Path 19729" d="M306.362,351.64a2.277,2.277,0,0,0-1.675-.737H286.611a2.271,2.271,0,0,0-2.262,2.47l1.768,20.058A2.883,2.883,0,0,0,289,376.074h13.293a2.883,2.883,0,0,0,2.886-2.643l1.768-20.058A2.275,2.275,0,0,0,306.362,351.64Zm-3.517,21.585a.549.549,0,0,1-.444.493.574.574,0,0,1-.105.01H289a.576.576,0,0,1-.105-.01.548.548,0,0,1-.444-.493l-.1-1.16h14.6Zm1.366-15.495h-8.562a1.173,1.173,0,0,0,0,2.345H304l-.85,9.637c-.023,0-.044.007-.068.007H288.211a.668.668,0,0,1-.068-.007l-.85-9.637h2.812a1.173,1.173,0,1,0,0-2.345h-3.019l-.4-4.482h17.914Z" transform="translate(-169.96 -296.074)"/>
    </g>
  </g>
</svg>
