<svg xmlns="http://www.w3.org/2000/svg" width="79" height="79" viewBox="0 0 79 79">
  <g id="t1-i20" transform="translate(-776 -11873)">
    <circle id="Base" cx="39.5" cy="39.5" r="39.5" transform="translate(776 11873)" fill="#fff"/>
    <g id="Group_22258" data-name="Group 22258" transform="translate(739 11877)">
      <path id="Path_19742" data-name="Path 19742" d="M114.594,120.586v26.581a11.719,11.719,0,0,1-11.719,11.719H67.719A11.719,11.719,0,0,1,56,147.168V120.586a14.414,14.414,0,0,1,3.662-9.6,14.414,14.414,0,0,0,3.662-9.6V100H107.27v1.386a14.414,14.414,0,0,0,3.662,9.6A14.414,14.414,0,0,1,114.594,120.586Z" transform="translate(-8.535 -85.352)" fill="#c68966"/>
      <path id="Path_19743" data-name="Path 19743" d="M110.266,208.287V185.629a25.588,25.588,0,0,1-11.258-5.14C95.952,178.074,90.95,176.5,85.3,176.5s-10.655,1.574-13.711,3.988A25.171,25.171,0,0,1,56,186.021v23.73h58.594v-1.465Z" transform="translate(-8.535 -150.646)" fill="#ff7b79"/>
      <path id="Path_19744" data-name="Path 19744" d="M81,10h51.27V23.184H81Z" transform="translate(-29.873 -8.535)" fill="#f0f0f0"/>
      <path id="Path_19745" data-name="Path 19745" d="M103.489,24.659h0a12.935,12.935,0,0,1-3.288-8.546h2.2a1.465,1.465,0,0,0,1.465-1.465V1.465A1.465,1.465,0,0,0,102.4,0H51.127a1.465,1.465,0,0,0-1.465,1.465V14.648a1.465,1.465,0,0,0,1.465,1.465h2.2a12.935,12.935,0,0,1-3.288,8.546A15.859,15.859,0,0,0,46,35.235V61.816A13.176,13.176,0,0,0,59.183,75H70.2a1.465,1.465,0,0,0,0-2.93H59.184A10.253,10.253,0,0,1,48.93,61.816V60.571h55.664v1.245A10.253,10.253,0,0,1,94.34,72.07H83.38a1.465,1.465,0,0,0,0,2.93H94.34a13.176,13.176,0,0,0,13.183-13.183V35.235A15.858,15.858,0,0,0,103.489,24.659Zm-50.9-11.476V2.93h48.34V13.184Zm52,27.359v17.1H48.93V36.8a26.922,26.922,0,0,0,15.029-5.806c2.91-2.3,7.7-3.673,12.8-3.673s9.893,1.373,12.8,3.673A27.443,27.443,0,0,0,97.609,35.4v-3.12a24.578,24.578,0,0,1-6.228-3.587c-3.461-2.735-8.79-4.3-14.619-4.3s-11.158,1.569-14.619,4.3a24.005,24.005,0,0,1-13.136,5.163A12.931,12.931,0,0,1,52.22,26.61a15.866,15.866,0,0,0,4.034-10.5H97.27a15.866,15.866,0,0,0,4.034,10.5,12.933,12.933,0,0,1,3.214,7.246l.034,2.938.043,0Z"/>
      <g id="Group_22256" data-name="Group 22256" transform="translate(93.174 33.929)">
        <path id="Path_19746" data-name="Path 19746" d="M383.831,241.72c0,.971-1.8,2.743-5.69,2.743v25.012s5.551-.342,5.69-4.057v-23.7Z" transform="translate(-376.662 -240.241)" fill="#fff"/>
        <path id="Path_19747" data-name="Path 19747" d="M369.521,262.334a1.479,1.479,0,0,1-1.479-1.479V235.843a1.479,1.479,0,0,1,1.479-1.479c2.7,0,4-.979,4.215-1.384a1.48,1.48,0,0,1,2.954.12v23.7c0,.018,0,.037,0,.055-.079,2.122-1.442,3.807-3.836,4.744a11.92,11.92,0,0,1-3.241.734ZM371,237.24v21.851c1.2-.324,2.664-.991,2.731-2.325V236.547A9.826,9.826,0,0,1,371,237.24Z" transform="translate(-368.042 -231.62)"/>
      </g>
      <g id="Group_22257" data-name="Group 22257" transform="translate(95.15 31.994)">
        <path id="Path_19748" data-name="Path 19748" d="M391.635,228.513c1.635.773,3.713.8,3.713,1.935" transform="translate(-390.155 -227.033)" fill="#fff"/>
        <path id="Path_19749" data-name="Path 19749" d="M386.725,223.3a1.48,1.48,0,0,1-1.423-1.073c-.248-.105-.681-.231-.991-.322a12.819,12.819,0,0,1-1.932-.682,1.48,1.48,0,1,1,1.265-2.675,10.375,10.375,0,0,0,1.494.516c1.221.355,3.066.892,3.066,2.756A1.479,1.479,0,0,1,386.725,223.3Zm-1.266-.991h0Z" transform="translate(-381.532 -218.411)"/>
      </g>
    </g>
  </g>
</svg>
