<svg xmlns="http://www.w3.org/2000/svg" width="1008" height="450" viewBox="0 0 1008 450">
  <g id="t1-i23" transform="translate(-1597 803)">
    <rect id="Rectángulo_5006" data-name="Rectángulo 5006" width="1008" height="450" transform="translate(1597 -803)" fill="#f6f6f6"/>
    <g id="Group_80485" data-name="Group 80485">
      <g id="Grupo_22275" data-name="Grupo 22275">
        <rect id="Rectángulo_3424" data-name="Rectángulo 3424" width="397" height="171" transform="translate(1902.5 -769.229)" fill="#fff"/>
      </g>
      <g id="Grupo_22276" data-name="Grupo 22276">
        <rect id="Rectángulo_3425" data-name="Rectángulo 3425" width="3.73" height="149.971" transform="translate(1944.629 -769.607)"/>
        <rect id="Rectángulo_3426" data-name="Rectángulo 3426" width="3.73" height="149.971" transform="translate(1952.089 -769.607)"/>
        <rect id="Rectángulo_3427" data-name="Rectángulo 3427" width="11.478" height="133.021" transform="translate(1959.263 -769.607)"/>
        <rect id="Rectángulo_3428" data-name="Rectángulo 3428" width="7.748" height="133.021" transform="translate(1974.184 -769.607)"/>
        <rect id="Rectángulo_3429" data-name="Rectángulo 3429" width="3.73" height="133.021" transform="translate(1985.662 -769.607)"/>
        <rect id="Rectángulo_3430" data-name="Rectángulo 3430" width="11.19" height="133.021" transform="translate(1996.853 -769.607)"/>
        <rect id="Rectángulo_3431" data-name="Rectángulo 3431" width="3.443" height="133.021" transform="translate(2015.791 -769.607)"/>
        <rect id="Rectángulo_3432" data-name="Rectángulo 3432" width="7.174" height="133.021" transform="translate(2026.982 -769.607)"/>
        <rect id="Rectángulo_3433" data-name="Rectángulo 3433" width="3.73" height="133.021" transform="translate(2037.885 -769.607)"/>
        <rect id="Rectángulo_3434" data-name="Rectángulo 3434" width="11.19" height="133.021" transform="translate(2049.075 -769.607)"/>
        <rect id="Rectángulo_3435" data-name="Rectángulo 3435" width="7.46" height="133.021" transform="translate(2071.457 -769.607)"/>
        <rect id="Rectángulo_3436" data-name="Rectángulo 3436" width="3.73" height="133.021" transform="translate(2082.647 -769.607)"/>
        <rect id="Rectángulo_3437" data-name="Rectángulo 3437" width="7.748" height="133.021" transform="translate(2089.821 -769.607)"/>
        <rect id="Rectángulo_3438" data-name="Rectángulo 3438" width="7.748" height="133.021" transform="translate(2104.742 -769.607)"/>
        <rect id="Rectángulo_3439" data-name="Rectángulo 3439" width="3.73" height="149.971" transform="translate(2116.219 -769.607)"/>
        <rect id="Rectángulo_3440" data-name="Rectángulo 3440" width="3.73" height="149.971" transform="translate(2123.68 -769.607)"/>
        <rect id="Rectángulo_3441" data-name="Rectángulo 3441" width="11.19" height="133.021" transform="translate(2131.14 -769.607)"/>
        <rect id="Rectángulo_3442" data-name="Rectángulo 3442" width="3.73" height="133.021" transform="translate(2149.792 -769.607)"/>
        <rect id="Rectángulo_3443" data-name="Rectángulo 3443" width="3.73" height="133.021" transform="translate(2157.252 -769.607)"/>
        <rect id="Rectángulo_3444" data-name="Rectángulo 3444" width="11.19" height="133.021" transform="translate(2164.712 -769.607)"/>
        <rect id="Rectángulo_3445" data-name="Rectángulo 3445" width="3.73" height="133.021" transform="translate(2183.364 -769.607)"/>
        <rect id="Rectángulo_3446" data-name="Rectángulo 3446" width="11.19" height="133.021" transform="translate(2194.554 -769.607)"/>
        <rect id="Rectángulo_3447" data-name="Rectángulo 3447" width="7.748" height="133.021" transform="translate(2209.476 -769.607)"/>
        <rect id="Rectángulo_3448" data-name="Rectángulo 3448" width="7.748" height="133.021" transform="translate(2220.666 -769.607)"/>
        <rect id="Rectángulo_3449" data-name="Rectángulo 3449" width="11.19" height="133.021" transform="translate(2235.586 -769.607)"/>
        <rect id="Rectángulo_3450" data-name="Rectángulo 3450" width="3.73" height="133.021" transform="translate(2254.238 -769.607)"/>
        <rect id="Rectángulo_3451" data-name="Rectángulo 3451" width="3.73" height="133.021" transform="translate(2261.698 -769.607)"/>
        <rect id="Rectángulo_3452" data-name="Rectángulo 3452" width="11.19" height="133.021" transform="translate(2269.158 -769.607)"/>
        <rect id="Rectángulo_3453" data-name="Rectángulo 3453" width="3.73" height="149.971" transform="translate(2287.81 -769.607)"/>
        <rect id="Rectángulo_3454" data-name="Rectángulo 3454" width="3.73" height="149.971" transform="translate(2295.27 -769.607)"/>
      </g>
      <g id="Grupo_22280" data-name="Grupo 22280">
        <g id="Grupo_22277" data-name="Grupo 22277">
          <path id="Trazado_19777" data-name="Trazado 19777" d="M1931.022-627.495l-9.164,21.209h-2.75l9.028-20.782H1917.3v-2.345h13.72Z"/>
        </g>
        <g id="Grupo_22278" data-name="Grupo 22278">
          <path id="Trazado_19778" data-name="Trazado 19778" d="M1988.559-627.495l-9.164,21.209h-2.751l9.032-20.782h-10.834v-2.345h13.717Z"/>
          <path id="Trazado_19779" data-name="Trazado 19779" d="M2001.758-629.857a6.293,6.293,0,0,1,5.647,3.156q1.976,3.157,1.975,8.862a17.168,17.168,0,0,1-1.917,8.762,6.225,6.225,0,0,1-5.7,3.236,6.3,6.3,0,0,1-5.639-3.147q-1.983-3.147-1.982-8.851,0-5.543,1.924-8.778A6.23,6.23,0,0,1,2001.758-629.857Zm0,21.653a3.817,3.817,0,0,0,3.6-2.307q1.173-2.3,1.171-7.334,0-5.051-1.171-7.335a3.936,3.936,0,0,0-5.224-1.923,3.935,3.935,0,0,0-1.949,1.979q-1.177,2.345-1.178,7.277,0,5,1.171,7.321a3.8,3.8,0,0,0,3.581,2.325Zm-.068-12.1a2.435,2.435,0,0,1,2.46,2.411v.049a2.558,2.558,0,0,1-.721,1.826,2.3,2.3,0,0,1-1.739.763,2.255,2.255,0,0,1-1.712-.763,2.572,2.572,0,0,1-.709-1.826,2.4,2.4,0,0,1,.7-1.756A2.332,2.332,0,0,1,2001.69-620.3Z"/>
          <path id="Trazado_19780" data-name="Trazado 19780" d="M2035.953-606.283h-12.719v-1.952q4.837-5.394,6.278-7.23a18.326,18.326,0,0,0,2.345-3.851,9.787,9.787,0,0,0,.9-4.018,4,4,0,0,0-1.171-3.048,4.574,4.574,0,0,0-3.283-1.115,13.585,13.585,0,0,0-4.361,1l-.377-2.307a13.136,13.136,0,0,1,5.18-1.05,7.073,7.073,0,0,1,4.99,1.746,6.04,6.04,0,0,1,1.9,4.665,9.543,9.543,0,0,1-.976,4.13,19.762,19.762,0,0,1-2.5,3.934q-1.524,1.886-5.933,6.754h9.735Z"/>
          <path id="Trazado_19781" data-name="Trazado 19781" d="M2050.052-629.857a6.293,6.293,0,0,1,5.647,3.156q1.976,3.157,1.976,8.862a17.168,17.168,0,0,1-1.918,8.762,6.228,6.228,0,0,1-5.705,3.236,6.3,6.3,0,0,1-5.64-3.147q-1.982-3.147-1.983-8.851,0-5.543,1.927-8.778A6.223,6.223,0,0,1,2050.052-629.857Zm0,21.653a3.814,3.814,0,0,0,3.6-2.307q1.173-2.3,1.174-7.334,0-5.051-1.174-7.335a3.935,3.935,0,0,0-5.221-1.925,3.936,3.936,0,0,0-1.95,1.981q-1.18,2.345-1.18,7.277,0,5,1.173,7.321a3.8,3.8,0,0,0,3.581,2.325Zm-.066-12.1a2.432,2.432,0,0,1,2.458,2.408.462.462,0,0,1,0,.052,2.554,2.554,0,0,1-.721,1.826,2.3,2.3,0,0,1-1.737.763,2.254,2.254,0,0,1-1.714-.763,2.573,2.573,0,0,1-.71-1.826,2.4,2.4,0,0,1,.7-1.756A2.331,2.331,0,0,1,2049.986-620.3Z"/>
          <path id="Trazado_19782" data-name="Trazado 19782" d="M2070.2-629.857a6.3,6.3,0,0,1,5.648,3.156q1.976,3.157,1.975,8.862a17.158,17.158,0,0,1-1.919,8.762,6.224,6.224,0,0,1-5.7,3.236,6.3,6.3,0,0,1-5.64-3.147q-1.983-3.147-1.982-8.851,0-5.543,1.924-8.778A6.23,6.23,0,0,1,2070.2-629.857Zm0,21.653a3.817,3.817,0,0,0,3.6-2.307q1.171-2.3,1.171-7.334,0-5.051-1.171-7.335a3.935,3.935,0,0,0-5.221-1.925,3.933,3.933,0,0,0-1.95,1.981q-1.18,2.345-1.18,7.277,0,5,1.171,7.321a3.8,3.8,0,0,0,3.582,2.325Zm-.065-12.1a2.433,2.433,0,0,1,2.458,2.408v.052a2.56,2.56,0,0,1-.722,1.826,2.292,2.292,0,0,1-1.736.763,2.258,2.258,0,0,1-1.715-.763,2.578,2.578,0,0,1-.71-1.826,2.4,2.4,0,0,1,.7-1.756A2.334,2.334,0,0,1,2070.134-620.3Z"/>
          <path id="Trazado_19783" data-name="Trazado 19783" d="M2097-606.283h-12.165v-2.344h4.9v-17.968l-4.621,2.313v-2.69l5-2.573h2.313v20.918H2097Z"/>
        </g>
        <g id="Grupo_22279" data-name="Grupo 22279">
          <path id="Trazado_19784" data-name="Trazado 19784" d="M2151.2-629.857a6.3,6.3,0,0,1,5.648,3.156q1.972,3.157,1.975,8.862a17.155,17.155,0,0,1-1.919,8.762,6.224,6.224,0,0,1-5.7,3.236,6.3,6.3,0,0,1-5.64-3.147q-1.983-3.147-1.982-8.851,0-5.543,1.926-8.778A6.224,6.224,0,0,1,2151.2-629.857Zm0,21.653a3.808,3.808,0,0,0,3.6-2.307q1.174-2.3,1.173-7.334,0-5.051-1.173-7.335a3.933,3.933,0,0,0-5.218-1.926,3.934,3.934,0,0,0-1.951,1.982q-1.18,2.345-1.18,7.277,0,5,1.171,7.321a3.8,3.8,0,0,0,3.582,2.325Zm-.066-12.1a2.433,2.433,0,0,1,2.458,2.408v.052a2.556,2.556,0,0,1-.722,1.826,2.292,2.292,0,0,1-1.736.763,2.258,2.258,0,0,1-1.715-.763,2.587,2.587,0,0,1-.71-1.826,2.4,2.4,0,0,1,.7-1.756A2.328,2.328,0,0,1,2151.136-620.3Z"/>
          <path id="Trazado_19785" data-name="Trazado 19785" d="M2178.905-611.627h-2.852v5.344h-2.689v-5.344H2163.3v-2.05l9.132-15.736h3.622v15.441h2.852Zm-5.541-2.344v-12.786l-7.343,12.786Z"/>
          <path id="Trazado_19786" data-name="Trazado 19786" d="M2188.578-620.085a8.456,8.456,0,0,1,2.18-.3,6.8,6.8,0,0,1,5.18,2.009,7,7,0,0,1,1.9,5.008,7.234,7.234,0,0,1-2.215,5.337,7.386,7.386,0,0,1-5.393,2.185,11.346,11.346,0,0,1-5.081-1.016l.542-2.277a11.8,11.8,0,0,0,4.606.934,4.507,4.507,0,0,0,3.417-1.361,5.271,5.271,0,0,0,1.3-3.8,4.848,4.848,0,0,0-1.229-3.557,4.254,4.254,0,0,0-3.165-1.242,7.571,7.571,0,0,0-2.786.541l-1.607-.737v-11.053h10.574v2.345h-8.229Z"/>
          <path id="Trazado_19787" data-name="Trazado 19787" d="M2217.69-606.283h-12.72v-1.952q4.835-5.394,6.278-7.23a18.331,18.331,0,0,0,2.345-3.851,9.767,9.767,0,0,0,.9-4.018,3.99,3.99,0,0,0-1.173-3.048,4.572,4.572,0,0,0-3.283-1.115,13.591,13.591,0,0,0-4.361,1l-.377-2.307a13.117,13.117,0,0,1,5.18-1.05,7.083,7.083,0,0,1,4.992,1.746,6.05,6.05,0,0,1,1.891,4.665,9.543,9.543,0,0,1-.976,4.13,19.876,19.876,0,0,1-2.5,3.934q-1.526,1.886-5.935,6.754h9.737Z"/>
          <path id="Trazado_19788" data-name="Trazado 19788" d="M2231.789-629.857a6.3,6.3,0,0,1,5.647,3.156q1.972,3.157,1.976,8.862a17.145,17.145,0,0,1-1.92,8.762,6.222,6.222,0,0,1-5.7,3.236,6.3,6.3,0,0,1-5.64-3.147q-1.984-3.147-1.983-8.851,0-5.543,1.927-8.778A6.223,6.223,0,0,1,2231.789-629.857Zm0,21.653a3.809,3.809,0,0,0,3.6-2.307q1.174-2.3,1.173-7.334,0-5.051-1.173-7.335a3.933,3.933,0,0,0-5.218-1.926,3.939,3.939,0,0,0-1.952,1.982q-1.179,2.345-1.18,7.277,0,5,1.172,7.321a3.8,3.8,0,0,0,3.582,2.325Zm-.066-12.1a2.432,2.432,0,0,1,2.458,2.408.462.462,0,0,1,0,.052,2.549,2.549,0,0,1-.721,1.826,2.3,2.3,0,0,1-1.737.763,2.25,2.25,0,0,1-1.714-.763,2.575,2.575,0,0,1-.71-1.826,2.393,2.393,0,0,1,.7-1.755,2.328,2.328,0,0,1,1.727-.7Z"/>
          <path id="Trazado_19789" data-name="Trazado 19789" d="M2265.492-611.627h-2.852v5.344h-2.688v-5.344h-10.066v-2.05l9.131-15.736h3.623v15.441h2.852Zm-5.539-2.344v-12.786l-7.345,12.786Z"/>
        </g>
      </g>
      <rect id="Rectángulo_3043" data-name="Rectángulo 3043" width="261" height="137.71" rx="12.453" transform="translate(1831 -525.103)" fill="#d64626"/>
      <text id="Los_siguientes_cuatro_o_cinco_dígitos_corresponden_al_Código_del_propietario_o_empresa_que_lo_solicita_al_representante_de_Bélgica_en_cada_país." data-name="Los siguientes cuatro o cinco dígitos, corresponden al Código del propietario o empresa que lo solicita al representante de Bélgica en cada país." transform="translate(1841.357 -509.021)" fill="#fff" font-size="16" font-family="SegoeUI, Segoe UI"><tspan x="0" y="17">Los siguientes cuatro o cinco </tspan><tspan x="0" y="36.2">dígitos, corresponden al Código </tspan><tspan x="0" y="55.4">del propietario o empresa que lo </tspan><tspan x="0" y="74.6">solicita al representante de </tspan><tspan x="0" y="93.8">Bélgica en cada país.</tspan></text>
      <rect id="Rectángulo_3043-2" data-name="Rectángulo 3043" width="261" height="137.71" rx="12.453" transform="translate(2110 -525.103)" fill="#b52426"/>
      <text id="Los_siguientes_cuatro_o_cinco_dígitos_corresponden_al_Código_de_referencia_del_producto_asignado_por_el_propietario_del_código._Corresponde_a_la_referencia_dentro_de_la_empresa." data-name="Los siguientes cuatro o cinco dígitos corresponden al Código de referencia del producto, asignado por el propietario del código. Corresponde a la referencia dentro de la empresa." transform="translate(2120.357 -518.619)" fill="#fff" font-size="16" font-family="SegoeUI, Segoe UI"><tspan x="0" y="17">Los siguientes cuatro o cinco </tspan><tspan x="0" y="36.2">dígitos corresponden al Código </tspan><tspan x="0" y="55.4">de referencia del producto, </tspan><tspan x="0" y="74.6">asignado por el propietario del </tspan><tspan x="0" y="93.8">código. Corresponde a la </tspan><tspan x="0" y="113">referencia dentro de la empresa.</tspan></text>
      <g id="Group_80484" data-name="Group 80484">
        <rect id="Rectángulo_3043-3" data-name="Rectángulo 3043" width="261" height="137.71" rx="12.453" transform="translate(1611.5 -680.233)" fill="#a3121d"/>
        <text id="Los_primeros_dos_o_tres_dígitos_corresponden_al_país._Ejemplo_Colombia_código_770._Asignado_desde_la_sede_en_Bélgica_por_la_organización_EAN_hoy_GS1_a_los_países_asociados_hoy_150_." data-name="Los primeros dos o tres dígitos, corresponden al país. Ejemplo, Colombia código 770. Asignado desde la sede, en Bélgica, por la organización EAN (hoy GS1) a los países asociados (hoy 150)." transform="translate(1621.857 -673.749)" fill="#fff" font-size="16" font-family="SegoeUI, Segoe UI"><tspan x="0" y="17">Los primeros dos o tres dígitos, </tspan><tspan x="0" y="36.2">corresponden al país. Ejemplo, </tspan><tspan x="0" y="55.4">Colombia código 770. Asignado </tspan><tspan x="0" y="74.6">desde la sede, en Bélgica, por la </tspan><tspan x="0" y="93.8">organización EAN (hoy GS1) a los </tspan><tspan x="0" y="113">países asociados (hoy 150).</tspan></text>
      </g>
      <rect id="Rectángulo_3043-4" data-name="Rectángulo 3043" width="261" height="216.71" rx="12.453" transform="translate(2329.5 -759.233)" fill="#ee8d3f"/>
      <text id="El_último_dígito_corresponde_al_código_de_control._Resulta_de_un_logaritmo_utilizando_los_doce_dígitos_anteriores._Los_dígitos_en_posición_impar_se_multiplican_por_tres_y_los_dígitos_en_posición_par_se_multiplican_por_uno._Se_suman_todos_estos_resultados_y" data-name="El último dígito corresponde al código de control. Resulta de un logaritmo utilizando los doce dígitos anteriores. Los dígitos en posición impar se multiplican por tres y los dígitos en posición par se multiplican por uno. Se suman todos estos resultados y" transform="translate(2339.857 -752.151)" fill="#fff" font-size="16" font-family="SegoeUI, Segoe UI"><tspan x="0" y="17">El último dígito corresponde al </tspan><tspan x="0" y="36.2">código de control. Resulta de un </tspan><tspan x="0" y="55.4">logaritmo utilizando los doce </tspan><tspan x="0" y="74.6">dígitos anteriores. Los dígitos en </tspan><tspan x="0" y="93.8">posición impar se multiplican por </tspan><tspan x="0" y="113">tres y los dígitos en posición par </tspan><tspan x="0" y="132.2">se multiplican por uno. Se suman </tspan><tspan x="0" y="151.4">todos estos resultados y el dígito </tspan><tspan x="0" y="170.6">de control es la última de las </tspan><tspan x="0" y="189.8">cifras del número resultante.</tspan></text>
      <path id="Path_138554" data-name="Path 138554" d="M2016.5-596.979H1902a1.25,1.25,0,0,1-1.25-1.25v-11.9H1872.5a1.25,1.25,0,0,1-1.25-1.25,1.25,1.25,0,0,1,1.25-1.25H1902a1.25,1.25,0,0,1,1.25,1.25v11.9h112v-35.857h-112v14.972a1.25,1.25,0,0,1-1.25,1.25,1.25,1.25,0,0,1-1.25-1.25v-16.222a1.25,1.25,0,0,1,1.25-1.25h114.5a1.25,1.25,0,0,1,1.25,1.25v38.357A1.25,1.25,0,0,1,2016.5-596.979Z" fill="#a3121d"/>
      <path id="Path_138555" data-name="Path 138555" d="M2197.844-523.853a1.25,1.25,0,0,1-1.25-1.25v-73.126a1.25,1.25,0,0,1,1.25-1.25h46.406v-36h-104.5v36h45.4a1.25,1.25,0,0,1,1.25,1.25,1.25,1.25,0,0,1-1.25,1.25H2138.5a1.25,1.25,0,0,1-1.25-1.25v-38.5a1.25,1.25,0,0,1,1.25-1.25h107a1.25,1.25,0,0,1,1.25,1.25v38.5a1.25,1.25,0,0,1-1.25,1.25h-46.406V-525.1A1.25,1.25,0,0,1,2197.844-523.853Z" fill="#b52426"/>
      <path id="Path_138556" data-name="Path 138556" d="M2049.656-523.853a1.25,1.25,0,0,1-1.25-1.25v-71.876H2017.5a1.25,1.25,0,0,1-1.25-1.25v-38.5a1.25,1.25,0,0,1,1.25-1.25H2109a1.25,1.25,0,0,1,1.25,1.25v38.5a1.25,1.25,0,0,1-1.25,1.25h-46.653a1.25,1.25,0,0,1-1.25-1.25,1.25,1.25,0,0,1,1.25-1.25h45.4v-36h-89v36h30.906a1.25,1.25,0,0,1,1.25,1.25V-525.1A1.25,1.25,0,0,1,2049.656-523.853Z" fill="#d64626"/>
      <path id="Path_138557" data-name="Path 138557" d="M2271.5-596.979H2245a1.25,1.25,0,0,1-1.25-1.25v-38.357a1.25,1.25,0,0,1,1.25-1.25h26.5a1.25,1.25,0,0,1,1.25,1.25v16.222a1.25,1.25,0,0,1-1.25,1.25,1.25,1.25,0,0,1-1.25-1.25v-14.972h-24v35.857h24v-11.9a1.25,1.25,0,0,1,1.25-1.25h58a1.25,1.25,0,0,1,1.25,1.25,1.25,1.25,0,0,1-1.25,1.25h-56.75v11.9A1.25,1.25,0,0,1,2271.5-596.979Z" fill="#ee8d3f"/>
    </g>
  </g>
</svg>
