<svg xmlns="http://www.w3.org/2000/svg" width="90" height="90" viewBox="0 0 90 90">
  <g id="t1-i4" transform="translate(-231 -1206)">
    <g id="t1-i4-2" data-name="t1-i4" transform="translate(0 -23258)">
      <g id="Group_55890" data-name="Group 55890">
        <g id="Group_55870" data-name="Group 55870" transform="translate(52 20724)">
          <circle id="Ellipse_1805" data-name="Ellipse 1805" cx="45" cy="45" r="45" transform="translate(179 3740)" fill="#97181a"/>
        </g>
      </g>
    </g>
    <g id="Group_56841" data-name="Group 56841" transform="translate(-907.67 1496.638)">
      <g id="Group_56840" data-name="Group 56840" transform="translate(1154.669 -275.638)">
        <path id="Path_32399" data-name="Path 32399" d="M1235.831-166.91a5.422,5.422,0,0,0-5.37,5.46,5.424,5.424,0,0,0,5.37,5.463,5.424,5.424,0,0,0,5.37-5.463A5.422,5.422,0,0,0,1235.831-166.91Zm0,9.165a3.664,3.664,0,0,1-3.612-3.705,3.662,3.662,0,0,1,3.612-3.7,3.662,3.662,0,0,1,3.612,3.7A3.664,3.664,0,0,1,1235.831-157.745Z" transform="translate(-1208.582 198.296)" fill="#fff"/>
        <path id="Path_32400" data-name="Path 32400" d="M1293.455-119.59a3.541,3.541,0,0,0-3.51,3.563,3.541,3.541,0,0,0,3.51,3.563,3.539,3.539,0,0,0,3.507-3.563A3.539,3.539,0,0,0,1293.455-119.59Zm0,5.368a1.781,1.781,0,0,1-1.752-1.805,1.781,1.781,0,0,1,1.752-1.805,1.78,1.78,0,0,1,1.749,1.805A1.78,1.78,0,0,1,1293.455-114.222Z" transform="translate(-1250.895 164.636)" fill="#fff"/>
        <path id="Path_32401" data-name="Path 32401" d="M1211.73-234.392v-2.639a1.251,1.251,0,0,0-1.248-1.251h-.113a7.728,7.728,0,0,0-.962-5.188,10.288,10.288,0,0,0-3.948-4.139.879.879,0,0,0-.78,0,.877.877,0,0,0-.476.618c-.621,3.123-4.147,3.439-9.454,3.564-.445.01-.9.022-1.35.036l1.779-12.029a1.5,1.5,0,0,0-.318-1.224,1.557,1.557,0,0,0-1.239-.509h-9.405a12.893,12.893,0,0,0-4.6-6.759v-2.863a2.33,2.33,0,0,0-1.445-2.153v-5.275a1.434,1.434,0,0,0-1.433-1.43h-13.125a1.434,1.434,0,0,0-1.433,1.43v5.275a2.33,2.33,0,0,0-1.445,2.154v2.864c-2.64,1.841-4.445,5.1-5.369,9.688-1.1,5.46-.895,12.644.573,20.226,1.331,6.876,3.485,12.894,5.762,16.1a4.436,4.436,0,0,0,4.327,2.265h39.212a2.2,2.2,0,0,0,2.194-2.194v-2.1a9.87,9.87,0,0,0,5.352-8.753V-233a1.455,1.455,0,0,0-1.056-1.4Zm-16.939-7.282c4.338-.1,9.2-.217,10.765-3.782,1.837,1.473,3.764,4.6,3.006,7.175h-15.92l.495-3.346C1193.686-241.648,1194.244-241.662,1194.791-241.675Zm-30.852-32.205h12.476v4.773h-12.476Zm-1.445,7.1a.576.576,0,0,1,.566-.57h14.234a.576.576,0,0,1,.566.57v2.457h-15.367Zm-5.4,12.9c.847-4.212,2.456-7.132,4.784-8.684h16.6a10.687,10.687,0,0,1,3.879,5.408h-12.138a1.555,1.555,0,0,0-1.238.51,1.5,1.5,0,0,0-.319,1.222l.874,5.9h-13.005a33.815,33.815,0,0,1,.564-4.358Zm-.647,6.115h13.348l2.521,17.031h-13.833a65.572,65.572,0,0,1-2.036-17.031Zm9.749,30.369h-.014c-1.94.031-2.307-.488-3.043-1.524a35.137,35.137,0,0,1-4.192-10.056h13.629l.518,3.5v7.985c0,.033,0,.065.005.1Zm18.627,0h-5.8v-2.886h5.8Zm4.172-.1a.1.1,0,0,1-.06.089h0a.09.09,0,0,1-.035.008h-2.317v-3.191a1.455,1.455,0,0,0-1.453-1.454h-6.411a1.455,1.455,0,0,0-1.454,1.454v3.191h-2.313a.1.1,0,0,1-.1-.1v-7.17h14.144v7.17Zm1.19-16.163-1.07,7.235h-14.385l-3.609-24.389h8.618a.879.879,0,0,0,.879-.879.879.879,0,0,0-.879-.879h-8.878l-.419-2.83H1193.4l-.418,2.83h-9.187a.879.879,0,0,0-.879.879.879.879,0,0,0,.879.879h8.927l-2.531,17.117c0,.012,0,.025-.006.038Zm15.5,15.824a.437.437,0,0,1-.437.436h-14.494c0-.032,0-.065,0-.1v-2.114h14.928Zm5.352-10.856a8.114,8.114,0,0,1-4.664,7.323h-15.615v-4.113l1.066-7.211h6.987a.879.879,0,0,0,.879-.879.879.879,0,0,0-.879-.879h-6.727l.307-2.076h17.59v2.076h-7.114a.879.879,0,0,0-.879.879.879.879,0,0,0,.879.879h8.17v4Z" transform="translate(-1154.669 275.638)" fill="#fff"/>
      </g>
    </g>
  </g>
</svg>
