<svg xmlns="http://www.w3.org/2000/svg" width="200" height="164.938" viewBox="0 0 200 164.938">
  <g id="t1-i26" transform="translate(-185 -14143)">
    <rect id="Rectangle_6842" data-name="Rectangle 6842" width="200" height="90" rx="5" transform="translate(185 14143)" fill="#fffae8"/>
    <g id="Group_80482" data-name="Group 80482" transform="translate(-936.039 12968.53)">
      <path id="Path_138542" data-name="Path 138542" d="M1319.778,1319s17.172,14.424,20.949,28.505c0,0-9.616,2.4-12.707,9.96s.344,15.8-2.4,20.262-16.141,14.768-17.515,4.465,1.717-26.788-5.5-27.131-18.889,3.091-20.262-5.152,1.374-15.454,8.242-19.232S1311.535,1326.212,1319.778,1319Z" transform="translate(-85.984 -79.792)" fill="#ee8d3f"/>
      <path id="Path_138543" data-name="Path 138543" d="M1191.839,1388s4.465,5.495,5.838,8.242,4.465,7.556,7.9,7.9,6.525,2.747,3.778,7.212-5.838,11.677-3.091,17.859,3.778,11.333,1.374,11.333-14.424-13.737-15.8-19.232S1187.718,1397.616,1191.839,1388Z" transform="translate(-25.358 -125.095)" fill="#ee8d3f"/>
      <path id="Path_138544" data-name="Path 138544" d="M1244.764,1209.836a55.393,55.393,0,0,1,12.732,13.5l3.464,9.467-.687,5.838-5.495,4.465s-17.859,12.707-38.121,10.3S1183,1220.781,1183,1220.781s24.727-19.576,43.616-17.172l10.99,3.778Z" transform="translate(-20.984 -3.896)" fill="#fff"/>
      <path id="Path_138545" data-name="Path 138545" d="M1463.6,1266.485s19.919-3.091,26.444-19.576-5.838-30.909-5.838-30.909-14.768,2.747-23.354,15.454S1463.6,1266.485,1463.6,1266.485Z" transform="translate(-201.304 -12.166)" fill="#fff"/>
      <path id="Path_138546" data-name="Path 138546" d="M1290.731,1214.013a57.119,57.119,0,0,0-4.948-11.26,2.121,2.121,0,0,0-2.244-.947,57.079,57.079,0,0,0-11.522,4.3c-8.173,4.08-13.882,9.528-16.512,15.751-2.189,5.182-2.5,11.518-.951,18.517a58.964,58.964,0,0,0-11.087-9.648,85.905,85.905,0,0,0-9.635-14.77c-1.687-2.073-4.931.529-3.227,2.622a83.271,83.271,0,0,1,7.672,11.286l-18.94-3.692-18-24.546a29.375,29.375,0,0,1,5.246.535c5.531,1.083,10.995,3.9,16.242,8.372,2.056,1.753,4.726-1.437,2.7-3.165-5.8-4.94-11.9-8.066-18.141-9.288-9.527-1.865-20.638.583-32.136,7.08a83,83,0,0,0-14.539,10.385,2.2,2.2,0,0,0-.247,2.855,84.839,84.839,0,0,0,9.326,14.639,65.009,65.009,0,0,0,9.829,10.1q-1.453,1.218-2.823,2.554a48.07,48.07,0,0,0,15.551,78.9c2.476,1,4.042-2.848,1.564-3.853a43.889,43.889,0,0,1-8.994-4.948,23.429,23.429,0,0,0-3.531-16.4c-.659-1.026,1.312-5.058,2.488-7.467a38.973,38.973,0,0,0,3.054-7.464,5.69,5.69,0,0,0-2.023-6.234,15.348,15.348,0,0,0-4.943-2.191,10.649,10.649,0,0,1-2.716-1.063c-.892-.748-2.349-3.511-3.521-5.729a35.562,35.562,0,0,0-3.8-6.246,44.211,44.211,0,0,1,13.126-17.294,36.365,36.365,0,0,0,17.52,6.51c-7.348,5.693-9.725,12.964-6.327,19.949,3.968,8.156,12.135,6.853,19.34,5.7,1.246-.2,2.536-.4,3.772-.559.463-.058.6.068.7.151,1.577,1.4,1.531,8.106,1.5,13-.046,6.77-.089,13.166,2.432,16.449a6.347,6.347,0,0,0,5.221,2.53,10.481,10.481,0,0,0,4.105-.929c6.271-2.686,12.791-10.768,11.8-17.163-.869-5.592-1.444-9.286-.088-12.263,1.254-2.756,4.284-5.307,10.252-8.562a43.907,43.907,0,0,1-47.714,53.154c-2.653-.288-3.112,3.841-.455,4.134a48.334,48.334,0,0,0,38.919-13.415,48.04,48.04,0,0,0-7.4-74.614c2.747-1.958,4.793-3.652,5.928-4.636a55.207,55.207,0,1,1-86.6,35.905c.431-2.617-3.669-3.3-4.1-.677a59.346,59.346,0,0,0,48.888,68.227,60.145,60.145,0,0,0,9.8.807,59.387,59.387,0,0,0,54.311-83.051,59.857,59.857,0,0,0,9.588-3.776c8.171-4.08,13.881-9.528,16.51-15.751S1293.5,1222.716,1290.731,1214.013Zm-120.684,57.174c1.547,2.933,3.01,5.705,4.531,6.977a11.923,11.923,0,0,0,4.162,1.849c4.064,1.249,4.536,1.863,4.146,3.47a36.318,36.318,0,0,1-2.747,6.617c-2.148,4.394-4.176,8.542-2.253,11.539a19.779,19.779,0,0,1,3.147,11.032,44.317,44.317,0,0,1-12.815-44.839C1168.829,1268.88,1169.472,1270.1,1170.047,1271.187Zm100.6-40.862L1264.74,1216a38.918,38.918,0,0,1,9.053-6.138,55.514,55.514,0,0,1,6.57-2.766Zm13.548-21.612a55.762,55.762,0,0,1,2.6,6.648,39.754,39.754,0,0,1,1.883,10.024l-13.848,5.713Zm-24.861,14.761a19.82,19.82,0,0,1,2.322-4.036l6.727,16.3-6.036,14.435a55.264,55.264,0,0,1-2.694-6.847C1257.953,1237.949,1256.518,1230.14,1259.336,1223.474Zm13.321,25.345a55.2,55.2,0,0,1-6.363,2.694l6.264-14.976,15.946-6.58a20.069,20.069,0,0,1-1.391,5.255C1284.3,1241.878,1277.7,1246.292,1272.657,1248.819Zm-74.978-1.183c-.735-.144-1.459-.32-2.174-.52l23.013-16.869,18.949,3.693C1230.564,1239.379,1213.765,1250.787,1197.679,1247.636Zm-21.031-13.01a80.989,80.989,0,0,1-10.6-14.608l24.114,4.7Zm4.259-27.742L1191,1220.645l-24.27-4.731A81.979,81.979,0,0,1,1180.906,1206.884Zm16.105,14.935-12.232-16.684a46.757,46.757,0,0,1,11.622-3.216L1213.323,1225Zm-1.294,3.984,17.246,3.361-22.134,16.224a43.016,43.016,0,0,1-11.217-7.78Zm56.422,40.6c-7.5,3.994-11.167,7.131-12.908,10.957-1.87,4.109-1.185,8.519-.236,14.623.561,3.6-3.717,10.3-9.322,12.7-2.074.888-3.551.783-4.392-.313-1.652-2.15-1.607-8.658-1.571-13.886.049-7.234.093-13.481-2.892-16.136a4.9,4.9,0,0,0-3.972-1.171c-1.307.163-2.634.374-3.915.579-7.643,1.218-12.453,1.706-14.945-3.417-4.037-8.3,4.135-14.442,7.836-16.7a13.171,13.171,0,0,0,2.1-1.6c8.945-1.069,17.4-4.906,24.928-9.714A44.136,44.136,0,0,1,1252.139,1266.407Z" fill="#a3121d"/>
    </g>
  </g>
</svg>
