<svg xmlns="http://www.w3.org/2000/svg" width="80" height="79" viewBox="0 0 80 79">
  <g id="t1-i19" transform="translate(-512 -11873)">
    <circle id="Base" cx="39.5" cy="39.5" r="39.5" transform="translate(513 11873)" fill="#fff"/>
    <g id="Group_22255" data-name="Group 22255" transform="translate(512 11855)">
      <path id="Path_19730" data-name="Path 19730" d="M417.086,201.825A12.59,12.59,0,0,0,404.5,189.492h-3.594a12.59,12.59,0,0,1,12.586,12.333h.007v33.594h3.594V201.825Z" transform="translate(-338.264 -142.165)" fill="#d0cfd1"/>
      <path id="Path_19731" data-name="Path 19731" d="M404.5,28.5h-3.594a12.593,12.593,0,1,1,0,25.186H404.5a12.593,12.593,0,0,0,0-25.186Z" transform="translate(-338.264 -6.328)" fill="#d0cfd1"/>
      <g id="Group_22252" data-name="Group 22252" transform="translate(0 21)">
        <path id="Path_19732" data-name="Path 19732" d="M88.094,214.678h52.471a12.593,12.593,0,0,0,0-25.186H88.094Z" transform="translate(-74.329 -163.165)" fill="#f9cd45"/>
        <path id="Path_19733" data-name="Path 19733" d="M97.023,228.544l-.054,6.876H149.7V201.825H149.7a12.59,12.59,0,0,0-12.586-12.333H84.64c-.214,0-.428.005-.64.016l13.232,12.577-.173,21.928" transform="translate(-70.875 -163.165)" fill="#ecedef"/>
        <path id="Path_19734" data-name="Path 19734" d="M32.686,202.085a12.593,12.593,0,1,1-12.593-12.593A12.593,12.593,0,0,1,32.686,202.085Z" transform="translate(-6.328 -163.165)" fill="#f9cd45"/>
        <path id="Path_19735" data-name="Path 19735" d="M69.625,247.42a4.2,4.2,0,1,1-4.2-4.2A4.2,4.2,0,0,1,69.625,247.42Z" transform="translate(-51.663 -208.501)" fill="#f8b53c"/>
        <path id="Path_19736" data-name="Path 19736" d="M88.094,53.686h52.471a12.593,12.593,0,0,0,0-25.186H88.094Z" transform="translate(-74.329 -27.328)" fill="#ecedef"/>
        <path id="Path_19737" data-name="Path 19737" d="M32.686,41.093A12.593,12.593,0,1,1,20.093,28.5,12.594,12.594,0,0,1,32.686,41.093Z" transform="translate(-6.328 -27.328)" fill="#f9cd45"/>
        <path id="Path_19738" data-name="Path 19738" d="M69.625,86.428a4.2,4.2,0,1,1-4.2-4.2A4.2,4.2,0,0,1,69.625,86.428Z" transform="translate(-51.663 -72.663)" fill="#f8b53c"/>
        <g id="Group_22251" data-name="Group 22251">
          <path id="Path_19739" data-name="Path 19739" d="M75.873,50.094a13.738,13.738,0,0,0-4.044-2.754A13.764,13.764,0,0,0,66.235,21H13.765a13.764,13.764,0,0,0-5.59,26.342,13.764,13.764,0,0,0,5.59,26.342H25.077l-.065,8.154a1.173,1.173,0,0,0,1.163,1.181h.009a1.172,1.172,0,0,0,1.172-1.163l.173-21.927h0s0-.006,0-.009a13.761,13.761,0,0,0-6.044-11.39h44.75c.2,0,.405-.005.606-.014A11.417,11.417,0,0,1,77.65,59.685c0,.034,0,.067.007.1v32.3H27.275l.045-5.695a1.171,1.171,0,0,0-1.162-1.181h-.01a1.171,1.171,0,0,0-1.171,1.162l-.055,6.876a1.172,1.172,0,0,0,1.172,1.181H78.828A1.172,1.172,0,0,0,80,93.255V59.661a1.155,1.155,0,0,0-.01-.153A13.685,13.685,0,0,0,75.873,50.094Zm-9.638-26.75a11.421,11.421,0,0,1,.6,22.825c-.2-.009-.4-.014-.6-.014a1.171,1.171,0,0,0-.264.031H21.44a13.755,13.755,0,0,0,0-22.842ZM2.344,34.765a11.421,11.421,0,1,1,12.031,11.4c-.2-.009-.406-.014-.61-.014s-.408.005-.61.014A11.435,11.435,0,0,1,2.344,34.765ZM25.1,71.341H21.44a13.879,13.879,0,0,0,3.685-3.657Zm.09-11.421a11.421,11.421,0,1,1-12.031-11.4c.2.009.405.015.61.015h.8A11.433,11.433,0,0,1,25.185,59.92Z" transform="translate(0 -21)" fill="#18191b"/>
          <path id="Path_19740" data-name="Path 19740" d="M59.1,235.723a5.37,5.37,0,1,0,5.37,5.369A5.375,5.375,0,0,0,59.1,235.723Zm0,8.395a3.026,3.026,0,1,1,3.026-3.025A3.029,3.029,0,0,1,59.1,244.118Z" transform="translate(-45.335 -202.173)" fill="#18191b"/>
          <path id="Path_19741" data-name="Path 19741" d="M64.469,80.1a5.37,5.37,0,1,0-5.37,5.37A5.376,5.376,0,0,0,64.469,80.1Zm-8.4,0A3.026,3.026,0,1,1,59.1,83.125,3.029,3.029,0,0,1,56.074,80.1Z" transform="translate(-45.335 -66.335)" fill="#18191b"/>
        </g>
      </g>
    </g>
  </g>
</svg>
