<svg xmlns="http://www.w3.org/2000/svg" width="80" height="79" viewBox="0 0 80 79">
  <g id="t1-i21" transform="translate(-1026 -11873)">
    <ellipse id="Base" cx="40" cy="39.5" rx="40" ry="39.5" transform="translate(1026 11873)" fill="#fff"/>
    <g id="Group_22274" data-name="Group 22274" transform="translate(977.422 11878)">
      <g id="Group_22259" data-name="Group 22259" transform="translate(63.714 18.312)">
        <path id="Path_19750" data-name="Path 19750" d="M117.142,126.7l3.315,3.964a14.6,14.6,0,0,1,3.4,9.367v32.513a8.76,8.76,0,0,1-8.76,8.76H78.89a8.76,8.76,0,0,1-8.76-8.76V140.03a14.6,14.6,0,0,1,3.4-9.367l3.315-3.964h40.3Z" transform="translate(-70.13 -126.699)" fill="#dd636e"/>
      </g>
      <g id="Group_22260" data-name="Group 22260" transform="translate(70.138 32.036)">
        <path id="Path_19751" data-name="Path 19751" d="M152.537,253.775H117.5a2.92,2.92,0,0,1-2.92-2.92v-26.28a2.92,2.92,0,0,1,2.92-2.92h35.04a2.92,2.92,0,0,1,2.92,2.92v26.28A2.92,2.92,0,0,1,152.537,253.775Z" transform="translate(-114.577 -221.655)" fill="#ecf4ff"/>
      </g>
      <g id="Group_22261" data-name="Group 22261" transform="translate(70.138 10.136)">
        <path id="Path_19752" data-name="Path 19752" d="M114.577,70.13h40.88V74.8h-40.88Z" transform="translate(-114.577 -70.13)" fill="#f1d0a5"/>
      </g>
      <g id="Group_22262" data-name="Group 22262" transform="translate(107.806 10.136)">
        <path id="Path_19753" data-name="Path 19753" d="M375.2,70.13h3.212V74.8H375.2Z" transform="translate(-375.199 -70.13)" fill="#f1b986"/>
      </g>
      <g id="Group_22263" data-name="Group 22263" transform="translate(65.822 18.312)">
        <path id="Path_19754" data-name="Path 19754" d="M132.934,130.664l-3.315-3.964h-40.3l-3.315,3.964a14.587,14.587,0,0,0-1.293,1.816L88.2,131.8a5.837,5.837,0,0,1,2.243,0l4.473.875a5.843,5.843,0,0,0,2.243,0l4.473-.875a5.842,5.842,0,0,1,2.243,0l4.473.875a5.843,5.843,0,0,0,2.243,0l4.473-.875a5.842,5.842,0,0,1,2.243,0l4.473.875a5.843,5.843,0,0,0,2.243,0l5.275-1.032a1.576,1.576,0,0,1,.638.007h0a1.562,1.562,0,0,1,1,.7,14.6,14.6,0,0,1,2.188,7.684v32.513a8.76,8.76,0,0,1-8.76,8.76h3.212a8.76,8.76,0,0,0,8.76-8.76V140.031A14.6,14.6,0,0,0,132.934,130.664Z" transform="translate(-84.715 -126.7)" fill="#da4a54"/>
      </g>
      <g id="Group_22264" data-name="Group 22264" transform="translate(66.075 14.808)">
        <path id="Path_19755" data-name="Path 19755" d="M131.407,102.455l3.717,3.717a1.168,1.168,0,0,1-1.05,1.972l-2.959-.579-6.716,1.314-6.716-1.314-6.716,1.314-6.716-1.314-6.716,1.314-6.716-1.314-2.959.579a1.168,1.168,0,0,1-1.05-1.972l3.717-3.717h40.88Z" transform="translate(-86.464 -102.455)" fill="#b3e59f"/>
      </g>
      <g id="Group_22265" data-name="Group 22265" transform="translate(105.908 14.808)">
        <path id="Path_19756" data-name="Path 19756" d="M370.894,106.173l-3.717-3.717h-5.11l5.181,5.181,2.6.508A1.168,1.168,0,0,0,370.894,106.173Z" transform="translate(-362.067 -102.456)" fill="#95d6a4"/>
      </g>
      <g id="Group_22266" data-name="Group 22266" transform="translate(67.218 1.084)">
        <path id="Path_19757" data-name="Path 19757" d="M138.174,16.552H97.294a2.92,2.92,0,0,1-2.92-2.92V10.42a2.92,2.92,0,0,1,2.92-2.92h40.88a2.92,2.92,0,0,1,2.92,2.92v3.212A2.92,2.92,0,0,1,138.174,16.552Z" transform="translate(-94.374 -7.5)" fill="#b3e59f"/>
      </g>
      <g id="Group_22267" data-name="Group 22267" transform="translate(106.492 1.084)">
        <path id="Path_19758" data-name="Path 19758" d="M370.634,7.5h-4.526a2.92,2.92,0,0,1,2.92,2.92v3.212a2.92,2.92,0,0,1-2.92,2.92h4.526a2.92,2.92,0,0,0,2.92-2.92V10.42A2.92,2.92,0,0,0,370.634,7.5Z" transform="translate(-366.108 -7.5)" fill="#95d6a4"/>
      </g>
      <g id="Group_22272" data-name="Group 22272" transform="translate(82.017 37.407)">
        <g id="Group_22268" data-name="Group 22268" transform="translate(13.421 3.504)">
          <path id="Path_19759" data-name="Path 19759" d="M292.545,287.731c-1.613,0-2.92-2.336-2.92-2.336s1.307-2.336,2.92-2.336,2.92,2.336,2.92,2.336S294.158,287.731,292.545,287.731Z" transform="translate(-289.625 -283.059)" fill="#95d6a4"/>
        </g>
        <g id="Group_22269" data-name="Group 22269" transform="translate(11.085)">
          <path id="Path_19760" data-name="Path 19760" d="M278.134,261.736c0,1.613-2.336,2.92-2.336,2.92s-2.336-1.307-2.336-2.92,2.336-2.92,2.336-2.92S278.134,260.123,278.134,261.736Z" transform="translate(-273.462 -258.816)" fill="#b3e59f"/>
        </g>
        <g id="Group_22270" data-name="Group 22270" transform="translate(0 3.339)">
          <path id="Path_19761" data-name="Path 19761" d="M197.385,297.219c1.239,1.239,9.472.851,13.627-3.3,2.722-2.722,1.9-6.776-.826-9.5s-6.776-3.548-9.5-.826c-4.155,4.155-4.542,12.388-3.3,13.627Z" transform="translate(-196.766 -281.917)" fill="#dd636e"/>
        </g>
        <g id="Group_22271" data-name="Group 22271" transform="translate(0 11.749)">
          <path id="Path_19762" data-name="Path 19762" d="M212.674,340.107A14.941,14.941,0,0,1,207,342.975c-3.858,1.034-7.613.55-10.08-1.029-.323,2.444-.1,4.485.471,5.053,1.239,1.239,9.472.851,13.627-3.3A5.533,5.533,0,0,0,212.674,340.107Z" transform="translate(-196.769 -340.107)" fill="#da4a54"/>
        </g>
      </g>
      <g id="Group_22273" data-name="Group 22273" transform="translate(62.63)">
        <path id="Path_19763" data-name="Path 19763" d="M342.519,373.908h2.336a1.084,1.084,0,1,0,0-2.168h-2.336a1.084,1.084,0,1,0,0,2.168Z" transform="translate(-301.139 -318.012)"/>
        <path id="Path_19764" data-name="Path 19764" d="M342.519,406.233h2.336a1.084,1.084,0,0,0,0-2.168h-2.336a1.084,1.084,0,0,0,0,2.168Z" transform="translate(-301.139 -345.665)"/>
        <path id="Path_19765" data-name="Path 19765" d="M140.486,373.908h2.336a1.084,1.084,0,0,0,0-2.168h-2.336a1.084,1.084,0,1,0,0,2.168Z" transform="translate(-128.306 -318.012)"/>
        <path id="Path_19766" data-name="Path 19766" d="M140.486,406.233h2.336a1.084,1.084,0,1,0,0-2.168h-2.336a1.084,1.084,0,0,0,0,2.168Z" transform="translate(-128.306 -345.665)"/>
        <path id="Path_19767" data-name="Path 19767" d="M146.121,248.442a4.009,4.009,0,0,0,4-4v-26.28a4.009,4.009,0,0,0-4-4h-35.04a4.009,4.009,0,0,0-4,4v26.28a4.009,4.009,0,0,0,4,4Zm-36.876-4v-26.28a1.838,1.838,0,0,1,1.836-1.836h35.04a1.838,1.838,0,0,1,1.836,1.836v26.28a1.838,1.838,0,0,1-1.836,1.836h-35.04A1.838,1.838,0,0,1,109.245,244.438Z" transform="translate(-100.653 -183.202)"/>
        <path id="Path_19768" data-name="Path 19768" d="M117.442,293.955a1.084,1.084,0,0,0-1.084,1.084v5.748a7.685,7.685,0,0,1-7.676,7.676H72.474a7.685,7.685,0,0,1-7.676-7.676V277.694a1.084,1.084,0,1,0-2.168,0v23.093a9.855,9.855,0,0,0,9.844,9.844h36.208a9.855,9.855,0,0,0,9.844-9.844v-5.748a1.084,1.084,0,0,0-1.084-1.084Z" transform="translate(-62.63 -236.631)"/>
        <path id="Path_19769" data-name="Path 19769" d="M114.873,21.581l-.118-.142a2.255,2.255,0,0,0,.747-3.682l-3.4-3.4V11.07a4.01,4.01,0,0,0,2.921-3.853V4a4.009,4.009,0,0,0-4-4H105.29a1.084,1.084,0,1,0,0,2.168h5.728A1.838,1.838,0,0,1,112.855,4V7.216a1.838,1.838,0,0,1-1.837,1.836H70.138A1.838,1.838,0,0,1,68.3,7.216V4a1.838,1.838,0,0,1,1.837-1.836h30.078a1.084,1.084,0,0,0,0-2.168H70.138a4.009,4.009,0,0,0-4,4V7.216a4.01,4.01,0,0,0,2.921,3.853v3.289l-3.4,3.4A2.254,2.254,0,0,0,66.4,21.44l-.118.141A15.7,15.7,0,0,0,62.63,31.644v4.349a1.084,1.084,0,1,0,2.168,0V31.644a13.531,13.531,0,0,1,3.148-8.672l1.463-1.75,1.021-.2L76.938,22.3a1.079,1.079,0,0,0,.416,0l6.508-1.273L90.37,22.3a1.079,1.079,0,0,0,.416,0l6.508-1.273L103.8,22.3a1.085,1.085,0,0,0,.208.02,1.074,1.074,0,0,0,.208-.02l6.508-1.273,1.021.2,1.463,1.75a13.53,13.53,0,0,1,3.148,8.671V53.335a1.084,1.084,0,1,0,2.168,0V31.644a15.7,15.7,0,0,0-3.653-10.062ZM71.222,13.724v-2.5h38.712v2.5Zm39.3,5.13-6.508,1.273L97.5,18.854a1.085,1.085,0,0,0-.208-.02,1.074,1.074,0,0,0-.208.02l-6.508,1.273L84.07,18.854a1.079,1.079,0,0,0-.416,0l-6.508,1.273-6.508-1.273a1.079,1.079,0,0,0-.416,0l-2.959.579c-.035.007-.061.012-.09-.043s-.011-.073.015-.1l3.4-3.4h39.982l3.4,3.4c.026.026.044.044.015.1s-.055.05-.09.043l-2.959-.579a1.082,1.082,0,0,0-.416,0Z" transform="translate(-62.63)"/>
        <path id="Path_19770" data-name="Path 19770" d="M193.877,272.746a18.519,18.519,0,0,0,3-.263,16.107,16.107,0,0,0,8.493-3.977,6.686,6.686,0,0,0,1.938-5.647,7.956,7.956,0,0,0-.251-1.222c1.99-.259,3.35-2.586,3.506-2.866a1.084,1.084,0,0,0,0-1.059c-.154-.275-1.471-2.528-3.406-2.851-.323-1.936-2.576-3.252-2.851-3.406a1.085,1.085,0,0,0-1.058,0c-.279.156-2.607,1.515-2.866,3.506a7.948,7.948,0,0,0-1.223-.251,6.685,6.685,0,0,0-5.647,1.938,16.107,16.107,0,0,0-3.977,8.493c-.4,2.366-.463,5.531.673,6.667.688.688,2.12.936,3.668.936Zm14.446-14.5c-.461.619-1.118,1.252-1.625,1.252a1.438,1.438,0,0,1-.818-.386q-.228-.344-.487-.675a5.981,5.981,0,0,0,1.3-1.442h.005C207.2,256.991,207.862,257.624,208.322,258.243Zm-5.8-2.92c0-.508.633-1.166,1.252-1.626.619.461,1.252,1.118,1.252,1.626a.846.846,0,0,1-.075.324,3.506,3.506,0,0,1-1.076,1.219,10.315,10.315,0,0,0-.965-.723A1.44,1.44,0,0,1,202.525,255.323Zm-10.818,9.987a13.87,13.87,0,0,1,3.338-7.126c2.343-2.343,5.78-1.359,7.965.825h0c2.183,2.184,3.167,5.621.824,7.964a13.87,13.87,0,0,1-7.126,3.338c-2.7.486-4.558.216-4.965-.037-.254-.407-.523-2.269-.037-4.965Z" transform="translate(-170.969 -214.996)"/>
        <path id="Path_19771" data-name="Path 19771" d="M236.78,309.717a1.08,1.08,0,0,0,.766-.318l.826-.826a1.084,1.084,0,1,0-1.533-1.533l-.826.826a1.084,1.084,0,0,0,.766,1.85Z" transform="translate(-210.683 -262.392)"/>
        <path id="Path_19772" data-name="Path 19772" d="M262.5,335.432a1.08,1.08,0,0,0,.766-.318l.826-.826a1.084,1.084,0,0,0-1.533-1.533l-.826.826a1.084,1.084,0,0,0,.766,1.85Z" transform="translate(-232.681 -284.39)"/>
        <path id="Path_19773" data-name="Path 19773" d="M226.7,345.514a1.08,1.08,0,0,0,.766-.318l.826-.826a1.084,1.084,0,0,0-1.533-1.533l-.826.826a1.084,1.084,0,0,0,.766,1.85Z" transform="translate(-202.058 -293.015)"/>
      </g>
    </g>
  </g>
</svg>
