<svg xmlns="http://www.w3.org/2000/svg" xmlns:xlink="http://www.w3.org/1999/xlink" width="448.857" height="399.595" viewBox="0 0 448.857 399.595">
  <defs>
    <linearGradient id="linear-gradient" y1="0.5" x2="1" y2="0.5" gradientUnits="objectBoundingBox">
      <stop offset="0" stop-color="#1f90f2"/>
      <stop offset="1" stop-color="#a3d6ff"/>
    </linearGradient>
  </defs>
  <g id="banner-princiapal" transform="translate(-235.115 -231.862)">
    <path id="Path_20296" data-name="Path 20296" d="M655.854,439.644l.021-.033q1.319-2.088,2.581-4.2l.119-.2q.61-1.024,1.207-2.052l.073-.126q.61-1.055,1.206-2.114h0q.58-1.032,1.145-2.069l.143-.262q.552-1.015,1.092-2.033l.1-.19q.54-1.023,1.066-2.05l.037-.071q.525-1.024,1.034-2.053l.155-.312q.5-1.011.988-2.026l.106-.223q.481-1.006.95-2.014l.058-.124q.473-1.022.933-2.048l.153-.342q.452-1.011.891-2.026l.107-.249q.429-1,.845-1.993l.067-.158q.425-1.022.836-2.047l.146-.364q.405-1.014.8-2.03l.1-.262q.38-.99.748-1.982l.069-.185q.378-1.023.742-2.048l.135-.38q.359-1.015.7-2.032l.093-.275q.332-.983.652-1.966c.023-.07.046-.141.069-.211q.33-1.02.646-2.041l.125-.4q.311-1.01.609-2.022l.087-.3q.281-.962.551-1.924l.073-.258q.281-1.008.547-2.017l.116-.438q.261-1,.511-2c.028-.114.056-.228.084-.343q.228-.925.446-1.85c.025-.108.052-.216.077-.325q.229-.984.445-1.968.055-.251.11-.5.21-.97.409-1.94c.029-.141.056-.282.085-.423q.173-.86.337-1.72c.027-.143.055-.287.082-.43q.177-.943.341-1.887.053-.3.1-.6.158-.925.306-1.849c.029-.184.057-.369.085-.553q.117-.757.227-1.513c.028-.2.058-.392.085-.588q.124-.883.238-1.764c.016-.123.034-.245.05-.368h0a136.467,136.467,0,0,0-.41-38.692h0c-.021-.133-.045-.266-.067-.4q-.092-.567-.19-1.133-.059-.34-.12-.679-.1-.566-.208-1.131c-.03-.159-.059-.319-.09-.478q-.152-.788-.316-1.572-.045-.218-.092-.435-.154-.732-.318-1.46c-.009-.041-.018-.082-.027-.124l-.011-.046q-.221-.976-.459-1.947-.05-.206-.1-.412c-15.026-60.495-78.2-104.1-206.266-79.532-43.885,8.419-79.8,17.429-108.755,29.295v0c-.451.185-.9.372-1.343.558l-.627.261c-.461.193-.918.387-1.375.582l-.881.376q-.649.279-1.292.56l-.886.388q-.674.3-1.343.6l-.742.334c-.258.117-.519.232-.776.349l0,.005q-4.1,1.871-8,3.837l0,0c-.2.1-.4.2-.6.3l-.644.329q-.609.312-1.213.627l-.771.4q-.548.289-1.092.579-.415.222-.827.445-.519.28-1.034.563l-.834.46q-.513.285-1.023.571l-.8.455q-.522.3-1.041.6l-.752.437q-.541.316-1.078.634l-.683.407q-.566.339-1.127.681l-.612.374c-.187.115-.376.228-.562.344v0q-4.234,2.627-8.187,5.422l-.291.207q-.916.651-1.817,1.312l-.269.2q-2.006,1.478-3.937,3.005l-.417.332q-.785.626-1.558,1.259l-.356.291q-.95.784-1.882,1.581l-.008.006q-.911.78-1.8,1.574l-.324.288q-.837.747-1.658,1.505l-.078.071h0q-1.1,1.017-2.172,2.055l-.393.383q-.638.623-1.265,1.253c-.143.143-.286.285-.427.429q-.792.8-1.569,1.615c-.057.06-.113.121-.17.181q-.682.718-1.352,1.447c-.181.2-.36.395-.54.592q-.5.545-.984,1.1-.278.313-.555.628-.552.63-1.094,1.267c-.122.143-.246.285-.368.43q-.7.828-1.383,1.668c-.157.193-.312.387-.467.58q-.479.6-.952,1.2c-.088.111-.178.221-.265.333v0c-.046.058-.089.118-.135.177q-1.541,1.984-3.007,4.036c-.041.057-.083.113-.124.17-.076.107-.15.215-.225.323q-.412.583-.819,1.171-.211.3-.42.611-.391.574-.776,1.154c-.132.2-.265.4-.4.6q-.422.641-.836,1.289c-.1.158-.2.314-.3.473q-.549.866-1.087,1.743l-.032.052h0a152.2,152.2,0,0,0-16.451,38.692h-.005c-.077.273-.151.551-.226.826l-.119.433q-.23.843-.455,1.694-.062.236-.124.473-.219.838-.432,1.684-.063.25-.126.5-.209.84-.413,1.687-.062.257-.124.516-.2.848-.4,1.7l-.119.523q-.195.858-.383,1.724-.057.262-.114.524-.189.876-.372,1.76-.053.254-.105.509-.185.9-.363,1.8l-.1.49q-.18.926-.355,1.86-.043.227-.085.454-.178.96-.349,1.93c-.024.137-.049.274-.073.412q-.174,1-.343,2c-.02.122-.041.243-.061.364q-.172,1.039-.337,2.088c-.016.1-.032.2-.048.3q-.17,1.085-.332,2.182c-.012.079-.024.158-.036.238q-.167,1.137-.327,2.287l-.022.159q-.165,1.191-.322,2.4l-.011.082q-.206,1.586-.4,3.191h0q-.365,3.061-.68,6.205c0,.01-.005.02-.007.03a4.251,4.251,0,0,0-.082.842,206.675,206.675,0,0,1-5.5,29.724q-.258,1.032-.524,2.069l-.055.215q-.18.7-.363,1.4-.152.584-.307,1.169-.4,1.5-.807,3.013l-.121.446q-.45,1.653-.913,3.311c-11.088,39.744-27.208,81.662-17.941,111.168l.053.169q.338,1.063.72,2.1l0,.009q.729,1.982,1.626,3.882l.013.028c6.855,14.47,21.271,25.25,47.616,30.244l1.819,10.378a5.632,5.632,0,0,0,.413,1.344,15.077,15.077,0,0,0,.952,9.484H257.818a3.781,3.781,0,0,0-3.781,3.781,6.762,6.762,0,0,0,6.761,6.762h412.33a3.781,3.781,0,0,0,3.781-3.781V624.7a3.781,3.781,0,0,0-3.781-3.781H648.9c4.178-4.4,9.346-11.563,14.954-23.211a6.678,6.678,0,0,0-3.871-3.97c-3.086-1.238-6.991-2-7.531-1.766a3.388,3.388,0,0,0-.685,1.148l-3.23-3.266,1.464-.925-2.883-3.754-1.159.849c-5.425-12.2-24.922-56.872-24.922-68.729,0-5.563,1.238-20.644,2.111-37.249q1.641-1.836,3.336-3.7l.363-.4q1.089-1.2,2.2-2.409l.391-.424c.449-.49.9-.982,1.36-1.475l.808-.871.746-.8.457-.489a201.527,201.527,0,0,0,14.363-17.191h0l.034-.047q.623-.837,1.237-1.678l.12-.164q.622-.855,1.233-1.714l.167-.237q.556-.784,1.1-1.572l.134-.193q2.1-3.036,4.082-6.13l.038-.058h0q.266-.417.531-.835ZM541.521,607.991c-.411-.125-3.363-.893-8.347,1.078-5.384,2.128-15.7-1.055-17.987-1.48s-3.447,3.08-3.447,3.08,1.5,4.731,11.569,10.246H443.7a15.094,15.094,0,0,0-17.96-20.676l-.8-4.563c47.192-5.607,78.4-13.5,101.717-24.361l.019-.009q.951-.443,1.884-.892l.049-.023q.916-.441,1.816-.889l.081-.04q.886-.441,1.756-.889l.1-.05q.862-.444,1.709-.894l.109-.058q.844-.449,1.674-.9l.074-.04.031-.017q.385-.212.767-.425c1.361,14.2,2.807,27.159,3.543,33.57l-1.048-.453-.529,5.8,3.175,1.44C541.753,607.041,541.636,607.527,541.521,607.991Zm-227.779-5.457c9.523.422,20.105.331,31.849-.322,25.191-1.4,47.333-3.1,66.916-5.15l2.283,13.026a5.641,5.641,0,0,0,.413,1.344,15.077,15.077,0,0,0,.952,9.484H318.642a15.089,15.089,0,0,0-4.9-18.382Zm322.209-9.178-1.389,1.018,3.565,2.056,2.674-1.69c1.707,1.3,4.2,3.273,4.5,3.977h0a23.733,23.733,0,0,1-3.383-.585s-1.639,2.746-.61,8.443c.76,4.206-1.847,10.476-3.613,14.341H549.88a11.432,11.432,0,0,0-.192-3.792,1.4,1.4,0,0,0-.6-.269l2.176-6.05,2.923,1.325,3.041-5.042-3-1.3c.9-8.345,3.991-35.665,8.239-57.882q.385-.339.767-.681l.177-.158q.463-.415.924-.833l.072-.065q.444-.4.886-.812l.119-.11q.475-.438.946-.88l.045-.043q.474-.444.946-.893l.036-.034q.491-.467.979-.938l.011-.01c4.238-4.089,8.341-8.417,12.456-13l.178-.2q.877-.978,1.756-1.97l.194-.22q2.913-3.3,5.866-6.761c.554,2.148,1.131,4.138,1.731,5.937C598.733,550.783,627.44,583.887,635.951,593.355Z" transform="translate(0 0)" fill="#fff"/>
    <g id="Group_22384" data-name="Group 22384" transform="translate(235.115 231.862)">
      <path id="Path_20297" data-name="Path 20297" d="M474.121,238.838c-139.906,26.84-198.776,59.683-209.708,171.917-7.971,81.829-97.131,201.374,81.18,191.457,219.968-12.235,207.544-47.5,287.221-132.749C724.888,370.952,704.425,194.655,474.121,238.838Z" transform="translate(-235.115 -231.862)" opacity="0.54" fill="url(#linear-gradient)" style="mix-blend-mode: multiply;isolation: isolate"/>
      <path id="Path_20298" data-name="Path 20298" d="M458.389,571.182q-1.678,2.152-3.266,4.382-2.563,3.6-4.9,7.411H843.912q-.6-3.744-1.427-7.411-.5-2.208-1.081-4.384H458.389Z" transform="translate(-396.641 -486.652)" fill="#fff"/>
      <path id="Path_20299" data-name="Path 20299" d="M473.144,571.182q-1.678,2.152-3.266,4.382H857.239q-.5-2.208-1.081-4.384H473.144Z" transform="translate(-411.396 -486.652)" fill="#3c58a3"/>
      <path id="Path_20300" data-name="Path 20300" d="M717.591,1069.31q-1.409,2.2-2.885,4.384-2.537,3.752-5.264,7.409h-391.4q1.039-3.718,2.013-7.409.575-2.2,1.124-4.384Z" transform="translate(-297.381 -860.693)" fill="#fff"/>
      <path id="Path_20301" data-name="Path 20301" d="M723.658,1069.31q-1.409,2.2-2.885,4.384H326.118q.575-2.2,1.123-4.384Z" transform="translate(-303.448 -860.693)" fill="#3c58a3"/>
      <path id="Path_20302" data-name="Path 20302" d="M550.766,1558.1q-3.591,2.261-7.451,4.384a161.724,161.724,0,0,1-15.243,7.331H250.129a45.044,45.044,0,0,1-3.682-7.331q-.848-2.141-1.5-4.384Z" transform="translate(-242.499 -1227.721)" fill="#fff"/>
      <path id="Path_20303" data-name="Path 20303" d="M550.766,1558.1q-3.591,2.261-7.451,4.384H246.448q-.848-2.141-1.5-4.384Z" transform="translate(-242.499 -1227.721)" fill="#3c58a3"/>
      <g id="Group_22374" data-name="Group 22374" transform="translate(294.19 237.601)">
        <rect id="Rectangle_3892" data-name="Rectangle 3892" width="49.646" height="46.389" transform="translate(0 0)" fill="#0086f5"/>
        <rect id="Rectangle_3893" data-name="Rectangle 3893" width="49.646" height="3.234" transform="translate(0 3.638)" fill="#3ba1f5"/>
        <path id="Path_20304" data-name="Path 20304" d="M1463.418,1185.661a37.434,37.434,0,0,1,1.024,8.916c-.252,27.7-12.157,37.472-27.153,37.472h28.437v-46.389Z" transform="translate(-1416.08 -1185.661)" fill="#3ba1f5"/>
      </g>
      <g id="Group_22375" data-name="Group 22375" transform="translate(294.19 283.99)">
        <path id="Path_20305" data-name="Path 20305" d="M1465.726,1371.88v15.674q-.9.987-1.8,1.956c-10.293,11.068-20.783,20.591-33.767,28.76h-14.077V1371.88Z" transform="translate(-1416.078 -1371.88)" fill="#0086f5"/>
        <rect id="Rectangle_3894" data-name="Rectangle 3894" width="49.646" height="3.234" transform="translate(0.001 3.638)" fill="#3ba1f5"/>
        <path id="Path_20306" data-name="Path 20306" d="M1608.417,1371.88v15.674q-.9.987-1.8,1.956a81.272,81.272,0,0,0,.518-8.714c.007-.688-.008-1.37-.04-2.045-.052-1.094-.157-2.172-.3-3.234-.172-1.236-.4-2.451-.68-3.637Z" transform="translate(-1558.77 -1371.88)" fill="#3ba1f5"/>
      </g>
      <g id="Group_22376" data-name="Group 22376" transform="translate(343.837 237.601)">
        <path id="Path_20307" data-name="Path 20307" d="M1663.648,1191.718c.456-.5.914-1,1.375-1.5v-4.554h-49.645v46.389h13.649c9.877-11.716,20.564-24.839,33.886-39.516Z" transform="translate(-1615.378 -1185.66)" fill="#0086f5"/>
        <path id="Path_20308" data-name="Path 20308" d="M1663.648,1202.681c.456-.5.914-1,1.375-1.5v-.917h-49.645v3.236h47.535Z" transform="translate(-1615.378 -1196.623)" fill="#3ba1f5"/>
        <path id="Path_20309" data-name="Path 20309" d="M1807.707,1185.66v4.554c-.461.5-.919,1.006-1.375,1.5q-.086-1.226-.252-2.421c-.172-1.236-.4-2.451-.683-3.637Z" transform="translate(-1758.062 -1185.66)" fill="#3ba1f5"/>
      </g>
      <g id="Group_22377" data-name="Group 22377" transform="translate(343.837 283.99)">
        <path id="Path_20310" data-name="Path 20310" d="M1615.378,1371.88h13.649q-1.555,1.842-3.081,3.637-1.394,1.637-2.773,3.234c-2.618,3.037-5.2,5.971-7.795,8.8Z" transform="translate(-1615.378 -1371.88)" fill="#0086f5"/>
        <path id="Path_20311" data-name="Path 20311" d="M1615.378,1386.48h10.567q-1.394,1.637-2.773,3.234h-7.795Z" transform="translate(-1615.378 -1382.843)" fill="#3ba1f5"/>
      </g>
      <g id="Group_22378" data-name="Group 22378" transform="translate(393.483 237.601)">
        <path id="Path_20312" data-name="Path 20312" d="M1814.668,1185.66h4.215q-1.715,1.835-3.37,3.637c-.284.306-.563.613-.844.917Z" transform="translate(-1814.668 -1185.66)" fill="#0086f5"/>
        <path id="Path_20313" data-name="Path 20313" d="M1814.668,1200.26h.844c-.284.306-.563.613-.844.917Z" transform="translate(-1814.668 -1196.623)" fill="#3ba1f5"/>
      </g>
      <g id="Group_22379" data-name="Group 22379" transform="translate(328.773 213.001)">
        <rect id="Rectangle_3895" data-name="Rectangle 3895" width="15.1" height="7.36" transform="translate(0)" fill="#d8170e"/>
      </g>
      <path id="Path_20314" data-name="Path 20314" d="M421.419,816.453a4.125,4.125,0,0,0-.324-.77c-.067-.122-.14-.242-.217-.354a4.28,4.28,0,0,0-3.56-1.893h.3v-2.274a.511.511,0,0,0-.511-.511h-14.65a4.291,4.291,0,0,0,4.292-4.292V780.927a4.292,4.292,0,0,0-4.292-4.292h.3v-2.274a.511.511,0,0,0-.511-.511h-19.49a.511.511,0,0,0-.511.511v2.274h.3a4.292,4.292,0,0,0-4.292,4.292,4.292,4.292,0,0,0-4.292-4.292h.3v-2.274a.511.511,0,0,0-.511-.511h-19.49a.511.511,0,0,0-.511.511v2.274h.3a4.292,4.292,0,0,0-4.292,4.292,4.294,4.294,0,0,0-4.292-4.292h.3v-2.274a.511.511,0,0,0-.511-.511h-1.3a243.093,243.093,0,0,0-7.07,36.8h3.737a.509.509,0,0,0-.508.511v2.274h.3a4.3,4.3,0,0,0-4.212,3.45,4.251,4.251,0,0,0-.082.842,206.676,206.676,0,0,1-5.5,29.724h1.211a4.274,4.274,0,0,0,2.4-.735,4.343,4.343,0,0,0,1.158-1.158,3.94,3.94,0,0,0,.214-.354,4.2,4.2,0,0,0,.326-.77,4.318,4.318,0,0,0,.192-1.275,4.32,4.32,0,0,0,.194,1.275,4.373,4.373,0,0,0,.324.77c.067.122.139.239.217.354a4.343,4.343,0,0,0,1.158,1.158,4.274,4.274,0,0,0,2.4.735h19.906a4.274,4.274,0,0,0,2.4-.735,4.343,4.343,0,0,0,1.158-1.158c.077-.115.149-.232.217-.354a4.194,4.194,0,0,0,.324-.77,4.321,4.321,0,0,0,.194-1.275,4.319,4.319,0,0,0,.192,1.275,4.373,4.373,0,0,0,.324.77c.067.122.139.239.217.354a4.342,4.342,0,0,0,1.158,1.158c.115.077.232.149.354.217a4.193,4.193,0,0,0,.77.324,4.244,4.244,0,0,0,1.278.194h19.906a4.274,4.274,0,0,0,2.4-.735,4.343,4.343,0,0,0,1.158-1.158c.077-.115.149-.232.217-.354a4.194,4.194,0,0,0,.324-.77,4.32,4.32,0,0,0,.194-1.275,4.319,4.319,0,0,0,.192,1.275,4.382,4.382,0,0,0,.326.77,3.94,3.94,0,0,0,.214.354,4.343,4.343,0,0,0,1.158,1.158c.115.077.234.149.354.217a4.194,4.194,0,0,0,.77.324,4.243,4.243,0,0,0,1.278.194h19.906a4.3,4.3,0,0,0,3.56-1.893c.077-.115.149-.232.217-.354a4.194,4.194,0,0,0,.324-.77,4.241,4.241,0,0,0,.194-1.275V817.728A4.218,4.218,0,0,0,421.419,816.453Zm-75.944-5.8a4.292,4.292,0,0,0,4.292-4.292,4.291,4.291,0,0,0,4.292,4.292Zm23.444,2.785a4.291,4.291,0,0,0-4.292,4.292,4.3,4.3,0,0,0-.194-1.276,4.125,4.125,0,0,0-.324-.77c-.067-.122-.139-.242-.217-.354a4.317,4.317,0,0,0-1.158-1.161,4.272,4.272,0,0,0-2.4-.732h.3v-2.274a.509.509,0,0,0-.508-.511h9a.509.509,0,0,0-.508.511v2.274Zm5.049-2.785a4.291,4.291,0,0,0,4.292-4.292,4.291,4.291,0,0,0,4.292,4.292Zm23.444,2.785a4.291,4.291,0,0,0-4.292,4.292,4.3,4.3,0,0,0-.194-1.276,4.125,4.125,0,0,0-.324-.77c-.067-.122-.139-.242-.217-.354a4.317,4.317,0,0,0-1.158-1.161,4.272,4.272,0,0,0-2.4-.732h.3v-2.274a.511.511,0,0,0-.511-.511h9a.51.51,0,0,0-.511.511v2.274Z" transform="translate(-306.835 -638.835)" fill="#0086f5"/>
      <path id="Path_20315" data-name="Path 20315" d="M952.522,816.453a4.3,4.3,0,0,0-.326-.77,3.6,3.6,0,0,0-.214-.354,4.291,4.291,0,0,0-3.56-1.893h.3v-2.274a.511.511,0,0,0-.511-.511h-14.65a4.293,4.293,0,0,0,4.295-4.292V780.927a4.3,4.3,0,0,0-4.295-4.292h.3v-2.274a.509.509,0,0,0-.508-.511H913.863a.509.509,0,0,0-.508.511v2.274h.3a4.293,4.293,0,0,1-8.587,0h.3v-2.274a.51.51,0,0,0-.511-.511H885.37a.511.511,0,0,0-.511.511v2.274h.3a4.293,4.293,0,0,1-8.587,0h.3v-2.274a.51.51,0,0,0-.511-.511h-19.49a.511.511,0,0,0-.511.511v2.274h.3a4.294,4.294,0,0,0-4.292,4.292,4.292,4.292,0,0,0-4.292-4.292h.3v-2.274a.511.511,0,0,0-.511-.511h-19.49a.511.511,0,0,0-.511.511v2.274h.3a4.294,4.294,0,0,0-4.292,4.292v25.432a4.292,4.292,0,0,0,4.292,4.292H814.749a.511.511,0,0,0-.511.511v2.274h.3a4.291,4.291,0,0,0-4.292,4.292V843.16a4.32,4.32,0,0,0,.192,1.275,4.384,4.384,0,0,0,.326.77,3.954,3.954,0,0,0,.214.354,4.344,4.344,0,0,0,1.158,1.158,4.274,4.274,0,0,0,2.4.735h19.909a4.265,4.265,0,0,0,2.4-.735,4.352,4.352,0,0,0,1.161-1.158c.077-.115.147-.232.214-.354a4.194,4.194,0,0,0,.324-.77,4.239,4.239,0,0,0,.194-1.275,4.32,4.32,0,0,0,.192,1.275,4.38,4.38,0,0,0,.326.77,3.954,3.954,0,0,0,.214.354,4.318,4.318,0,0,0,1.161,1.158c.112.077.232.149.354.217a4.124,4.124,0,0,0,.77.324,4.228,4.228,0,0,0,1.276.194h19.909a4.265,4.265,0,0,0,2.4-.735,4.316,4.316,0,0,0,1.161-1.158c.077-.115.147-.232.214-.354a4.19,4.19,0,0,0,.324-.77,4.239,4.239,0,0,0,.194-1.275,4.318,4.318,0,0,0,.192,1.275,4.38,4.38,0,0,0,.326.77,3.926,3.926,0,0,0,.214.354,4.316,4.316,0,0,0,1.161,1.158c.112.077.232.149.354.217a4.123,4.123,0,0,0,.77.324,4.239,4.239,0,0,0,1.275.194h19.909a4.265,4.265,0,0,0,2.4-.735A4.315,4.315,0,0,0,895,845.559a3.94,3.94,0,0,0,.214-.354,4.384,4.384,0,0,0,.326-.77.652.652,0,1,1,.384,0,4.384,4.384,0,0,0,.326.77,3.941,3.941,0,0,0,.214.354,4.314,4.314,0,0,0,1.161,1.158,4.265,4.265,0,0,0,2.4.735h19.909a4.266,4.266,0,0,0,2.4-.735,4.317,4.317,0,0,0,1.161-1.158,3.954,3.954,0,0,0,.214-.354,4.389,4.389,0,0,0,.326-.77,4.32,4.32,0,0,0,.192-1.275,4.241,4.241,0,0,0,.194,1.275,4.2,4.2,0,0,0,.324.77c.067.122.137.239.214.354a4.316,4.316,0,0,0,1.161,1.158,4.265,4.265,0,0,0,2.4.735h19.909a4.265,4.265,0,0,0,2.4-.735,4.316,4.316,0,0,0,1.161-1.158,3.94,3.94,0,0,0,.214-.354,4.38,4.38,0,0,0,.326-.77,4.32,4.32,0,0,0,.192-1.275V817.728A4.3,4.3,0,0,0,952.522,816.453Zm-109.489-3.017a4.291,4.291,0,0,0-4.292,4.292,4.216,4.216,0,0,0-.194-1.276,4.125,4.125,0,0,0-.324-.77c-.067-.122-.137-.242-.214-.354a4.326,4.326,0,0,0-1.161-1.161,4.264,4.264,0,0,0-2.4-.732h.3v-2.274a.511.511,0,0,0-.511-.511h9a.511.511,0,0,0-.511.511v2.274Zm5.049-2.785a4.291,4.291,0,0,0,4.292-4.292,4.266,4.266,0,0,0,.735,2.4,4.315,4.315,0,0,0,1.158,1.161,3.927,3.927,0,0,0,.354.214,4.38,4.38,0,0,0,.77.326,4.318,4.318,0,0,0,1.275.192Zm23.444,2.785a4.291,4.291,0,0,0-4.292,4.292,4.216,4.216,0,0,0-.194-1.276,4.121,4.121,0,0,0-.324-.77c-.067-.122-.137-.242-.214-.354a4.291,4.291,0,0,0-3.56-1.893h.3v-2.274a.511.511,0,0,0-.511-.511h9a.511.511,0,0,0-.511.511v2.274Zm5.049-2.785a3.041,3.041,0,1,1,5.027-1.893,4.315,4.315,0,0,0,1.158,1.161,3.9,3.9,0,0,0,.354.214,4.375,4.375,0,0,0,.77.326,4.322,4.322,0,0,0,1.278.192Zm23.444,2.785a3.359,3.359,0,1,1-4.484,3.017,4.308,4.308,0,0,0-.326-.77,3.6,3.6,0,0,0-.214-.354,4.291,4.291,0,0,0-3.56-1.893h.3v-2.274a.511.511,0,0,0-.511-.511h9a.511.511,0,0,0-.511.511v2.274Zm5.049-2.785a4.293,4.293,0,0,1,8.587,0Zm23.444,2.785a3.359,3.359,0,1,1-4.484,3.017,4.313,4.313,0,0,0-.326-.77,3.615,3.615,0,0,0-.214-.354,4.291,4.291,0,0,0-3.56-1.893h.3v-2.274a.511.511,0,0,0-.511-.511h9a.511.511,0,0,0-.511.511v2.274Z" transform="translate(-666.977 -638.835)" fill="#0086f5"/>
      <path id="Path_20316" data-name="Path 20316" d="M1498.933,816.453a4.14,4.14,0,0,0-.541-1.123,4.28,4.28,0,0,0-3.557-1.893h.3v-2.274a.511.511,0,0,0-.511-.511h-14.65a4.291,4.291,0,0,0,4.292-4.292V780.927a4.292,4.292,0,0,0-4.292-4.292h.3v-2.274a.511.511,0,0,0-.511-.511h-19.49a.511.511,0,0,0-.511.511v2.274h.3a4.292,4.292,0,1,1-8.584,0h.3v-2.274a.511.511,0,0,0-.511-.511h-19.49a.511.511,0,0,0-.511.511v2.274h.3a4.294,4.294,0,0,0-4.292,4.292v25.432a4.292,4.292,0,0,0,4.292,4.292h-13.427a.509.509,0,0,0-.508.511v2.274h.3a4.291,4.291,0,0,0-4.292,4.292V843.16a4.32,4.32,0,0,0,.192,1.275,4.389,4.389,0,0,0,.326.77,3.939,3.939,0,0,0,.214.354,4.345,4.345,0,0,0,1.158,1.158,4.274,4.274,0,0,0,2.4.735h19.909a4.271,4.271,0,0,0,2.4-.735,4.343,4.343,0,0,0,1.158-1.158c.077-.115.149-.232.217-.354a4.194,4.194,0,0,0,.324-.77,4.239,4.239,0,0,0,.194-1.275,4.32,4.32,0,0,0,.192,1.275,4.4,4.4,0,0,0,.326.77,3.94,3.94,0,0,0,.214.354,4.344,4.344,0,0,0,1.158,1.158c.115.077.234.149.354.217a4.194,4.194,0,0,0,.77.324,4.244,4.244,0,0,0,1.278.194h19.909a4.3,4.3,0,0,0,3.557-1.893c.077-.115.149-.232.217-.354a4.2,4.2,0,0,0,.324-.77,4.243,4.243,0,0,0,.194-1.275,4.316,4.316,0,0,0,.192,1.275,4.37,4.37,0,0,0,.326.77,3.939,3.939,0,0,0,.214.354,4.345,4.345,0,0,0,1.158,1.158,4.274,4.274,0,0,0,2.4.735h19.909a4.3,4.3,0,0,0,3.557-1.893c.077-.115.15-.232.217-.354a4.186,4.186,0,0,0,.324-.77,4.243,4.243,0,0,0,.194-1.275V817.728A4.22,4.22,0,0,0,1498.933,816.453Zm-52.5-3.017a4.291,4.291,0,0,0-4.292,4.292,4.216,4.216,0,0,0-.194-1.276,4.125,4.125,0,0,0-.324-.77c-.067-.122-.14-.242-.217-.354a4.317,4.317,0,0,0-1.158-1.161,4.27,4.27,0,0,0-2.4-.732h.3v-2.274a.511.511,0,0,0-.511-.511h9a.51.51,0,0,0-.511.511v2.274Zm5.049-2.785a3.041,3.041,0,1,1,5.025-1.893,4.326,4.326,0,0,0,1.161,1.161,3.919,3.919,0,0,0,.354.214,4.378,4.378,0,0,0,.77.326,4.32,4.32,0,0,0,1.276.192Zm23.444,2.785a4.291,4.291,0,0,0-4.292,4.292,4.22,4.22,0,0,0-.194-1.276,4.125,4.125,0,0,0-.324-.77c-.067-.122-.14-.242-.217-.354a4.28,4.28,0,0,0-3.557-1.893h.3v-2.274a.511.511,0,0,0-.511-.511h9a.511.511,0,0,0-.511.511v2.274Z" transform="translate(-1120.063 -638.835)" fill="#0086f5"/>
      <path id="Path_20317" data-name="Path 20317" d="M1849.3,773.85a.511.511,0,0,0-.511.511v2.274h.3a4.293,4.293,0,0,1-8.587,0h.3v-2.274a.51.51,0,0,0-.511-.511H1820.8a.511.511,0,0,0-.511.511v2.274h.3a4.294,4.294,0,0,0-4.292,4.292v25.432a4.292,4.292,0,0,0,4.292,4.292h-13.425a.511.511,0,0,0-.511.511v2.274h.3a4.291,4.291,0,0,0-4.292,4.292V843.16a4.32,4.32,0,0,0,.192,1.275,4.371,4.371,0,0,0,.326.77,3.939,3.939,0,0,0,.214.354,4.317,4.317,0,0,0,1.161,1.158,4.266,4.266,0,0,0,2.4.735h19.909a4.266,4.266,0,0,0,2.4-.735,4.319,4.319,0,0,0,1.161-1.158c.077-.115.147-.232.214-.354a4.194,4.194,0,0,0,.324-.77,4.239,4.239,0,0,0,.194-1.275,4.32,4.32,0,0,0,.192,1.275,4.389,4.389,0,0,0,.326.77,3.939,3.939,0,0,0,.214.354,4.3,4.3,0,0,0,1.021,1.059c14.546-23.008,23.815-48.158,26.941-72.768Zm-13.843,39.586a4.291,4.291,0,0,0-4.292,4.292,4.216,4.216,0,0,0-.194-1.276,4.125,4.125,0,0,0-.324-.77c-.067-.122-.137-.242-.214-.354a4.291,4.291,0,0,0-3.56-1.893h.3v-2.274a.511.511,0,0,0-.511-.511h9a.511.511,0,0,0-.511.511v2.274Zm5.049-2.785a3.041,3.041,0,1,1,5.027-1.893,4.279,4.279,0,0,0,1.158,1.161,3.917,3.917,0,0,0,.354.214,4.38,4.38,0,0,0,.77.326,4.323,4.323,0,0,0,1.278.192Z" transform="translate(-1412.175 -638.835)" fill="#0086f5"/>
      <g id="Group_22380" data-name="Group 22380" transform="translate(207.687 55.044)">
        <path id="Path_20318" data-name="Path 20318" d="M1098.758,452.826h-29.569a.359.359,0,0,0-.359.359v1.721h0a.354.354,0,0,0,.028.139.358.358,0,0,0,.331.219h1.319l3.743,12.3H1093.7l3.743-12.3h1.319a.358.358,0,0,0,.358-.358h0v-1.721h0A.359.359,0,0,0,1098.758,452.826Z" transform="translate(-1068.83 -452.826)" fill="#0086f5" style="mix-blend-mode: multiply;isolation: isolate"/>
        <path id="Path_20319" data-name="Path 20319" d="M1098.758,512h-29.569a.359.359,0,0,0-.359.358v1.721h0a.355.355,0,0,0,.028.14.363.363,0,0,0,.077.114.356.356,0,0,0,.254.105h1.319l3.743,12.3H1093.7l3.743-12.3h1.319a.358.358,0,0,0,.2-.061.35.35,0,0,0,.053-.044.356.356,0,0,0,.105-.253h0v-1.721h0A.358.358,0,0,0,1098.758,512Z" transform="translate(-1068.83 -497.261)" fill="#0086f5" style="mix-blend-mode: multiply;isolation: isolate"/>
      </g>
      <g id="Group_22381" data-name="Group 22381" transform="translate(237.973 55.044)">
        <path id="Path_20320" data-name="Path 20320" d="M1220.335,452.826h-29.569a.359.359,0,0,0-.359.359v1.721h0a.358.358,0,0,0,.359.358h1.319l3.743,12.3h19.445l3.743-12.3h1.319a.358.358,0,0,0,.359-.358h0v-1.721h0A.359.359,0,0,0,1220.335,452.826Z" transform="translate(-1190.407 -452.826)" fill="#0086f5" style="mix-blend-mode: multiply;isolation: isolate"/>
        <path id="Path_20321" data-name="Path 20321" d="M1220.335,512h-29.569a.359.359,0,0,0-.359.358v1.721h0a.358.358,0,0,0,.359.359h1.319l3.743,12.3h19.445l3.743-12.3h1.319a.358.358,0,0,0,.2-.061.378.378,0,0,0,.053-.044.357.357,0,0,0,.1-.253h0v-1.721h0A.358.358,0,0,0,1220.335,512Z" transform="translate(-1190.407 -497.261)" fill="#0086f5" style="mix-blend-mode: multiply;isolation: isolate"/>
      </g>
      <g id="Group_22382" data-name="Group 22382" transform="translate(61.748 32.186)">
        <path id="Path_20322" data-name="Path 20322" d="M482.988,526.983a126.307,126.307,0,0,1,13.427-14.663q.127,1.569.222,3.141c.007.112.012.232.015.356,0,.052,0,.1,0,.157,0,.072,0,.145,0,.219v.219c0,.055,0,.107,0,.162,0,.092,0,.182-.005.274v0c0,.135-.01.272-.015.414-.037.837-.112,1.779-.207,2.735-.005.037-.01.077-.012.117q-.052.523-.112,1.046c-.112,1-.237,1.973-.354,2.832,0,.017-.007.032-.01.05a3.41,3.41,0,0,1-.541,1.4,3.429,3.429,0,0,1-1.094,1.044,3.394,3.394,0,0,1-.551.267,3.493,3.493,0,0,1-.6.169,3.725,3.725,0,0,1-.473.055l-.162,0h-9.533Z" transform="translate(-482.988 -474.641)" fill="#0086f5"/>
        <path id="Path_20323" data-name="Path 20323" d="M578.707,438.559v.222c0,.052,0,.1,0,.159s0,.125,0,.189c0,.027,0,.057-.005.085v0c-.017.625-.06,1.32-.12,2.045-.142,1.709-.371,3.585-.578,5.1,0,.017-.008.032-.01.05a3.411,3.411,0,0,1-.541,1.4,3.426,3.426,0,0,1-1.094,1.044,3.4,3.4,0,0,1-.551.267,3.491,3.491,0,0,1-.6.169,3.719,3.719,0,0,1-.473.055l-.162,0H562.425l-.162,0a3.719,3.719,0,0,1-.473-.055,3.53,3.53,0,0,1-1.148-.436,3.674,3.674,0,0,1-.493-.359c-.075-.067-.149-.137-.219-.209a3.507,3.507,0,0,1-.381-.476,2.811,2.811,0,0,1-.159-.262,3.43,3.43,0,0,1-.334-.874c-.025-.1-.042-.209-.057-.316-.047-.336-.095-.69-.139-1.056-.12-.917-.237-1.908-.334-2.885-.02-.194-.037-.389-.055-.583-.035-.386-.067-.767-.095-1.136-.037-.523-.062-1.024-.077-1.485v0c0-.092,0-.182,0-.272,0-.055,0-.11,0-.164,0-.037,0-.075,0-.112,0,.037,0,.077,0,.115s0,.1,0,.159,0,.125,0,.189c0,.027,0,.057,0,.085v0c-.017.625-.06,1.32-.12,2.045-.142,1.709-.374,3.585-.578,5.1,0,.017-.007.032-.01.05a3.445,3.445,0,0,1-.541,1.4,3.52,3.52,0,0,1-.384.476,3.418,3.418,0,0,1-.712.568,3.31,3.31,0,0,1-.551.267,3.431,3.431,0,0,1-.6.169,3.669,3.669,0,0,1-.473.055l-.159,0H542l-.162,0a3.628,3.628,0,0,1-.471-.055,3.431,3.431,0,0,1-.6-.169,3.337,3.337,0,0,1-.553-.267,3.493,3.493,0,0,1-.491-.359c-.077-.067-.15-.137-.219-.209a3.525,3.525,0,0,1-.384-.476c-.057-.085-.11-.172-.159-.262a3.52,3.52,0,0,1-.331-.874c-.025-.1-.045-.209-.06-.316-.045-.336-.092-.69-.14-1.056-.117-.917-.234-1.908-.331-2.885-.02-.194-.037-.389-.057-.583-.035-.386-.065-.767-.092-1.136-.037-.523-.065-1.024-.077-1.485v0c0-.092,0-.182-.007-.272,0-.055,0-.11,0-.164v-.219c0-.075,0-.147,0-.219,0-.052,0-.1,0-.157,0-.125.007-.244.015-.356,0-.092.012-.182.02-.274q.1-1.681.244-3.358a142.747,142.747,0,0,1,16.486-13.081.27.27,0,0,0,0,.045v1.52a4.984,4.984,0,0,0,.987,2.979,11.6,11.6,0,0,1,1.786,3.493,10.678,10.678,0,0,1,.371,1.7,10.023,10.023,0,0,1,.087,1.315v.458q.243,2.6.4,5.2c.008.112.01.232.015.356a.205.205,0,0,0,0,.04v.117c0,.072,0,.144,0,.219,0-.075,0-.147,0-.219,0-.052,0-.1,0-.157,0-.125.01-.244.015-.356.007-.092.015-.182.02-.274.1-1.644.229-3.286.384-4.927.03-.324.07-.645.117-.964a16.65,16.65,0,0,1,2.337-6.31,5.186,5.186,0,0,0,.538-1.171,4.933,4.933,0,0,0,.237-1.5v-1.52a4.972,4.972,0,0,0-.1-1,5.06,5.06,0,0,0-.3-.962l-.4-.947a10.014,10.014,0,0,1-.4-1.111q6.958-4.316,14.693-8.211l.6,1.582a10.384,10.384,0,0,1,.665,3.393c.005.164.005.329,0,.493-.008.329-.03.658-.07.984a10.389,10.389,0,0,1-.762,2.87l-.406.947a5.009,5.009,0,0,0-.4,1.961v1.52a5.03,5.03,0,0,0,.986,2.979,11.543,11.543,0,0,1,1.786,3.493,10.411,10.411,0,0,1,.371,1.7,10.023,10.023,0,0,1,.087,1.315v.458q.243,2.6.4,5.2c.008.112.012.232.015.356,0,.015,0,.027,0,.04v.117C578.707,438.412,578.707,438.484,578.707,438.559Z" transform="translate(-524.197 -397.007)" fill="#0086f5"/>
        <path id="Path_20324" data-name="Path 20324" d="M742.657,402.622v.222c0,.052,0,.1,0,.159s0,.125,0,.189c0,.027,0,.057,0,.085v0c-.017.625-.06,1.32-.12,2.045-.142,1.709-.371,3.585-.578,5.1-.015.107-.035.212-.057.316a3.449,3.449,0,0,1-1.1,1.821,3.491,3.491,0,0,1-.491.359,3.408,3.408,0,0,1-.551.267,3.49,3.49,0,0,1-.6.169,3.712,3.712,0,0,1-.473.055l-.162,0H726.375l-.162,0a3.716,3.716,0,0,1-.473-.055,3.53,3.53,0,0,1-1.148-.436,3.667,3.667,0,0,1-.493-.359c-.075-.067-.149-.137-.219-.209a3.724,3.724,0,0,1-.384-.476c-.055-.085-.11-.172-.157-.262a3.432,3.432,0,0,1-.334-.874c-.025-.1-.042-.209-.057-.316-.047-.336-.095-.69-.14-1.056-.12-.917-.237-1.908-.334-2.885-.02-.194-.037-.389-.055-.583-.035-.386-.067-.767-.095-1.136-.037-.523-.062-1.024-.077-1.485v0c0-.092,0-.182,0-.272,0-.055,0-.11,0-.164,0-.037,0-.075,0-.112,0,.037,0,.077,0,.115s0,.1,0,.159,0,.125,0,.189c0,.027,0,.057,0,.085v0c-.017.625-.06,1.32-.122,2.045-.14,1.709-.371,3.585-.578,5.1a2.7,2.7,0,0,1-.057.316,3.43,3.43,0,0,1-1.094,1.821,3.667,3.667,0,0,1-.493.359,3.53,3.53,0,0,1-1.148.436,3.613,3.613,0,0,1-.473.055l-.159,0H705.953l-.162,0a3.675,3.675,0,0,1-.471-.055,3.515,3.515,0,0,1-.6-.169,3.4,3.4,0,0,1-.551-.267,3.488,3.488,0,0,1-.491-.359c-.077-.067-.15-.137-.219-.209a3.53,3.53,0,0,1-.384-.476c-.057-.085-.11-.172-.159-.262a3.427,3.427,0,0,1-.331-.874c-.025-.1-.045-.209-.06-.316-.045-.336-.092-.69-.139-1.056-.117-.917-.234-1.908-.331-2.885-.02-.194-.037-.389-.057-.583-.035-.386-.065-.767-.092-1.136-.037-.523-.065-1.024-.077-1.485v0c0-.092,0-.182-.008-.272,0-.055,0-.11,0-.164v-.219c0-.075,0-.147,0-.219,0-.052,0-.1,0-.157,0-.125.007-.244.015-.356.005-.092.012-.182.02-.274q.153-2.466.381-4.927.045-.486.12-.964a16.681,16.681,0,0,1,1.408-4.609,16.334,16.334,0,0,1,.929-1.7,5.182,5.182,0,0,0,.538-1.171,4.932,4.932,0,0,0,.237-1.5v-1.52a4.933,4.933,0,0,0-.2-1.388,4.735,4.735,0,0,0-.2-.573l-.4-.947a10.08,10.08,0,0,1-.488-1.412c-.085-.321-.154-.643-.207-.969a10.077,10.077,0,0,1-.137-1.472,10.324,10.324,0,0,1,.665-3.886l2.045-5.421q4.51-2.055,9.264-4v.212a.392.392,0,0,1,.224.07.406.406,0,0,1,.147.187l3.378,8.956a10.382,10.382,0,0,1,.665,3.393c0,.164.005.329,0,.493a10.393,10.393,0,0,1-.344,2.441,10.073,10.073,0,0,1-.488,1.412l-.4.947a5.009,5.009,0,0,0-.4,1.961v1.52a4.985,4.985,0,0,0,.987,2.979,11.6,11.6,0,0,1,1.786,3.493,10.678,10.678,0,0,1,.371,1.7,10.023,10.023,0,0,1,.085,1.315v.458q.243,2.6.4,5.2c.007.112.01.232.015.356v.04c0,.037,0,.08,0,.117,0,.072,0,.144,0,.219,0-.075,0-.147,0-.219,0-.052,0-.1,0-.157,0-.125.01-.244.015-.356.008-.092.015-.182.02-.274q.153-2.466.384-4.927c.03-.324.07-.645.117-.964a16.652,16.652,0,0,1,2.337-6.31,5.182,5.182,0,0,0,.538-1.171,4.932,4.932,0,0,0,.237-1.5v-1.52a5.021,5.021,0,0,0-.2-1.388,5.2,5.2,0,0,0-.2-.573l-.4-.947a10.759,10.759,0,0,1-.488-1.412c-.085-.321-.152-.643-.207-.969s-.092-.653-.115-.979a10.391,10.391,0,0,1,.643-4.379l3.38-8.956a.394.394,0,0,1,.371-.257v-.745h-.232a.417.417,0,0,1-.416-.419v-2.713a.417.417,0,0,1,.416-.416h8.019a.392.392,0,0,1,.162.032.4.4,0,0,1,.072.037.408.408,0,0,1,.112.115.382.382,0,0,1,.062.149.3.3,0,0,1,.01.082V364.2a.317.317,0,0,1-.01.085.414.414,0,0,1-.174.262.667.667,0,0,1-.072.04.436.436,0,0,1-.162.032h-.229v.745a.392.392,0,0,1,.371.257l3.378,8.956a10.383,10.383,0,0,1,.665,3.393c0,.164,0,.329,0,.493a10.415,10.415,0,0,1-.832,3.854l-.406.947a5.009,5.009,0,0,0-.4,1.961v1.52a5,5,0,0,0,.391,1.938,5.088,5.088,0,0,0,.6,1.041,11.543,11.543,0,0,1,1.786,3.493,10.411,10.411,0,0,1,.371,1.7,10.034,10.034,0,0,1,.087,1.315v.458q.243,2.6.4,5.2c.007.112.012.232.015.356,0,.015,0,.027,0,.04v.117C742.657,402.475,742.657,402.547,742.657,402.622Z" transform="translate(-647.305 -361.069)" fill="#0086f5"/>
        <path id="Path_20325" data-name="Path 20325" d="M906.607,402.84c0-.039,0-.081,0-.12s0-.067,0-.1c0-.074,0-.145,0-.216,0-.054,0-.108,0-.16,0-.124-.008-.244-.015-.356q-.159-2.6-.4-5.2v-.459h0a10.021,10.021,0,0,0-.087-1.315,10.473,10.473,0,0,0-.372-1.7,11.552,11.552,0,0,0-1.786-3.493,4.991,4.991,0,0,1-.985-2.978v-1.52a5.271,5.271,0,0,1,.4-1.96l.4-.947q.1-.231.186-.465.174-.469.3-.949a10.386,10.386,0,0,0,.277-1.457c.02-.17.035-.341.047-.512a10.375,10.375,0,0,0-.644-4.357l-3.379-8.956a.4.4,0,0,0-.371-.257v-.745h.23a.42.42,0,0,0,.162-.033.434.434,0,0,0,.071-.039.418.418,0,0,0,.113-.113.422.422,0,0,0,.063-.149.428.428,0,0,0,.008-.084h0v-2.713h0a.424.424,0,0,0-.008-.084.418.418,0,0,0-.063-.149.423.423,0,0,0-.113-.113.432.432,0,0,0-.071-.038.419.419,0,0,0-.162-.033h-8.019a.417.417,0,0,0-.417.418V364.2a.417.417,0,0,0,.417.417h.23v.745h0a.4.4,0,0,0-.371.257l-2.512,6.659h0l-.867,2.3q-.089.235-.165.473a10.374,10.374,0,0,0-.478,3.906c.013.184.032.368.054.552a10.384,10.384,0,0,0,.755,2.81l.4.947a5.236,5.236,0,0,1,.4,1.96v1.52a4.954,4.954,0,0,1-.236,1.5,5.148,5.148,0,0,1-.539,1.173,16.683,16.683,0,0,0-2.336,6.31q-.073.479-.118.964h0q-.243,2.6-.4,5.2c-.007.113-.011.233-.015.357,0,.051,0,.1,0,.158,0,.071,0,.143,0,.217,0,.031,0,.059,0,.09,0-.031,0-.06,0-.09,0-.074,0-.145,0-.216,0-.054,0-.108,0-.16,0-.124-.008-.244-.015-.356q-.159-2.6-.4-5.2v-.459h0a10.063,10.063,0,0,0-.087-1.315,10.421,10.421,0,0,0-.372-1.7,11.558,11.558,0,0,0-1.786-3.493,4.991,4.991,0,0,1-.985-2.978v-1.52a5.272,5.272,0,0,1,.4-1.96l.4-.947q.1-.231.186-.465.174-.469.3-.949a10.351,10.351,0,0,0,.277-1.457q.03-.256.047-.512a10.374,10.374,0,0,0-.644-4.357l-3.379-8.956a.4.4,0,0,0-.371-.257v-.745h.23a.42.42,0,0,0,.162-.033.431.431,0,0,0,.071-.039.416.416,0,0,0,.176-.262.428.428,0,0,0,.009-.084h0v-2.713h0a.424.424,0,0,0-.009-.084.413.413,0,0,0-.063-.149.422.422,0,0,0-.113-.113.429.429,0,0,0-.071-.038.42.42,0,0,0-.162-.033h-8.019a.417.417,0,0,0-.417.418V364.2a.417.417,0,0,0,.417.417h.23v.745h0a.4.4,0,0,0-.371.257l-2.512,6.659h0l-.866,2.3q-.089.235-.165.473a10.374,10.374,0,0,0-.478,3.906c.013.184.032.368.054.552a10.382,10.382,0,0,0,.755,2.81l.4.947a5.236,5.236,0,0,1,.4,1.96v1.52a4.961,4.961,0,0,1-.236,1.5,5.171,5.171,0,0,1-.539,1.173,16.671,16.671,0,0,0-2.336,6.31q-.073.479-.118.964h0q-.243,2.6-.4,5.2c-.007.113-.012.233-.015.357,0,.051,0,.1,0,.158,0,.071,0,.143,0,.217s0,.145,0,.22c0,.054,0,.109,0,.164,0,.09,0,.18.006.273h0c.013.462.04.961.077,1.484.027.37.058.751.093,1.138q.027.29.056.583c.1.976.214,1.967.332,2.883.047.366.094.721.14,1.057q.022.161.058.316a3.415,3.415,0,0,0,1.284,1.973c.043.033.089.064.134.1a3.484,3.484,0,0,0,1.951.606h12.148a3.457,3.457,0,0,0,3.369-2.674q.036-.155.058-.316c.206-1.514.437-3.389.578-5.1.031-.38.058-.751.079-1.109.025-.43.041-.837.048-1.216,0-.053,0-.106,0-.158s0-.077,0-.113c0,.036,0,.075,0,.112,0,.054,0,.109,0,.164,0,.09,0,.18.006.273h0c.014.462.04.961.078,1.484.026.37.058.751.093,1.138q.026.29.056.583c.1.976.214,1.967.332,2.883.047.366.094.721.14,1.057q.022.161.058.316a3.437,3.437,0,0,0,.492,1.137,3.366,3.366,0,0,0,.792.836c.044.033.088.064.134.1a3.484,3.484,0,0,0,1.951.606h12.148a3.458,3.458,0,0,0,3.369-2.674q.036-.155.058-.316c.206-1.514.437-3.389.578-5.1.031-.38.058-.751.079-1.109.025-.43.041-.837.048-1.216C906.6,402.945,906.606,402.892,906.607,402.84Z" transform="translate(-770.414 -361.067)" fill="#0086f5"/>
      </g>
      <g id="Group_22383" data-name="Group 22383" transform="translate(285.738 15.856)">
        <path id="Path_20326" data-name="Path 20326" d="M1435.726,350.53c0-.071,0-.142,0-.212,0-.051,0-.106,0-.156s0-.088,0-.134c0-.1,0-.19,0-.283,0-.07,0-.142,0-.209,0-.162-.01-.32-.019-.468q-.209-3.416-.527-6.824v-.6h0a13.4,13.4,0,0,0-.445-3.408,14.286,14.286,0,0,0-.756-2.155c-.117-.264-.244-.524-.376-.781q-.279-.543-.6-1.064c-.086-.14-.175-.278-.266-.416s-.2-.29-.3-.433c-.068-.095-.134-.191-.2-.284-.056-.076-.106-.155-.159-.233a6.484,6.484,0,0,1-1.134-3.674V327.2a6.632,6.632,0,0,1,.272-1.861q.025-.085.052-.17c.06-.183.126-.364.2-.541l.531-1.243a13.625,13.625,0,0,0,1-3.766q.075-.643.089-1.29a13.616,13.616,0,0,0-.873-5.1l-4.433-11.75a.521.521,0,0,0-.487-.337v-.978h.3a.551.551,0,0,0,.387-.16.552.552,0,0,0,.117-.174.541.541,0,0,0,.043-.213h0v-3.559h0a.54.54,0,0,0-.011-.11.529.529,0,0,0-.032-.1.547.547,0,0,0-.5-.334h-10.52a.547.547,0,0,0-.548.547v3.559a.548.548,0,0,0,.548.548h.3v.978h0a.521.521,0,0,0-.487.337l-3.3,8.736h0l-1.137,3.013a13.618,13.618,0,0,0-.844,5.745q.045.645.15,1.286a13.629,13.629,0,0,0,.912,3.125l.531,1.243a6.548,6.548,0,0,1,.526,2.572V329.2a6.567,6.567,0,0,1-.581,2.689,6.821,6.821,0,0,1-.436.818,22.056,22.056,0,0,0-2.7,6.41q-.15.616-.264,1.242t-.192,1.258q-.039.316-.069.634h0q-.3,3.229-.5,6.465h0c-.007.12-.017.239-.025.358-.009.148-.015.306-.019.468,0,.067,0,.137,0,.207,0,.093,0,.188,0,.286,0,.041,0,.078,0,.119,0-.041,0-.079,0-.12,0-.1,0-.191,0-.284,0-.07,0-.141,0-.208,0-.163-.011-.32-.02-.468q-.209-3.416-.527-6.824v-.6h0a13.474,13.474,0,0,0-.6-3.957q-.084-.273-.179-.543a14.7,14.7,0,0,0-.792-1.832,15.67,15.67,0,0,0-1.374-2.209,6.548,6.548,0,0,1-1.293-3.907V327.2a6.639,6.639,0,0,1,.272-1.861c.04-.136.083-.27.132-.4q.057-.155.122-.307l.531-1.243q.259-.606.456-1.229a13.607,13.607,0,0,0,.635-3.828h0q.014-.63-.032-1.259a13.61,13.61,0,0,0-.841-3.838l-1.137-3.014h0l-3.3-8.736a.521.521,0,0,0-.487-.337v-.978h.3a.548.548,0,0,0,.5-.335.541.541,0,0,0,.043-.213h0v-3.559h0a.548.548,0,0,0-.16-.387.545.545,0,0,0-.387-.16h-10.52a.547.547,0,0,0-.547.547v3.559a.548.548,0,0,0,.547.548h.3v.978h0a.521.521,0,0,0-.487.337l-4.433,11.75a13.583,13.583,0,0,0-.683,2.519q-.054.32-.094.642a13.624,13.624,0,0,0-.1,1.938q.014.646.089,1.29c.046.395.112.787.193,1.177a13.6,13.6,0,0,0,.81,2.589l.531,1.243a6.546,6.546,0,0,1,.526,2.572V329.2c0,.172-.008.343-.022.514a6.5,6.5,0,0,1-.112.781,6.642,6.642,0,0,1-.324,1.09,6.808,6.808,0,0,1-.56,1.121,21.983,21.983,0,0,0-3.151,8.909q-.039.316-.069.634h0q-.318,3.408-.527,6.824c-.009.148-.015.305-.02.468,0,.068,0,.139,0,.21,0,.093,0,.186,0,.283,0,.046,0,.087,0,.134s0,.105,0,.156c0,.07,0,.141,0,.212,0,.119,0,.237.008.36h0c.074,2.538.463,5.958.826,8.7.031.231.061.458.092.679.019.14.045.279.076.414a4.513,4.513,0,0,0,.345.961q.081.165.174.322a4.773,4.773,0,0,0,.628.832l.014.013a4.528,4.528,0,0,0,3.26,1.38h15.938a4.529,4.529,0,0,0,2.339-.648c.114-.069.226-.143.333-.221a4.528,4.528,0,0,0,1.824-3.053c.056-.413.114-.847.171-1.295.042-.328.084-.665.126-1.006q.07-.569.137-1.153c.013-.115.026-.23.039-.346.048-.426.093-.854.136-1.28.006-.057.011-.113.017-.17.045-.46.088-.917.125-1.366.045-.536.083-1.06.112-1.562.026-.448.045-.878.056-1.285,0-.093,0-.181,0-.272,0-.071,0-.142,0-.212,0-.049,0-.1,0-.148,0,.048,0,.1,0,.148,0,.069,0,.14,0,.211.016.911.076,1.951.167,3.048.041.5.088,1.007.139,1.519.1,1.024.221,2.061.343,3.05.092.742.186,1.457.276,2.119q.029.211.076.414a4.513,4.513,0,0,0,.563,1.356c.047.075.095.149.145.221a4.523,4.523,0,0,0,3.712,1.931h15.938a4.531,4.531,0,0,0,4.5-3.922c.332-2.44.713-5.592.864-8.179.026-.448.045-.878.056-1.285C1435.724,350.708,1435.725,350.62,1435.726,350.53Z" transform="translate(-1382.149 -295.514)" fill="#0086f5"/>
        <path id="Path_20327" data-name="Path 20327" d="M1650.828,350.318c0-.051,0-.106,0-.156s0-.088,0-.134c0-.1,0-.19,0-.283,0-.07,0-.142,0-.209,0-.162-.011-.32-.02-.468q-.208-3.416-.527-6.824v-.6h0a13.4,13.4,0,0,0-.445-3.408,14.327,14.327,0,0,0-.757-2.155,15.537,15.537,0,0,0-1.743-2.978,6.552,6.552,0,0,1-1.293-3.907V327.2a6.639,6.639,0,0,1,.272-1.861c.04-.136.083-.27.132-.4q.057-.155.122-.307l.531-1.243a13.622,13.622,0,0,0,1-3.766q.075-.643.089-1.29a13.614,13.614,0,0,0-.873-5.1l-1.137-3.014h0l-3.3-8.736a.522.522,0,0,0-.488-.337v-.978h.3a.547.547,0,0,0,.547-.548h0v-3.559h0a.558.558,0,0,0-.011-.11.547.547,0,0,0-.536-.437h-10.52a.547.547,0,0,0-.547.547v3.559a.548.548,0,0,0,.547.548h.3v.978h0a.52.52,0,0,0-.487.337l-4.433,11.75a13.582,13.582,0,0,0-.683,2.519q-.055.32-.094.642a13.642,13.642,0,0,0-.1,1.938q.014.646.089,1.29c.046.395.112.787.192,1.177a13.618,13.618,0,0,0,.81,2.589l.531,1.243a6.546,6.546,0,0,1,.526,2.572V329.2a6.563,6.563,0,0,1-.581,2.689,6.82,6.82,0,0,1-.436.818,22.059,22.059,0,0,0-2.7,6.41q-.15.616-.264,1.242t-.192,1.258q-.039.316-.069.634h0q-.3,3.229-.5,6.465h0c-.007.12-.017.239-.025.358-.009.148-.015.306-.019.468,0,.067,0,.137,0,.207,0,.094,0,.188,0,.286,0,.041,0,.078,0,.119,0-.041,0-.079,0-.12,0-.1,0-.191,0-.284,0-.07,0-.141,0-.208,0-.163-.01-.32-.019-.468q-.209-3.416-.527-6.824v-.6h0a13.4,13.4,0,0,0-.445-3.408,14.367,14.367,0,0,0-.757-2.155,15.544,15.544,0,0,0-1.743-2.978,6.548,6.548,0,0,1-1.293-3.907V327.2a6.547,6.547,0,0,1,.4-2.264q.057-.155.122-.307l.531-1.243a13.6,13.6,0,0,0,1-3.766q.075-.643.09-1.29a13.619,13.619,0,0,0-.873-5.1l-4.433-11.75a.521.521,0,0,0-.487-.337v-.978h.3a.547.547,0,0,0,.547-.548h0v-3.559h0a.549.549,0,0,0-.011-.11.52.52,0,0,0-.032-.1.548.548,0,0,0-.5-.334h-10.52a.547.547,0,0,0-.547.547v3.559a.548.548,0,0,0,.547.548h.3v.978h0a.521.521,0,0,0-.487.337l-4.433,11.75a13.6,13.6,0,0,0-.84,3.806q-.047.645-.034,1.293a13.625,13.625,0,0,0,1.091,5.057l.531,1.243a6.546,6.546,0,0,1,.526,2.572V329.2a6.563,6.563,0,0,1-.582,2.689,6.785,6.785,0,0,1-.436.818q-.506.812-.939,1.662a21.888,21.888,0,0,0-1.757,4.747q-.149.616-.264,1.242t-.192,1.258q-.039.316-.069.634h0q-.3,3.229-.5,6.465h0c-.007.12-.017.239-.025.358-.009.148-.015.306-.019.468,0,.067,0,.137,0,.207,0,.093,0,.188,0,.286,0,.045,0,.087,0,.133s0,.105,0,.156c0,.069,0,.14,0,.211.016.911.076,1.951.167,3.048.041.5.088,1.007.139,1.519s.107,1.028.164,1.538c.144,1.277.3,2.527.455,3.631.019.14.045.279.076.414a4.507,4.507,0,0,0,.345.961c.054.11.111.217.173.322a4.556,4.556,0,0,0,.3.446,4.459,4.459,0,0,0,.327.386l.014.013a4.571,4.571,0,0,0,.524.461,4.576,4.576,0,0,0,2.735.919h15.938a4.538,4.538,0,0,0,4.308-3.108,4.594,4.594,0,0,0,.188-.814c.332-2.44.713-5.592.864-8.179.026-.448.045-.878.056-1.285,0-.093,0-.181,0-.272,0-.071,0-.142,0-.212,0-.049,0-.1,0-.148,0,.047,0,.1,0,.147,0,.07,0,.142,0,.214a90.207,90.207,0,0,0,.834,9.056c.031.231.061.458.091.679q.029.211.076.414a4.509,4.509,0,0,0,.563,1.356c.047.075.095.149.145.221a4.522,4.522,0,0,0,3.712,1.931H1645.4a4.536,4.536,0,0,0,4.5-3.922c.056-.413.114-.847.172-1.295.042-.328.084-.665.126-1.006q.07-.569.137-1.153.062-.543.12-1.09c.045-.42.086-.841.125-1.257.118-1.271.205-2.5.237-3.574h0c0-.123.006-.242.008-.361C1650.826,350.459,1650.828,350.388,1650.828,350.318Z" transform="translate(-1543.665 -295.514)" fill="#0086f5"/>
        <path id="Path_20328" data-name="Path 20328" d="M1819.692,325.91l-3.826,10.146a13.419,13.419,0,0,0-.682,2.518c-.037.214-.07.428-.095.643a13.6,13.6,0,0,0,.082,3.869,13.68,13.68,0,0,0,.912,3.126l.531,1.241a6.532,6.532,0,0,1,.526,2.573v1.993a6.551,6.551,0,0,1-.58,2.688,6.983,6.983,0,0,1-.436.82,22.325,22.325,0,0,0-1.363,2.546,21.79,21.79,0,0,0-1.333,3.864c-.1.411-.189.825-.264,1.241s-.14.837-.192,1.258c-.025.209-.05.421-.07.633q-.3,3.228-.5,6.467c-.007.12-.017.239-.025.359-.01.147-.015.3-.02.468,0,.065,0,.137-.005.2,0,.095,0,.189,0,.286v.135c0,.052,0,.1,0,.154,0,.07,0,.139,0,.212.015.912.077,1.951.167,3.049.04.5.087,1.006.14,1.517.1,1.026.219,2.063.344,3.052.09.742.184,1.457.274,2.117.02.142.045.279.077.416a4.5,4.5,0,0,0,.563,1.355c.047.075.095.15.145.222a4.51,4.51,0,0,0,3.624,1.928c.03,0,.057,0,.087,0h15.938c.03,0,.062,0,.092,0a4.52,4.52,0,0,0,4.4-3.921c.247-1.8.518-3.991.7-6.053.11-1.216.192-2.386.219-3.41,0-.092,0-.179,0-.272,0-.07,0-.142,0-.212,0-.05,0-.1,0-.154s0-.09,0-.135c0-.1,0-.189,0-.284,0-.07,0-.139,0-.209-.005-.162-.012-.319-.02-.466q-.209-3.415-.528-6.826v-.6a13.443,13.443,0,0,0-.443-3.408,14.339,14.339,0,0,0-.757-2.155c-.117-.264-.244-.526-.376-.782-.187-.361-.386-.717-.6-1.064-.087-.139-.177-.279-.266-.416s-.194-.289-.3-.431c-.067-.1-.134-.192-.2-.286-.055-.075-.107-.154-.159-.232a6.848,6.848,0,0,1-.8-1.619,6.514,6.514,0,0,1-.331-2.055v-1.993a6.558,6.558,0,0,1,.042-.735,6.631,6.631,0,0,1,.229-1.126l.052-.172c.06-.182.127-.361.2-.541l.531-1.243a13.632,13.632,0,0,0,1-3.764c.05-.428.08-.859.09-1.29a14.121,14.121,0,0,0-.1-2Z" transform="translate(-1705.181 -318.338)" fill="#0086f5"/>
      </g>
      <path id="Path_20329" data-name="Path 20329" d="M336.212,1242.609v-2.161H323.785v2.161h-2.393v76.968h44.225v-76.968Z" transform="translate(-299.9 -989.198)" fill="#0086f5"/>
      <path id="Path_20330" data-name="Path 20330" d="M535.853,1242.609v-2.161H523.426v2.161h-2.393v76.968h44.225v-76.968Z" transform="translate(-449.808 -989.198)" fill="#0086f5"/>
      <path id="Path_20331" data-name="Path 20331" d="M736.27,1242.609v-2.161H723.842v2.161H721.45v76.968h44.225v-76.968Z" transform="translate(-600.299 -989.198)" fill="#0086f5"/>
      <path id="Path_20332" data-name="Path 20332" d="M936.686,1242.609v-2.161H924.258v2.161h-2.393v76.968h44.225v-76.968Z" transform="translate(-750.789 -989.198)" fill="#0086f5"/>
      <path id="Path_20333" data-name="Path 20333" d="M1137.1,1242.609v-2.161h-12.427v2.161h-2.393v76.968h44.225v-76.968Z" transform="translate(-901.28 -989.198)" fill="#0086f5"/>
    </g>
    <path id="Path_20334" data-name="Path 20334" d="M474.121,238.838c-139.906,26.84-198.776,59.683-209.708,171.917-7.971,81.829-97.131,201.374,81.18,191.457,219.968-12.235,207.544-47.5,287.221-132.749C724.888,370.952,704.425,194.655,474.121,238.838Z" transform="translate(0 0)" opacity="0.54" fill="url(#linear-gradient)" style="mix-blend-mode: multiply;isolation: isolate"/>
    <path id="Path_20335" data-name="Path 20335" d="M730.171,1804.175H317.84a6.762,6.762,0,0,1-6.761-6.762h0a3.781,3.781,0,0,1,3.781-3.781H730.171a3.781,3.781,0,0,1,3.781,3.781v2.981A3.781,3.781,0,0,1,730.171,1804.175Z" transform="translate(-57.041 -1172.718)" fill="#c8c7d6"/>
    <g id="Group_22387" data-name="Group 22387" transform="translate(280.065 274.707)">
      <path id="Path_20336" data-name="Path 20336" d="M484.721,1723.349a15.1,15.1,0,1,1-15.1-15.1A15.1,15.1,0,0,1,484.721,1723.349Z" transform="translate(-444.822 -1383.314)" fill="#1f3050"/>
      <path id="Path_20337" data-name="Path 20337" d="M986.755,1723.349a15.1,15.1,0,1,1-15.1-15.1A15.1,15.1,0,0,1,986.755,1723.349Z" transform="translate(-821.794 -1383.314)" fill="#1f3050"/>
      <path id="Path_20338" data-name="Path 20338" d="M453.181,1703.653l-1.223.214a5.624,5.624,0,0,1-6.511-4.569l-2.954-16.855,12.677-.021,2.58,14.719A5.624,5.624,0,0,1,453.181,1703.653Z" transform="translate(-435.783 -1363.918)" fill="#ffab00"/>
      <path id="Path_20339" data-name="Path 20339" d="M955.216,1703.653l-1.223.214a5.624,5.624,0,0,1-6.511-4.569l-2.954-16.855,12.677-.021,2.58,14.719A5.623,5.623,0,0,1,955.216,1703.653Z" transform="translate(-812.756 -1363.918)" fill="#ffab00"/>
      <g id="Group_22385" data-name="Group 22385" transform="translate(0 273.825)">
        <path id="Path_20340" data-name="Path 20340" d="M561.976,1548.73H417.484a1.927,1.927,0,0,1,0-3.854H561.976a12.057,12.057,0,0,0,8.511-20.547,49.284,49.284,0,0,0-30.718-14.248l-39.123-3.26a1.888,1.888,0,1,1,.41-3.749l39.033,3.17a53.134,53.134,0,0,1,33.123,15.362,15.889,15.889,0,0,1-11.235,27.125Z" transform="translate(-415.558 -1503.065)" fill="#ffab00"/>
      </g>
      <g id="Group_22386" data-name="Group 22386" transform="translate(147.859 153.489)">
        <path id="Path_20341" data-name="Path 20341" d="M1011.032,1144.1a1.926,1.926,0,0,1-1.926-1.927V1053.63a32.125,32.125,0,0,1,30.258-32.048l27.426-1.576a1.926,1.926,0,1,1,.221,3.846l-27.425,1.577a28.269,28.269,0,0,0-26.627,28.2v88.545A1.927,1.927,0,0,1,1011.032,1144.1Z" transform="translate(-1009.106 -1020.002)" fill="#ffab00"/>
      </g>
      <path id="Path_20342" data-name="Path 20342" d="M622.725,1191.828l-.352-.4h-130.8a2.634,2.634,0,0,0-2.591,3.106l13.965,76.647a2,2,0,0,0,1.968,1.642H622.373l.352-.4Zm-122.191,44.6h16.723l2.262,14.872H503.243Zm117.986-24.484H605.578v-16.656H618.52ZM605.578,1251.3v-14.872H618.52V1251.3Zm12.942,2.729v14.947H605.578v-14.947Zm-12.942-20.331v-19.026H618.52v19.026Zm-2.729-21.755H580.6v-16.656h22.249Zm0,2.729v19.026H580.6v-19.026Zm0,21.755V1251.3H580.6v-14.872Zm0,17.6v14.947H580.6v-14.947Zm-24.326-42.086H543.146l-1.912-16.656h37.289Zm0,2.729v19.026h-32.88l-2.184-19.026Zm0,21.755V1251.3h-30.86l-1.707-14.872Zm0,17.6v14.947H549.692l-1.715-14.947Zm-40.367-58.742,1.911,16.656H517.094l-2.533-16.656Zm2.225,19.385,2.184,19.026H520.4l-2.893-19.026Zm-23.539,19.026h-16.8l-3.467-19.026h17.378Zm3.976,2.73h22.06l1.707,14.872H523.079Zm24.081,17.6,1.716,14.947H525.767l-2.273-14.947ZM511,1195.283l2.533,16.656h-17.46l-3.034-16.656Zm-7.26,58.742h16.193l2.273,14.947H506.463Z" transform="translate(-470.661 -995.236)" fill="#ffab00"/>
      <path id="Path_20343" data-name="Path 20343" d="M1467.229,1709.471l-4.015,11.162-9.44-5.088a4.88,4.88,0,0,1,1.447-2.276c.969-.666,3.7-14.96,3.7-14.96Z" transform="translate(-1195.144 -1375.847)" fill="#e76a53"/>
      <path id="Path_20344" data-name="Path 20344" d="M1669.74,1111.772l9-6.869s-26.308-58.052-26.308-71.826,7.587-85.88-1.564-95.032-8.953-19.281-8.953-19.281l-33.242,16.527s3.63,77.816,13.272,106.739S1669.74,1111.772,1669.74,1111.772Z" transform="translate(-1311.456 -790.494)" fill="#0a4f59"/>
      <path id="Path_20345" data-name="Path 20345" d="M1650.868,939.326A29.875,29.875,0,0,1,1642,921.548c-.336-.391-.652-.751-.945-1.078l-32.386,16.1s2.585,55.4,9.184,90.082c13.088-21.655,39.093-43.4,37.17-69.732C1654.478,948.252,1653.231,941.69,1650.868,939.326Z" transform="translate(-1311.456 -791.775)" fill="#073b43"/>
      <path id="Path_20346" data-name="Path 20346" d="M1484.115,962.265s-47.61,74.373-50.364,88.835,6.678,93.573,6.678,93.573l13.2,4.354s8.188-80.884,18-90.7,45.161-56.268,49.08-65.076c6.424-14.443-5.007-41.318-5.007-41.318Z" transform="translate(-1179.73 -815.403)" fill="#0d5965"/>
      <path id="Path_20347" data-name="Path 20347" d="M1628.6,951.936l-31.584,10.329s-5.773,9.019-13.414,21.384a19.268,19.268,0,0,0,3.125,1.885c12.493,5.94,36.364-7.647,45.317-17.072a5.473,5.473,0,0,0,1.146-2.58A107.784,107.784,0,0,0,1628.6,951.936Z" transform="translate(-1292.627 -815.403)" fill="#073b43"/>
      <path id="Path_20348" data-name="Path 20348" d="M1453.3,445.59s-8.229,1.043-10.2,4.52-2.549,27.352,2.2,29.553,17.616-5.911,18.427-15.762S1453.3,445.59,1453.3,445.59Z" transform="translate(-1186.036 -435.193)" fill="#ffa283"/>
      <path id="Path_20349" data-name="Path 20349" d="M1444.563,450.11c1.97-3.477,10.2-4.52,10.2-4.52a33.9,33.9,0,0,1,8.343,9.647c-1.159.848-2.072,1.23-2.5.8-1.526-1.527-12.058-.822-17.014-1.821A13.45,13.45,0,0,1,1444.563,450.11Z" transform="translate(-1187.498 -435.193)" fill="#ff7f4c" opacity="0.68" style="mix-blend-mode: multiply;isolation: isolate"/>
      <path id="Path_20350" data-name="Path 20350" d="M1512.75,535.223,1493.975,519.1l-12.053,10.894,10.083,15.3Z" transform="translate(-1216.28 -490.389)" fill="#ffa283"/>
      <path id="Path_20351" data-name="Path 20351" d="M1481.922,529.992l12.053-10.894,2.819,2.421-.579.286a2.774,2.774,0,0,0-1.429,3.3c1.344,4.42,3.325,14.266-4.078,18.22Z" transform="translate(-1216.28 -490.389)" fill="#ff7f4c" opacity="0.68" style="mix-blend-mode: multiply;isolation: isolate"/>
      <path id="Path_20352" data-name="Path 20352" d="M1434.405,439.167c2.492,2.491,10.823-9.547,10.823-13.836s-12.975-3.468-17.611-5.67-7.6-11.206,0-14.452,11.888.348,11.888.348,7.185-2.086,13.56.232,7.07,7.3,7.07,7.3,3.824.116,4.751,7.186-5.283,20.787-5.283,20.787l-9.857-7.575-.187.113a3.821,3.821,0,0,0-1.53,4.812,17.626,17.626,0,0,1,1.716,6.317c0,2.271-2.145,7.149-6.761,10.19a10.257,10.257,0,0,1-15.131-5.036c-1.262-3.333-2.229-6.832-1.445-8.284C1428.1,438.471,1431.914,436.675,1434.405,439.167Z" transform="translate(-1172.008 -403.852)" fill="#03257d"/>
      <path id="Path_20353" data-name="Path 20353" d="M1508.441,482.584s3.708-3.195,6.234-.668,2.133,4.926-.591,6.833-6.787-1.317-6.787-1.317Z" transform="translate(-1235.334 -461.739)" fill="#ffa283"/>
      <path id="Path_20354" data-name="Path 20354" d="M1507.774,578.181s-17.216,30.3-17.216,50.959,8.327,60.436,26.3,68.553c12.493,5.642,36.364-7.265,45.317-16.217S1540.14,565.1,1507.774,578.181Z" transform="translate(-1222.765 -533.925)" fill="#ff5136"/>
      <path id="Path_20355" data-name="Path 20355" d="M1506.282,685.047c7.488-2.313,14.609-7.871,18.176-19.76,9.46-31.529-.021-80.64-.021-80.64l-2.68-4.017-26.57,66.533C1496.9,659.735,1500.553,674.168,1506.282,685.047Z" transform="translate(-1226.24 -536.592)" fill="#d43421"/>
      <path id="Path_20356" data-name="Path 20356" d="M1865.1,1663.027l6.755,6.829-6.212,7a26.335,26.335,0,0,1-2.325-3.5c-.462-1.081-6.11-5.173-6.11-5.173Z" transform="translate(-1498.08 -1349.354)" fill="#e76a53"/>
      <path id="Path_20357" data-name="Path 20357" d="M1872.778,1683.039a6.679,6.679,0,0,0-3.871-3.97c-3.086-1.238-6.991-2-7.531-1.766s-2.29,5.709-4.182,6.518-6.352-.353-6.352-.353-1.639,2.746-.61,8.443-4.12,15.186-4.987,17.346,2.343,3.984,2.343,3.984S1858.827,1712.016,1872.778,1683.039Z" transform="translate(-1488.984 -1360.042)" fill="#09434c"/>
      <path id="Path_20358" data-name="Path 20358" d="M1854.057,1653.894l-11.877,7.506-3.564-2.056,12.559-9.2Z" transform="translate(-1484.117 -1339.678)" fill="#0099a0"/>
      <path id="Path_20359" data-name="Path 20359" d="M1380.138,1761.873a6.678,6.678,0,0,0,3.132-4.576c.607-3.269.585-7.247.252-7.731s-6.047-1.123-7.212-2.818-.9-6.3-.9-6.3-3.015-1.067-8.4,1.062-15.7-1.055-17.987-1.48-3.447,3.08-3.447,3.08S1348.985,1753.891,1380.138,1761.873Z" transform="translate(-1113.898 -1407.149)" fill="#09434c"/>
      <path id="Path_20360" data-name="Path 20360" d="M1469.262,1719.7l-15.488-7.025.529-5.8,18,7.786Z" transform="translate(-1195.144 -1382.273)" fill="#0099a0"/>
      <path id="Path_20361" data-name="Path 20361" d="M1187.289,994.915c-1.158,1.159-14.567,1.215-17.765,1.215s-9.063,5.374-8.265,6.172,8.17-.469,8.17-.469,3.837,2.527.19,3.848,1.248,1.943,3.2,1.943,16.693-3.464,16.693-3.464Z" transform="translate(-975.442 -847.675)" fill="#ffa283"/>
      <path id="Path_20362" data-name="Path 20362" d="M1339.462,578.528s.929,62.655-9.4,80.215-74.73,29.651-74.73,29.651l-6.487-14.566s50.916-15.774,54.36-25.071,10.2-55.119,13.785-63.383C1321.2,575.664,1337.052,565.788,1339.462,578.528Z" transform="translate(-1041.266 -530.474)" fill="#ff5136"/>
    </g>
  </g>
</svg>
