<svg xmlns="http://www.w3.org/2000/svg" width="150" height="150" viewBox="0 0 150 150">
  <g id="ic-px1" transform="translate(23456 8018)">
    <circle id="Ellipse_2975" data-name="Ellipse 2975" cx="75" cy="75" r="75" transform="translate(-23456 -8018)" fill="#fff"/>
    <path id="Path_138561" data-name="Path 138561" d="M87.024,46.4H77.83v-24.9a1.529,1.529,0,0,0-.449-1.082l-6.737-6.737a1.585,1.585,0,0,0-1.083-.45H50.243a1.6,1.6,0,0,0-1.082.45l-6.737,6.737a1.532,1.532,0,0,0-.448,1.082V46.4H32.781a1.532,1.532,0,0,0-1.531,1.531v52.593a1.532,1.532,0,0,0,1.531,1.531H87.024a1.532,1.532,0,0,0,1.531-1.531V47.934A1.532,1.532,0,0,0,87.024,46.4Zm-12.256,0H71.092V18.466l3.675,3.675Zm-22.994,0V23.039H68.03V46.4ZM68.03,19.976H51.774V16.3H68.03ZM45.037,22.142l3.674-3.675V46.4H45.037ZM85.493,49.465v7.87H34.312v-7.87Zm0,49.531H34.312V60.4H85.493Z" transform="translate(-23441.25 -8000.239)" fill="#2a94ee"/>
  </g>
</svg>
