<svg xmlns="http://www.w3.org/2000/svg" width="150" height="150" viewBox="0 0 150 150">
  <g id="ic-px6" transform="translate(23068 7810)">
    <circle id="Ellipse_2978" data-name="Ellipse 2978" cx="75" cy="75" r="75" transform="translate(-23068 -7810)" fill="#fff"/>
    <path id="Path_138566" data-name="Path 138566" d="M79.259,30.18l-4.9-7.046a3.979,3.979,0,0,0,2.327-3.61V17.04A1.338,1.338,0,0,0,75.344,15.7h-36.5a1.338,1.338,0,0,0-1.338,1.338v2.484a3.979,3.979,0,0,0,2.327,3.61l-4.9,7.046a1.492,1.492,0,0,0-.232.742c0,.008,0,.015,0,.022V78.96a1.468,1.468,0,0,0,.2.7L40.6,88.9a1.339,1.339,0,0,0,1.138.634H72.448a1.339,1.339,0,0,0,1.138-.634c6.758-11.1,5.349-8.277,5.908-9.94V30.944A1.515,1.515,0,0,0,79.259,30.18ZM43.875,77.623a9.86,9.86,0,0,0,3.391-5.082l9.759-36.633a7.114,7.114,0,0,1,2.425-3.626H70.321a9.853,9.853,0,0,0-3.4,5.082L57.164,73.991a7.133,7.133,0,0,1-2.418,3.632Zm-6.505,0V32.282H55.818a9.315,9.315,0,0,0-1.377,2.934L44.679,71.854c-.755,2.855-3.54,5.11-7.106,5.769Zm22.379-2.942L69.509,38.05c.754-2.852,3.547-5.107,7.125-5.769h.185V77.623H58.371A9.321,9.321,0,0,0,59.748,74.681Zm-19.567-56.3H74.007v1.147A1.307,1.307,0,0,1,72.7,20.829H41.487a1.307,1.307,0,0,1-1.306-1.306ZM42.836,23.5H71.352l4.248,6.1H38.588ZM71.7,86.86H42.486L38.43,80.3H75.757Z" transform="translate(-23050.516 -7787.619)" fill="#2a94ee"/>
  </g>
</svg>
