<svg xmlns="http://www.w3.org/2000/svg" width="150" height="150" viewBox="0 0 150 150">
  <g id="ic-px5" transform="translate(23272 7810)">
    <circle id="Ellipse_2979" data-name="Ellipse 2979" cx="75" cy="75" r="75" transform="translate(-23272 -7810)" fill="#fff"/>
    <path id="Path_138559" data-name="Path 138559" d="M84.585,50.335v-30a1.751,1.751,0,0,0-1.75-1.75h-6.1a1.751,1.751,0,0,0-1.487.827l-6.18,9.95a1.75,1.75,0,0,0,1.487,2.673h2.316l-7.119,6.824,2.413-4.344a1.75,1.75,0,0,0-1.53-2.6H61.973l7.462-10.571A1.75,1.75,0,0,0,68,18.585H45.165a1.751,1.751,0,0,0-1.75,1.75v30a20.515,20.515,0,0,0,15.5,19.931V96.047L44.171,106.225a1.75,1.75,0,0,0,.994,3.19h37.67a1.75,1.75,0,0,0,.994-3.19L69.085,96.047V70.264A20.532,20.532,0,0,0,84.585,50.335Zm-19,44.91h-3.17v-24.4c.523.041,1.049.071,1.58.071s1.063-.03,1.59-.071Zm-18.67-44.91V22.085H64.627L57.165,32.656a1.75,1.75,0,0,0,1.43,2.759h5.067l-6.6,11.88a1.75,1.75,0,0,0,2.741,2.113l18.63-17.86a1.75,1.75,0,0,0-1.211-3.013H73.7l4.006-6.45h3.377v28.25a17.085,17.085,0,0,1-34.17,0Zm3.865,55.58,10.386-7.17h5.667l10.387,7.17Z" transform="translate(-23261 -7799)" fill="#2a94ee"/>
  </g>
</svg>
