<svg xmlns="http://www.w3.org/2000/svg" width="150" height="150" viewBox="0 0 150 150">
  <g id="ic-px4" transform="translate(23456 7805)">
    <circle id="Ellipse_2980" data-name="Ellipse 2980" cx="75" cy="75" r="75" transform="translate(-23456 -7805)" fill="#fff"/>
    <g id="Group_80495" data-name="Group 80495" transform="translate(-23445.25 -7793.775)">
      <path id="Path_138562" data-name="Path 138562" d="M85.5,17.708a1.75,1.75,0,0,0-1.75-1.75H44.25a1.75,1.75,0,0,0-1.75,1.75v13.5c0,.034.008.064.01.1s0,.059,0,.089l6.823,64.158v14.74a1.75,1.75,0,0,0,1.75,1.75H76.917a1.75,1.75,0,0,0,1.75-1.75V95.552L85.49,31.394c0-.03,0-.06,0-.089s.01-.063.01-.1ZM82,29.458H77.6v-10H82Zm-12.3,0v-10h4.4v10Zm-7.9,0v-10h4.4v10Zm-7.9,0v-10h4.4v10Zm-3.5-10v10H46v-10Zm24.767,89.084H52.833V97.208H75.167Zm.176-14.834H52.657L46.2,32.958H81.8Z" fill="#2a94ee"/>
      <path id="Path_138563" data-name="Path 138563" d="M64,43.417a9.708,9.708,0,1,0,9.708,9.708A9.718,9.718,0,0,0,64,43.417Zm0,15.916a6.208,6.208,0,1,1,6.208-6.208A6.215,6.215,0,0,1,64,59.333Z" fill="#2a94ee"/>
      <path id="Path_138564" data-name="Path 138564" d="M68.937,70.083H59.062a1.75,1.75,0,0,0,0,3.5h9.875a1.75,1.75,0,0,0,0-3.5Z" fill="#2a94ee"/>
      <path id="Path_138565" data-name="Path 138565" d="M68.937,76.458H59.062a1.75,1.75,0,0,0,0,3.5h9.875a1.75,1.75,0,0,0,0-3.5Z" fill="#2a94ee"/>
    </g>
  </g>
</svg>
