<svg xmlns="http://www.w3.org/2000/svg" width="90" height="90" viewBox="0 0 90 90">
  <g id="t1-i3" transform="translate(-231 -1036)">
    <g id="t1-i3-2" data-name="t1-i3" transform="translate(0 -23428)">
      <g id="Group_55890" data-name="Group 55890">
        <g id="Group_55870" data-name="Group 55870" transform="translate(52 20724)">
          <circle id="Ellipse_1805" data-name="Ellipse 1805" cx="45" cy="45" r="45" transform="translate(179 3740)" fill="#97181a"/>
        </g>
      </g>
    </g>
    <g id="Group_56843" data-name="Group 56843" transform="translate(-861.604 1106.237)">
      <path id="Path_32402" data-name="Path 32402" d="M1281.665-21.305a.88.88,0,0,0-.921.836,40.763,40.763,0,0,1-3.323,14.489h-18.772c-4.311-9.723-4.5-22.275-.435-32.543h19.645a43.345,43.345,0,0,1,2.9,13.831.88.88,0,0,0,.918.839.88.88,0,0,0,.839-.918,44.932,44.932,0,0,0-3.239-14.948l-3.4-9.206c-.365-.991-1.219-3.312-3.558-3.312h-8.557c-2.34,0-3.193,2.321-3.558,3.311l-3.4,9.206a45.177,45.177,0,0,0-3.276,18.045,42.3,42.3,0,0,0,4.118,17.7c1.646,3.345,2.834,5.763,7.593,5.774l2.8,0,2.8,0c4.758-.012,5.946-2.429,7.592-5.774a41.983,41.983,0,0,0,4.072-16.407A.88.88,0,0,0,1281.665-21.305Zm-19.815-27.013c.572-1.555,1.107-2.16,1.907-2.16h8.557c.8,0,1.335.606,1.908,2.161l.2.541H1261.65Zm8.8,2.3a2.765,2.765,0,0,1-2.617,1.881,2.769,2.769,0,0,1-2.62-1.881Zm-9.652,0h2.6a4.53,4.53,0,0,0,4.437,3.64,4.527,4.527,0,0,0,4.433-3.64h2.6l2.117,5.734h-18.306ZM1270.834.037l-2.8,0-2.8,0c-3.307-.008-4.182-1.115-5.754-4.258h17.1c-1.572,3.143-2.446,4.25-5.753,4.258Z" transform="translate(-114.91)" fill="#fff"/>
      <path id="Path_32403" data-name="Path 32403" d="M1300.147,121.575a.879.879,0,0,0-.88-.88H1284.98a.88.88,0,1,0,0,1.759h14.288A.879.879,0,0,0,1300.147,121.575Z" transform="translate(-138.997 -136.19)" fill="#fff"/>
      <path id="Path_32404" data-name="Path 32404" d="M1300.783,137.313a.88.88,0,1,0,0,1.759h7.573a.88.88,0,1,0,0-1.759Z" transform="translate(-151.442 -149.277)" fill="#fff"/>
      <path id="Path_32405" data-name="Path 32405" d="M1305.385,38.864c0-2.571-2.611-6.4-4.339-8.935-.221-.325-.423-.621-.595-.879a1.443,1.443,0,0,0-1.154-.77h0a1.447,1.447,0,0,0-1.156.767l0,0c-.175.264-.38.565-.606.9-1.722,2.53-4.324,6.353-4.324,8.918a6.09,6.09,0,0,0,12.177,0Zm-10.419,0c0-2.024,2.615-5.865,4.02-7.928l.309-.454.3.438c1.409,2.067,4.033,5.916,4.033,7.944a4.107,4.107,0,0,1-4.33,4.23A4.062,4.062,0,0,1,1294.966,38.864Z" transform="translate(-146.169 -63.409)" fill="#fff"/>
      <g id="Group_56842" data-name="Group 56842" transform="translate(1107.603 -52.237)">
        <path id="Path_32406" data-name="Path 32406" d="M1135.755-21.305a.88.88,0,0,0-.921.836,40.766,40.766,0,0,1-3.323,14.489h-18.772c-4.311-9.723-4.5-22.275-.435-32.543h19.645a43.342,43.342,0,0,1,2.9,13.831.88.88,0,0,0,.918.839.88.88,0,0,0,.839-.918,44.932,44.932,0,0,0-3.239-14.948l-3.4-9.206c-.365-.991-1.219-3.312-3.558-3.312h-8.557c-2.34,0-3.193,2.321-3.558,3.311l-3.4,9.206a45.182,45.182,0,0,0-3.276,18.045,42.3,42.3,0,0,0,4.118,17.7c1.646,3.345,2.834,5.763,7.594,5.774l2.8,0,2.8,0c4.758-.012,5.947-2.429,7.592-5.774a41.985,41.985,0,0,0,4.072-16.407A.88.88,0,0,0,1135.755-21.305ZM1115.94-48.318c.572-1.555,1.107-2.16,1.907-2.16h8.557c.8,0,1.335.606,1.908,2.161l.2.541H1115.74Zm8.8,2.3a2.765,2.765,0,0,1-2.617,1.881,2.768,2.768,0,0,1-2.62-1.881Zm-9.652,0h2.6a4.529,4.529,0,0,0,4.437,3.64,4.527,4.527,0,0,0,4.433-3.64h2.6l2.117,5.734h-18.306ZM1124.924.037l-2.8,0-2.8,0c-3.307-.008-4.182-1.115-5.754-4.258h17.1c-1.572,3.143-2.447,4.25-5.753,4.258Z" transform="translate(-1107.603 52.237)" fill="#fff"/>
        <path id="Path_32407" data-name="Path 32407" d="M1154.236,121.575a.879.879,0,0,0-.879-.88h-14.288a.88.88,0,1,0,0,1.759h14.288A.879.879,0,0,0,1154.236,121.575Z" transform="translate(-1131.691 -83.953)" fill="#fff"/>
        <path id="Path_32408" data-name="Path 32408" d="M1154.872,137.313a.88.88,0,1,0,0,1.759h7.573a.88.88,0,1,0,0-1.759Z" transform="translate(-1144.136 -97.04)" fill="#fff"/>
        <path id="Path_32409" data-name="Path 32409" d="M1159.474,38.864c0-2.571-2.611-6.4-4.339-8.935-.221-.325-.424-.621-.595-.879a1.443,1.443,0,0,0-1.153-.77h0a1.447,1.447,0,0,0-1.156.767l0,0c-.175.264-.38.565-.606.9-1.722,2.53-4.324,6.353-4.324,8.918a6.09,6.09,0,0,0,12.178,0Zm-10.419,0c0-2.024,2.615-5.865,4.02-7.928l.309-.454.3.438c1.41,2.067,4.033,5.916,4.033,7.944a4.107,4.107,0,0,1-4.33,4.23A4.062,4.062,0,0,1,1149.055,38.864Z" transform="translate(-1138.863 -11.172)" fill="#fff"/>
      </g>
    </g>
  </g>
</svg>
