<svg xmlns="http://www.w3.org/2000/svg" width="200" height="151.369" viewBox="0 0 200 151.369">
  <g id="t1-i28" transform="translate(-179 -14801)">
    <rect id="Rectangle_6842" data-name="Rectangle 6842" width="200" height="90" rx="5" transform="translate(179 14801)" fill="#fffae8"/>
    <g id="Group_80483" data-name="Group 80483" transform="translate(-1432.227 13635.246)">
      <circle id="Ellipse_2966" data-name="Ellipse 2966" cx="45.26" cy="45.26" r="45.26" transform="translate(1684.985 1188.755)" fill="#f0c068"/>
      <path id="Path_138547" data-name="Path 138547" d="M1842.41,1227.972a45.035,45.035,0,0,0-17.541-29.992,45.607,45.607,0,0,0-55.19.144,2.513,2.513,0,0,0,3.06,3.987,40.571,40.571,0,0,1,49.094-.126,40.27,40.27,0,0,1,7.732,56.511,40.413,40.413,0,0,1-69.682-39.5,2.513,2.513,0,0,0-4.658-1.888,45.437,45.437,0,1,0,87.185,10.867Z" transform="translate(-66.941 0)" fill="#a3121d"/>
      <path id="Path_138548" data-name="Path 138548" d="M1778.7,1240.662a2.506,2.506,0,0,0,1.777-.736l.007-.007a2.513,2.513,0,1,0-1.784.743Z" transform="translate(-82.452 -29.973)" fill="#a3121d"/>
      <path id="Path_138549" data-name="Path 138549" d="M1817.032,1247.8l8.295,9.377h6.492l7.213-11.18,7.213,2.164,3.967,8.295-.721,5.049,6.852,10.459v7.573l-14.786,1.082-1.082,9.737h-27.048l-.721-8.655-13.7-1.082.721-10.458,5.77-7.213-.721-7.934,4.688-7.573Z" transform="translate(-97.038 -36.6)" fill="#fff"/>
      <path id="Path_138550" data-name="Path 138550" d="M1794.637,1281.109h11.7v7.132a2.513,2.513,0,0,0,2.513,2.513H1837.3a2.513,2.513,0,0,0,2.513-2.513v-7.132h11.7a2.513,2.513,0,0,0,2.513-2.511l.007-7.721a12.522,12.522,0,0,0-6.427-11.551,11.542,11.542,0,0,0-10.311-16.79,11.571,11.571,0,0,1-14.218,9.645,11.571,11.571,0,0,1-14.225-9.645,11.542,11.542,0,0,0-10.311,16.791,12.521,12.521,0,0,0-6.419,11.551v7.719a2.513,2.513,0,0,0,2.513,2.513Zm40.148,4.619h-23.417v-5.206a11.5,11.5,0,0,1,.111-1.64c0-.009,0-.017,0-.026.44-3,2.122-4.687,4.558-5.961a11.555,11.555,0,0,0,14.078,0c2.433,1.275,4.113,2.959,4.552,5.96,0,.009,0,.017,0,.026a11.547,11.547,0,0,1,.11,1.639Zm14.221-9.645h-9.819a12.415,12.415,0,0,0-5.8-7.11,11.433,11.433,0,0,0,1.152-3.659,11.592,11.592,0,0,0,9.795-2.062c2.853,1.492,4.672,3.546,4.672,7.624Zm-18.255-21.994a6.553,6.553,0,1,1,3.163,5.583,11.6,11.6,0,0,0-3.068-4.5A6.459,6.459,0,0,1,1830.751,1254.09Zm-1.123,9.645a6.548,6.548,0,1,1-6.548-6.528A6.545,6.545,0,0,1,1829.628,1263.735Zm-20.773-16.172a6.545,6.545,0,0,1,6.548,6.528,6.464,6.464,0,0,1-.1,1.093,11.6,11.6,0,0,0-3.057,4.484,6.533,6.533,0,1,1-3.394-12.1Zm-11.7,23.315a7.732,7.732,0,0,1,4.666-7.626,7.087,7.087,0,0,1,10.953,5.719,12.411,12.411,0,0,0-5.8,7.112h-9.816Z" transform="translate(-92.642 -34.385)" fill="#a3121d"/>
      <path id="Path_138551" data-name="Path 138551" d="M1669.426,1473.294H1655V1443h14.426v30.294Z" transform="translate(-4.97 -162.554)" fill="#ee8d3f"/>
      <path id="Path_138552" data-name="Path 138552" d="M1742.965,1457.564s3.967-9.377-13.7-14.065-34.261,3.812-34.261,3.812v21.4l36.064,8.332,18.032-4.328,25.966-12.262s.361-11.54-7.573-9.737S1742.965,1457.564,1742.965,1457.564Z" transform="translate(-30.545 -161.972)" fill="#fff"/>
      <path id="Path_138553" data-name="Path 138553" d="M1736.671,1442.482l-20.836,5.433a8.839,8.839,0,0,0-.367-2.031,8.706,8.706,0,0,0-4.263-5.185l-7.722-4.115a39.393,39.393,0,0,0-18.232-4.383h-.189a41.488,41.488,0,0,0-18.617,4.567,5.784,5.784,0,0,0-5.387-3.692h-8.063a5.775,5.775,0,0,0-5.768,5.768v25.231a5.771,5.771,0,0,0,5.768,5.761h8.063a5.78,5.78,0,0,0,5.665-4.645l31.751,7.26a12.839,12.839,0,0,0,2.9.321,23.581,23.581,0,0,0,8.8-2.122l31-12.723c4.072-1.678,7.473-5.993,5.757-10.679-1.5-4.13-5.528-6-10.262-4.766Zm-74.864,21.593a.753.753,0,0,1-.75.735h-8.063a.749.749,0,0,1-.742-.735v-25.231a.752.752,0,0,1,.742-.742h8.063a.756.756,0,0,1,.749.742v25.231Zm77.457-10.8-31,12.722c-3.933,1.615-6.442,2.065-8.665,1.552l-32.766-7.493v-17.789a35.866,35.866,0,0,1,34.286-1.252l7.724,4.116a3.712,3.712,0,0,1,1.817,2.214,3.674,3.674,0,0,1-.269,2.823,3.753,3.753,0,0,1-5.065,1.539l-12.729-6.717a2.513,2.513,0,0,0-2.345,4.445l12.726,6.715a8.784,8.784,0,0,0,11.225-2.619l23.737-6.189c2.231-.583,3.667-.039,4.271,1.624S1741.153,1452.5,1739.264,1453.279Z" transform="translate(0 -155.65)" fill="#a3121d"/>
    </g>
  </g>
</svg>
