<svg xmlns="http://www.w3.org/2000/svg" width="904" height="407.769" viewBox="0 0 904 407.769">
  <g id="t1-i9" transform="translate(-31 -1018)">
    <rect id="Rectángulo_3370" data-name="Rectángulo 3370" width="904" height="407.769" transform="translate(31 1018)" fill="#fff"/>
    <g id="Group_80418" data-name="Group 80418" transform="translate(53.286 1042.03)">
      <g id="Grupo_18104" data-name="Grupo 18104" transform="translate(281.395 20.316)">
        <g id="Grupo_18101" data-name="Grupo 18101" transform="translate(0.001 300.396)">
          <path id="Trazado_17643" data-name="Trazado 17643" d="M350.449,1385.508a1.659,1.659,0,0,1-1.659-1.659h0v-3.473a1.658,1.658,0,0,1,3.316,0v3.473A1.658,1.658,0,0,1,350.449,1385.508Z" transform="translate(-348.79 -1378.758)" fill="#f0c068"/>
        </g>
        <g id="Grupo_18102" data-name="Grupo 18102" transform="translate(0 16.97)">
          <path id="Trazado_17644" data-name="Trazado 17644" d="M350.449,1355.37a1.659,1.659,0,0,1-1.659-1.659h0v-6.748a1.658,1.658,0,1,1,3.316-.081c0,.028,0,.054,0,.081v6.748A1.659,1.659,0,0,1,350.449,1355.37Zm0-20.244a1.659,1.659,0,0,1-1.659-1.659h0v-6.749a1.658,1.658,0,1,1,3.316-.081c0,.027,0,.054,0,.081v6.749a1.659,1.659,0,0,1-1.657,1.661h0Zm0-20.245a1.659,1.659,0,0,1-1.659-1.659h0v-6.747a1.658,1.658,0,0,1,3.316,0v6.748A1.659,1.659,0,0,1,350.449,1314.88Zm0-20.245a1.659,1.659,0,0,1-1.659-1.659h0v-6.748a1.658,1.658,0,1,1,3.316-.081c0,.027,0,.054,0,.081v6.745a1.658,1.658,0,0,1-1.655,1.662Zm0-20.245a1.658,1.658,0,0,1-1.659-1.659h0v-6.749a1.658,1.658,0,1,1,3.316-.081c0,.027,0,.054,0,.081v6.749A1.659,1.659,0,0,1,350.449,1274.391Zm0-20.244a1.659,1.659,0,0,1-1.659-1.659h0v-6.749a1.658,1.658,0,0,1,3.316-.08c0,.027,0,.053,0,.08v6.749A1.658,1.658,0,0,1,350.449,1254.147Zm0-20.244a1.659,1.659,0,0,1-1.659-1.659h0v-6.748a1.658,1.658,0,1,1,3.316-.081c0,.027,0,.055,0,.081v6.748A1.659,1.659,0,0,1,350.449,1233.9Zm0-20.245A1.659,1.659,0,0,1,348.79,1212h0v-6.749a1.658,1.658,0,0,1,3.316,0V1212A1.658,1.658,0,0,1,350.449,1213.657Zm0-20.244a1.659,1.659,0,0,1-1.659-1.659h0V1185a1.658,1.658,0,1,1,3.316-.081c0,.027,0,.054,0,.081v6.75A1.659,1.659,0,0,1,350.449,1193.413Zm0-20.246a1.659,1.659,0,0,1-1.659-1.659h0v-6.747a1.658,1.658,0,0,1,3.316,0v6.747A1.659,1.659,0,0,1,350.449,1173.167Zm0-20.245a1.659,1.659,0,0,1-1.659-1.659h0v-6.748a1.658,1.658,0,1,1,3.316-.081q0,.04,0,.081v6.751a1.657,1.657,0,0,1-1.657,1.65Zm0-20.245a1.658,1.658,0,0,1-1.659-1.659h0v-6.748a1.658,1.658,0,0,1,3.316,0v6.748a1.659,1.659,0,0,1-1.657,1.658Zm0-20.245a1.659,1.659,0,0,1-1.659-1.659h0v-6.747a1.658,1.658,0,1,1,3.316-.081c0,.027,0,.053,0,.081v6.747a1.658,1.658,0,0,1-1.657,1.658Zm0-20.244a1.659,1.659,0,0,1-1.659-1.659h0v-6.748a1.658,1.658,0,0,1,3.316,0v6.748a1.659,1.659,0,0,1-1.657,1.658Z" transform="translate(-348.789 -1082.163)" fill="#f0c068"/>
        </g>
        <g id="Grupo_18103" data-name="Grupo 18103" transform="translate(0.001)">
          <path id="Trazado_17645" data-name="Trazado 17645" d="M350.449,1071.154a1.659,1.659,0,0,1-1.659-1.659h0v-3.472a1.658,1.658,0,0,1,3.316,0v3.472A1.658,1.658,0,0,1,350.449,1071.154Z" transform="translate(-348.79 -1064.406)" fill="#f0c068"/>
        </g>
      </g>
      <g id="Grupo_18108" data-name="Grupo 18108" transform="translate(454.534 20.314)">
        <g id="Grupo_18105" data-name="Grupo 18105" transform="translate(0 300.396)">
          <path id="Trazado_17646" data-name="Trazado 17646" d="M531.632,1385.507a1.659,1.659,0,0,1-1.659-1.659h0v-3.473a1.659,1.659,0,0,1,3.317,0v3.473a1.658,1.658,0,0,1-1.657,1.659Z" transform="translate(-529.973 -1378.755)" fill="#f0c068"/>
        </g>
        <g id="Grupo_18106" data-name="Grupo 18106" transform="translate(0 16.97)">
          <path id="Trazado_17647" data-name="Trazado 17647" d="M531.632,1355.37a1.658,1.658,0,0,1-1.659-1.659h0v-6.748a1.659,1.659,0,0,1,3.317-.078v6.827a1.659,1.659,0,0,1-1.657,1.659Zm0-20.244a1.659,1.659,0,0,1-1.659-1.659h0v-6.749a1.659,1.659,0,1,1,3.317-.079v6.828a1.659,1.659,0,0,1-1.655,1.661h0Zm0-20.245a1.659,1.659,0,0,1-1.659-1.659h0v-6.747a1.659,1.659,0,0,1,3.317,0v6.748a1.658,1.658,0,0,1-1.658,1.658Zm0-20.245a1.659,1.659,0,0,1-1.659-1.659h0v-6.748a1.659,1.659,0,1,1,3.317-.079v6.825a1.659,1.659,0,0,1-1.656,1.662Zm0-20.245a1.658,1.658,0,0,1-1.659-1.659h0v-6.749a1.659,1.659,0,1,1,3.317-.078v6.827A1.66,1.66,0,0,1,531.632,1274.391Zm0-20.244a1.659,1.659,0,0,1-1.659-1.659h0v-6.749a1.659,1.659,0,0,1,3.317-.078v6.828A1.659,1.659,0,0,1,531.632,1254.146Zm0-20.244a1.659,1.659,0,0,1-1.659-1.659h0v-6.748a1.659,1.659,0,1,1,3.317-.078v6.827a1.659,1.659,0,0,1-1.657,1.659Zm0-20.245a1.658,1.658,0,0,1-1.659-1.659h0v-6.749a1.659,1.659,0,0,1,3.317,0V1212a1.658,1.658,0,0,1-1.657,1.659Zm0-20.243a1.659,1.659,0,0,1-1.659-1.659h0V1185a1.659,1.659,0,0,1,3.317-.079v6.829a1.659,1.659,0,0,1-1.657,1.659Zm0-20.246a1.659,1.659,0,0,1-1.659-1.659h0v-6.747a1.659,1.659,0,0,1,3.317,0v6.747A1.66,1.66,0,0,1,531.632,1173.167Zm0-20.245a1.658,1.658,0,0,1-1.659-1.659h0v-6.748a1.659,1.659,0,1,1,3.317-.079v6.831a1.658,1.658,0,0,1-1.658,1.65Zm0-20.245a1.658,1.658,0,0,1-1.659-1.659h0v-6.748a1.659,1.659,0,0,1,3.317,0v6.748a1.66,1.66,0,0,1-1.658,1.658Zm0-20.245a1.659,1.659,0,0,1-1.659-1.659h0v-6.747a1.659,1.659,0,0,1,3.317-.079v6.826a1.658,1.658,0,0,1-1.658,1.658h0Zm0-20.244a1.659,1.659,0,0,1-1.659-1.659h0v-6.748a1.659,1.659,0,0,1,3.317,0v6.748a1.66,1.66,0,0,1-1.658,1.658Z" transform="translate(-529.973 -1082.162)" fill="#f0c068"/>
        </g>
        <g id="Grupo_18107" data-name="Grupo 18107" transform="translate(0)">
          <path id="Trazado_17648" data-name="Trazado 17648" d="M531.632,1071.154a1.659,1.659,0,0,1-1.659-1.659h0v-3.472a1.659,1.659,0,0,1,3.317,0v3.472A1.658,1.658,0,0,1,531.632,1071.154Z" transform="translate(-529.973 -1064.403)" fill="#f0c068"/>
        </g>
      </g>
      <g id="Grupo_18112" data-name="Grupo 18112" transform="translate(627.673 20.314)">
        <g id="Grupo_18109" data-name="Grupo 18109" transform="translate(0 300.396)">
          <path id="Trazado_17649" data-name="Trazado 17649" d="M712.815,1385.507a1.659,1.659,0,0,1-1.659-1.659h0v-3.473a1.659,1.659,0,0,1,3.317,0v3.473A1.659,1.659,0,0,1,712.815,1385.507Z" transform="translate(-711.156 -1378.755)" fill="#f0c068"/>
        </g>
        <g id="Grupo_18110" data-name="Grupo 18110" transform="translate(0 16.97)">
          <path id="Trazado_17650" data-name="Trazado 17650" d="M712.815,1355.37a1.659,1.659,0,0,1-1.659-1.659h0v-6.748a1.659,1.659,0,0,1,3.317-.078v6.827A1.659,1.659,0,0,1,712.815,1355.37Zm0-20.244a1.659,1.659,0,0,1-1.659-1.659h0v-6.749a1.659,1.659,0,1,1,3.317-.079v6.828a1.66,1.66,0,0,1-1.657,1.661h0Zm0-20.245a1.659,1.659,0,0,1-1.659-1.659h0v-6.747a1.659,1.659,0,1,1,3.317-.078v6.826A1.66,1.66,0,0,1,712.815,1314.88Zm0-20.245a1.659,1.659,0,0,1-1.659-1.659h0v-6.748a1.659,1.659,0,0,1,3.317-.079v6.825a1.658,1.658,0,0,1-1.656,1.662Zm0-20.245a1.658,1.658,0,0,1-1.659-1.659h0v-6.749a1.659,1.659,0,1,1,3.317-.078v6.827A1.66,1.66,0,0,1,712.815,1274.391Zm0-20.244a1.659,1.659,0,0,1-1.659-1.659h0v-6.749a1.659,1.659,0,0,1,3.317-.078v6.828A1.659,1.659,0,0,1,712.815,1254.146Zm0-20.244a1.659,1.659,0,0,1-1.659-1.659h0v-6.748a1.659,1.659,0,1,1,3.317-.078v6.827A1.66,1.66,0,0,1,712.815,1233.9Zm0-20.245a1.659,1.659,0,0,1-1.659-1.659h0v-6.749a1.659,1.659,0,0,1,3.317-.078V1212A1.658,1.658,0,0,1,712.815,1213.657Zm0-20.243a1.659,1.659,0,0,1-1.659-1.659h0V1185a1.659,1.659,0,0,1,3.317-.079v6.829A1.66,1.66,0,0,1,712.815,1193.413Zm0-20.246a1.659,1.659,0,0,1-1.659-1.659h0v-6.747a1.659,1.659,0,0,1,3.317-.078v6.826A1.66,1.66,0,0,1,712.815,1173.167Zm0-20.245a1.659,1.659,0,0,1-1.659-1.659h0v-6.748a1.659,1.659,0,0,1,3.317-.079v6.831a1.658,1.658,0,0,1-1.658,1.65Zm0-20.245a1.658,1.658,0,0,1-1.659-1.659h0v-6.748a1.659,1.659,0,0,1,3.317,0v6.748a1.66,1.66,0,0,1-1.658,1.658Zm0-20.245a1.659,1.659,0,0,1-1.659-1.659h0v-6.747a1.659,1.659,0,0,1,3.317-.079v6.826a1.659,1.659,0,0,1-1.658,1.658Zm0-20.244a1.659,1.659,0,0,1-1.659-1.659h0v-6.748a1.659,1.659,0,0,1,3.317,0v6.748a1.66,1.66,0,0,1-1.658,1.658Z" transform="translate(-711.155 -1082.162)" fill="#f0c068"/>
        </g>
        <g id="Grupo_18111" data-name="Grupo 18111" transform="translate(0)">
          <path id="Trazado_17651" data-name="Trazado 17651" d="M712.815,1071.154a1.659,1.659,0,0,1-1.659-1.659h0v-3.472a1.659,1.659,0,0,1,3.317,0v3.472A1.659,1.659,0,0,1,712.815,1071.154Z" transform="translate(-711.156 -1064.403)" fill="#f0c068"/>
        </g>
      </g>
      <g id="Grupo_18118" data-name="Grupo 18118" transform="translate(113.941 21.935)">
        <g id="Grupo_18113" data-name="Grupo 18113" transform="translate(6.615 11.9)">
          <path id="Trazado_17652" data-name="Trazado 17652" d="M838.19,1372.179H180.478V1078.553h3.32v290.31h654.4Z" transform="translate(-180.478 -1078.553)" fill="#ee8d3f"/>
        </g>
        <g id="Grupo_18115" data-name="Grupo 18115">
          <g id="Grupo_18114" data-name="Grupo 18114">
            <path id="Trazado_17653" data-name="Trazado 17653" d="M173.556,1080.421l8.27-14.321,8.27,14.321Z" transform="translate(-173.556 -1066.1)" fill="#ee8d3f"/>
          </g>
        </g>
        <g id="Grupo_18117" data-name="Grupo 18117" transform="translate(661.908 295.599)">
          <g id="Grupo_18116" data-name="Grupo 18116">
            <path id="Trazado_17654" data-name="Trazado 17654" d="M866.216,1391.973l14.321-8.27-14.321-8.27Z" transform="translate(-866.216 -1375.433)" fill="#ee8d3f"/>
          </g>
        </g>
      </g>
      <g id="Grupo_18119" data-name="Grupo 18119" transform="translate(0 170.785)">
        <path id="Trazado_17655" data-name="Trazado 17655" d="M64.776,1222.072h3.1l-5.189,14.042H59.481l-5.16-14.042H57.41l3.683,10.641Z" transform="translate(-54.321 -1221.875)" fill="#03192e"/>
        <path id="Trazado_17656" data-name="Trazado 17656" d="M78.857,1224.637H73.649v3.188h4.617v2.537H73.651v3.177h5.208v2.575H70.715v-14.042h8.144Z" transform="translate(-55.049 -1221.875)" fill="#03192e"/>
        <path id="Trazado_17657" data-name="Trazado 17657" d="M91.97,1222.072h2.906v14.042H91.5l-6.216-10.04v10.04H82.382v-14.042H85.71l6.259,9.98Z" transform="translate(-55.567 -1221.875)" fill="#03192e"/>
        <path id="Trazado_17658" data-name="Trazado 17658" d="M107.338,1222.072v2.565H104v11.478h-2.885v-11.478H97.765v-2.565Z" transform="translate(-56.25 -1221.875)" fill="#03192e"/>
        <path id="Trazado_17659" data-name="Trazado 17659" d="M118.166,1236.115l-1.021-2.9h-5.9l-1.022,2.9h-2.983l5.17-14.042h3.566l5.171,14.042Zm-6.065-5.335h4.19l-2.091-5.958Z" transform="translate(-56.671 -1221.875)" fill="#03192e"/>
        <path id="Trazado_17660" data-name="Trazado 17660" d="M128.616,1236.3a6.781,6.781,0,0,1-3.9-1.073,4.307,4.307,0,0,1-1.895-3.011l3.011-.69a2.556,2.556,0,0,0,.929,1.774,3.072,3.072,0,0,0,1.967.617,2.538,2.538,0,0,0,1.536-.433,1.463,1.463,0,0,0,.583-1.278,1.361,1.361,0,0,0-.5-1.041,3.274,3.274,0,0,0-.984-.636q-.493-.188-1.581-.519c-.1-.033-.168-.055-.214-.069-.369-.117-.667-.213-.894-.291s-.506-.185-.841-.327a5.419,5.419,0,0,1-.816-.408,5.663,5.663,0,0,1-.674-.5,2.62,2.62,0,0,1-.565-.646,3.424,3.424,0,0,1-.34-.807,3.575,3.575,0,0,1-.137-1,3.76,3.76,0,0,1,.656-2.212,4.01,4.01,0,0,1,1.769-1.407,6.418,6.418,0,0,1,2.531-.472,7.978,7.978,0,0,1,1.831.2,6.4,6.4,0,0,1,1.637.626,4.023,4.023,0,0,1,1.308,1.157,4.358,4.358,0,0,1,.743,1.706l-2.817.7a2.282,2.282,0,0,0-2.525-2.011,2.765,2.765,0,0,0-1.565.408,1.382,1.382,0,0,0-.613,1.234q0,.77,1.021,1.244a15.01,15.01,0,0,0,1.954.671q.573.175.933.292t.9.34a6.137,6.137,0,0,1,.884.433,6.234,6.234,0,0,1,.739.539,2.859,2.859,0,0,1,.627.7,3.746,3.746,0,0,1,.389.874,3.625,3.625,0,0,1,.157,1.084,4.247,4.247,0,0,1-.282,1.584,3.467,3.467,0,0,1-.772,1.2,4.472,4.472,0,0,1-1.166.82,5.563,5.563,0,0,1-1.429.486A8.238,8.238,0,0,1,128.616,1236.3Z" transform="translate(-57.362 -1221.866)" fill="#03192e"/>
      </g>
      <g id="Grupo_18120" data-name="Grupo 18120" transform="translate(140.701)">
        <path id="Trazado_17661" data-name="Trazado 17661" d="M201.559,1057.053v-10.194h2.116v10.194Z" transform="translate(-201.559 -1043.311)" fill="#03192e"/>
        <path id="Trazado_17662" data-name="Trazado 17662" d="M213.491,1046.859H215.6v10.194h-2.448l-4.515-7.288v7.288h-2.11v-10.194h2.419l4.548,7.245Z" transform="translate(-201.78 -1043.311)" fill="#03192e"/>
        <path id="Trazado_17663" data-name="Trazado 17663" d="M224.646,1046.859v1.862h-2.419v8.332h-2.1v-8.332H217.7v-1.862Z" transform="translate(-202.276 -1043.311)" fill="#03192e"/>
        <path id="Trazado_17664" data-name="Trazado 17664" d="M232.029,1057.053l-2.653-4.487h-.614v4.487h-2.115v-10.194h3.7a4.27,4.27,0,0,1,1.481.236,2.56,2.56,0,0,1,1.026.656,2.812,2.812,0,0,1,.579.964,3.512,3.512,0,0,1,.193,1.193,2.484,2.484,0,0,1-.557,1.676,2.815,2.815,0,0,1-1.6.878l3.067,4.593Zm-3.267-8.438v2.433h1.249q1.587,0,1.586-1.212a1.105,1.105,0,0,0-.389-.9,1.852,1.852,0,0,0-1.2-.324Z" transform="translate(-202.673 -1043.311)" fill="#03192e"/>
        <path id="Trazado_17665" data-name="Trazado 17665" d="M240.732,1057.189a5.533,5.533,0,0,1-2.677-.635,4.636,4.636,0,0,1-1.859-1.838,5.985,5.985,0,0,1,0-5.534,4.608,4.608,0,0,1,1.859-1.831,5.953,5.953,0,0,1,5.35,0,4.618,4.618,0,0,1,1.856,1.831,5.991,5.991,0,0,1,0,5.534,4.632,4.632,0,0,1-1.86,1.838A5.527,5.527,0,0,1,240.732,1057.189Zm-2.227-2.833a3.227,3.227,0,0,0,4.459,0,3.739,3.739,0,0,0,0-4.808,3.241,3.241,0,0,0-4.459,0A3.737,3.737,0,0,0,238.5,1054.355Z" transform="translate(-203.067 -1043.304)" fill="#03192e"/>
        <path id="Trazado_17666" data-name="Trazado 17666" d="M248.458,1057.053v-10.194h3.69a5.769,5.769,0,0,1,2.127.367,3.924,3.924,0,0,1,1.524,1.041,4.513,4.513,0,0,1,.9,1.605,7.256,7.256,0,0,1,0,4.17,4.514,4.514,0,0,1-.9,1.605,3.928,3.928,0,0,1-1.524,1.036,5.774,5.774,0,0,1-2.127.367Zm2.116-1.87h1.467a2.5,2.5,0,0,0,2.06-.828,4.6,4.6,0,0,0,0-4.806,2.5,2.5,0,0,0-2.06-.829h-1.467Z" transform="translate(-203.641 -1043.311)" fill="#03192e"/>
        <path id="Trazado_17667" data-name="Trazado 17667" d="M263.249,1057.195a5.264,5.264,0,0,1-1.571-.223,3.715,3.715,0,0,1-1.259-.666,2.985,2.985,0,0,1-.846-1.164,4.177,4.177,0,0,1-.307-1.658v-6.625h2.115v6.334a2.213,2.213,0,0,0,.512,1.615,1.82,1.82,0,0,0,1.358.515,1.844,1.844,0,0,0,1.365-.518,2.2,2.2,0,0,0,.519-1.612v-6.336h2.115v6.625a4.193,4.193,0,0,1-.306,1.658,2.971,2.971,0,0,1-.854,1.163,3.73,3.73,0,0,1-1.262.667A5.31,5.31,0,0,1,263.249,1057.195Z" transform="translate(-204.121 -1043.311)" fill="#03192e"/>
        <path id="Trazado_17668" data-name="Trazado 17668" d="M274.643,1057.188a5.684,5.684,0,0,1-2.078-.374,4.907,4.907,0,0,1-1.654-1.045,4.693,4.693,0,0,1-1.086-1.658,5.755,5.755,0,0,1-.4-2.167,5.509,5.509,0,0,1,.677-2.767,4.606,4.606,0,0,1,1.86-1.832,5.575,5.575,0,0,1,2.678-.635,5.412,5.412,0,0,1,2.991.825,4.523,4.523,0,0,1,1.827,2.273l-1.975.719a2.791,2.791,0,0,0-1.094-1.374,3.121,3.121,0,0,0-1.749-.494,3,3,0,0,0-2.229.888,3.726,3.726,0,0,0,0,4.8,2.991,2.991,0,0,0,2.221.893,3.115,3.115,0,0,0,1.746-.5,2.813,2.813,0,0,0,1.1-1.375l1.975.72a4.543,4.543,0,0,1-1.827,2.275A5.4,5.4,0,0,1,274.643,1057.188Z" transform="translate(-204.572 -1043.304)" fill="#03192e"/>
        <path id="Trazado_17669" data-name="Trazado 17669" d="M286.225,1057.188a5.722,5.722,0,0,1-2.078-.374,4.907,4.907,0,0,1-1.654-1.045,4.7,4.7,0,0,1-1.086-1.658,5.773,5.773,0,0,1-.395-2.167,5.518,5.518,0,0,1,.677-2.767,4.611,4.611,0,0,1,1.86-1.832,5.577,5.577,0,0,1,2.678-.635,5.412,5.412,0,0,1,2.991.825,4.524,4.524,0,0,1,1.827,2.273l-1.975.719a2.79,2.79,0,0,0-1.093-1.374,3.126,3.126,0,0,0-1.75-.494,3,3,0,0,0-2.229.888,3.729,3.729,0,0,0,0,4.8,3,3,0,0,0,2.221.893,3.118,3.118,0,0,0,1.747-.5,2.807,2.807,0,0,0,1.1-1.375l1.976.72a4.545,4.545,0,0,1-1.828,2.275A5.393,5.393,0,0,1,286.225,1057.188Z" transform="translate(-205.086 -1043.304)" fill="#03192e"/>
        <path id="Trazado_17670" data-name="Trazado 17670" d="M293.325,1057.053v-10.194h2.116v10.194Z" transform="translate(-205.633 -1043.311)" fill="#03192e"/>
        <path id="Trazado_17671" data-name="Trazado 17671" d="M302.774,1057.03a5.535,5.535,0,0,1-2.678-.635,4.639,4.639,0,0,1-1.86-1.838,6,6,0,0,1,0-5.534,4.609,4.609,0,0,1,1.86-1.831,5.952,5.952,0,0,1,5.35,0,4.6,4.6,0,0,1,1.855,1.831,5.985,5.985,0,0,1,0,5.534,4.627,4.627,0,0,1-1.86,1.838A5.52,5.52,0,0,1,302.774,1057.03Zm-2.229-2.833a3.227,3.227,0,0,0,4.459,0,3.739,3.739,0,0,0,0-4.808,3.241,3.241,0,0,0-4.459,0A3.744,3.744,0,0,0,300.544,1054.2Zm1.6-8.454,1.848-2.6,1,.712-1.6,1.885Z" transform="translate(-205.821 -1043.146)" fill="#03192e"/>
        <path id="Trazado_17672" data-name="Trazado 17672" d="M317.468,1046.859h2.11v10.194H317.13l-4.515-7.288v7.288h-2.11v-10.194h2.421l4.548,7.245Z" transform="translate(-206.396 -1043.311)" fill="#03192e"/>
      </g>
      <g id="Grupo_18121" data-name="Grupo 18121" transform="translate(414.681 344.706)">
        <path id="Trazado_17673" data-name="Trazado 17673" d="M497.841,1404.075v2.565h-3.333v11.478h-2.887V1406.64h-3.353v-2.565Z" transform="translate(-488.268 -1403.876)" fill="#03192e"/>
        <path id="Trazado_17674" data-name="Trazado 17674" d="M500.594,1418.118v-14.043h2.914v14.043Z" transform="translate(-488.815 -1403.876)" fill="#03192e"/>
        <path id="Trazado_17675" data-name="Trazado 17675" d="M515.583,1406.64h-5.209v3.188h4.616v2.537h-4.616v3.177h5.209v2.576h-8.146v-14.043h8.146Z" transform="translate(-489.119 -1403.876)" fill="#03192e"/>
        <path id="Trazado_17676" data-name="Trazado 17676" d="M535.17,1418.118h-2.906l-.923-10.587-3.558,10.587H525.9l-3.556-10.587-.934,10.587H518.5l1.175-14.043h4.16l2.993,8.814,3.032-8.814h4.16Z" transform="translate(-489.61 -1403.876)" fill="#03192e"/>
        <path id="Trazado_17677" data-name="Trazado 17677" d="M544.979,1404.075a4.225,4.225,0,0,1,3.236,1.307,4.543,4.543,0,0,1,1.224,3.231,4.435,4.435,0,0,1-1.214,3.212,4.3,4.3,0,0,1-3.247,1.262h-2.925v5.034h-2.914v-14.043Zm-.485,6.57a2.14,2.14,0,0,0,1.6-.55,2.392,2.392,0,0,0-.006-3.021,2.118,2.118,0,0,0-1.6-.559h-2.44v4.13Z" transform="translate(-490.527 -1403.876)" fill="#03192e"/>
        <path id="Trazado_17678" data-name="Trazado 17678" d="M558.655,1418.3a7.634,7.634,0,0,1-3.691-.879,6.369,6.369,0,0,1-2.56-2.532,8.254,8.254,0,0,1,0-7.625,6.34,6.34,0,0,1,2.56-2.526,8.2,8.2,0,0,1,7.371,0,6.362,6.362,0,0,1,2.556,2.526,8.26,8.26,0,0,1,0,7.625,6.39,6.39,0,0,1-2.561,2.532A7.616,7.616,0,0,1,558.655,1418.3Zm-3.07-3.9a4.445,4.445,0,0,0,6.142,0,5.148,5.148,0,0,0,0-6.622,4.47,4.47,0,0,0-6.142,0A5.15,5.15,0,0,0,555.585,1414.4Z" transform="translate(-491.074 -1403.867)" fill="#03192e"/>
      </g>
      <g id="Grupo_18123" data-name="Grupo 18123" transform="translate(130.357 55.282)">
        <path id="Trazado_17701" data-name="Trazado 17701" d="M195.693,1361.668a4.715,4.715,0,0,1-4.959-4.427,4.637,4.637,0,0,1,4.367-4.386c95.706-10.347,198.483-60.046,281.966-136.36,9.7-8.866,18.749-18.175,28.325-28.03C547.2,1145.452,590.416,1101,683.231,1101c1.595,0,3.2.014,4.823.04a193.622,193.622,0,0,1,94.181,26.224,220,220,0,0,1,67.174,60.26,4.14,4.14,0,0,1-1.434,6.123,5.342,5.342,0,0,1-6.872-1.278A210.476,210.476,0,0,0,776.86,1134.7a183.064,183.064,0,0,0-88.991-24.813c-1.518-.024-3.037-.036-4.529-.036-88.4,0-130.1,42.9-170.447,84.413-9.25,9.519-18.817,19.359-28.719,28.412-85.035,77.731-189.961,128.381-287.884,138.967A5.5,5.5,0,0,1,195.693,1361.668Z" transform="translate(-190.734 -1100.996)" fill="#a3121d"/>
      </g>
      <g id="Grupo_18124" data-name="Grupo 18124" transform="translate(318.785 3.406)">
        <path id="Trazado_17702" data-name="Trazado 17702" d="M393.132,1057.188a5.7,5.7,0,0,1-2.077-.375,4.877,4.877,0,0,1-1.654-1.043,4.721,4.721,0,0,1-1.087-1.658,5.811,5.811,0,0,1-.395-2.167,5.517,5.517,0,0,1,.678-2.767,4.609,4.609,0,0,1,1.859-1.832,5.577,5.577,0,0,1,2.678-.635,5.415,5.415,0,0,1,2.992.825,4.516,4.516,0,0,1,1.826,2.272l-1.974.72a2.8,2.8,0,0,0-1.094-1.375,3.133,3.133,0,0,0-1.75-.493,2.992,2.992,0,0,0-2.228.888,3.724,3.724,0,0,0,0,4.8,2.99,2.99,0,0,0,2.221.893,3.118,3.118,0,0,0,1.747-.5,2.818,2.818,0,0,0,1.1-1.375l1.974.72a4.522,4.522,0,0,1-1.826,2.274A5.385,5.385,0,0,1,393.132,1057.188Z" transform="translate(-387.917 -1046.711)" fill="#03192e"/>
        <path id="Trazado_17703" data-name="Trazado 17703" d="M405.615,1057.053l-2.653-4.487h-.613v4.487h-2.116v-10.194h3.7a4.265,4.265,0,0,1,1.48.236,2.571,2.571,0,0,1,1.026.656,2.826,2.826,0,0,1,.579.964,3.537,3.537,0,0,1,.194,1.193,2.5,2.5,0,0,1-.558,1.676,2.8,2.8,0,0,1-1.6.877l3.067,4.594Zm-3.266-8.438v2.433H403.6q1.585,0,1.586-1.213a1.107,1.107,0,0,0-.387-.9,1.852,1.852,0,0,0-1.2-.324Z" transform="translate(-388.464 -1046.717)" fill="#03192e"/>
        <path id="Trazado_17704" data-name="Trazado 17704" d="M416.022,1048.721h-3.781v2.314h3.35v1.84h-3.35v2.307h3.781v1.87h-5.911v-10.194h5.911Z" transform="translate(-388.902 -1046.717)" fill="#03192e"/>
        <path id="Trazado_17705" data-name="Trazado 17705" d="M422.655,1057.188a5.7,5.7,0,0,1-2.078-.375,4.887,4.887,0,0,1-1.654-1.043,4.715,4.715,0,0,1-1.086-1.658,5.773,5.773,0,0,1-.395-2.167,5.516,5.516,0,0,1,.678-2.767,4.6,4.6,0,0,1,1.859-1.832,5.577,5.577,0,0,1,2.678-.635,5.412,5.412,0,0,1,2.991.825,4.526,4.526,0,0,1,1.827,2.272l-1.975.72a2.8,2.8,0,0,0-1.093-1.375,3.133,3.133,0,0,0-1.75-.493,2.993,2.993,0,0,0-2.228.888,3.726,3.726,0,0,0,0,4.8,3,3,0,0,0,2.227.893,3.114,3.114,0,0,0,1.746-.5,2.809,2.809,0,0,0,1.1-1.375l1.975.72a4.538,4.538,0,0,1-1.827,2.274A5.392,5.392,0,0,1,422.655,1057.188Z" transform="translate(-389.228 -1046.711)" fill="#03192e"/>
        <path id="Trazado_17706" data-name="Trazado 17706" d="M429.755,1057.053v-10.194h2.116v10.194Z" transform="translate(-389.774 -1046.717)" fill="#03192e"/>
        <path id="Trazado_17707" data-name="Trazado 17707" d="M446.387,1057.053h-2.11l-.671-7.684-2.581,7.684h-1.372l-2.581-7.684-.678,7.684h-2.115l.853-10.194h3.02l2.173,6.4,2.2-6.4h3.02Z" transform="translate(-389.975 -1046.717)" fill="#03192e"/>
        <path id="Trazado_17708" data-name="Trazado 17708" d="M449.268,1057.053v-10.194h2.116v10.194Z" transform="translate(-390.641 -1046.717)" fill="#03192e"/>
        <path id="Trazado_17709" data-name="Trazado 17709" d="M460.148,1048.721h-3.781v2.314h3.351v1.84h-3.351v2.307h3.781v1.87h-5.912v-10.194h5.912Z" transform="translate(-390.861 -1046.717)" fill="#03192e"/>
        <path id="Trazado_17710" data-name="Trazado 17710" d="M469.668,1046.859h2.11v10.194H469.33l-4.515-7.288v7.288H462.7v-10.194h2.42l4.549,7.245Z" transform="translate(-391.237 -1046.717)" fill="#03192e"/>
        <path id="Trazado_17711" data-name="Trazado 17711" d="M480.824,1046.859v1.862H478.4v8.332h-2.095v-8.332h-2.432v-1.862Z" transform="translate(-391.733 -1046.717)" fill="#03192e"/>
        <path id="Trazado_17712" data-name="Trazado 17712" d="M486.933,1057.189a5.547,5.547,0,0,1-2.678-.635,4.64,4.64,0,0,1-1.86-1.838,6,6,0,0,1,0-5.534,4.618,4.618,0,0,1,1.86-1.832,5.961,5.961,0,0,1,5.351,0,4.615,4.615,0,0,1,1.856,1.832,6,6,0,0,1,0,5.534,4.637,4.637,0,0,1-1.859,1.838A5.532,5.532,0,0,1,486.933,1057.189Zm-2.229-2.833a3.227,3.227,0,0,0,4.459,0,3.739,3.739,0,0,0,0-4.808,3.241,3.241,0,0,0-4.459,0A3.744,3.744,0,0,0,484.7,1054.355Z" transform="translate(-392.081 -1046.711)" fill="#03192e"/>
      </g>
      <g id="Grupo_18125" data-name="Grupo 18125" transform="translate(505.534 3.546)">
        <path id="Trazado_17713" data-name="Trazado 17713" d="M595.449,1057.054h-2.11l-.669-7.683-2.583,7.683h-1.369l-2.582-7.683-.678,7.683h-2.116l.853-10.194h3.019l2.173,6.4,2.2-6.4h3.019Z" transform="translate(-583.342 -1046.857)" fill="#03192e"/>
        <path id="Trazado_17714" data-name="Trazado 17714" d="M605.1,1057.054l-.74-2.1h-4.28l-.741,2.1h-2.166l3.754-10.194h2.591l3.753,10.194Zm-4.4-3.873h3.041l-1.518-4.324Z" transform="translate(-583.956 -1046.857)" fill="#03192e"/>
        <path id="Trazado_17715" data-name="Trazado 17715" d="M609.331,1057.054V1046.86h3.69a5.772,5.772,0,0,1,2.127.367,3.921,3.921,0,0,1,1.524,1.041,4.535,4.535,0,0,1,.9,1.605,7.24,7.24,0,0,1,0,4.17,4.542,4.542,0,0,1-.9,1.605,3.91,3.91,0,0,1-1.524,1.041,5.729,5.729,0,0,1-2.127.367Zm2.115-1.87h1.468a2.5,2.5,0,0,0,2.06-.828,4.6,4.6,0,0,0,0-4.806,2.5,2.5,0,0,0-2.06-.829h-1.468Z" transform="translate(-584.496 -1046.857)" fill="#03192e"/>
        <path id="Trazado_17716" data-name="Trazado 17716" d="M624.124,1057.2a5.261,5.261,0,0,1-1.57-.223,3.686,3.686,0,0,1-1.259-.666,2.987,2.987,0,0,1-.847-1.164,4.209,4.209,0,0,1-.307-1.658v-6.625h2.116v6.335a2.22,2.22,0,0,0,.512,1.615,1.823,1.823,0,0,0,1.358.514,1.844,1.844,0,0,0,1.366-.518,2.2,2.2,0,0,0,.519-1.611v-6.337h2.115v6.625a4.208,4.208,0,0,1-.3,1.658,2.983,2.983,0,0,1-.854,1.163,3.748,3.748,0,0,1-1.262.667A5.3,5.3,0,0,1,624.124,1057.2Z" transform="translate(-584.976 -1046.857)" fill="#03192e"/>
        <path id="Trazado_17717" data-name="Trazado 17717" d="M636.418,1057.054l-2.652-4.488h-.615v4.488h-2.115V1046.86h3.7a4.285,4.285,0,0,1,1.48.236,2.571,2.571,0,0,1,1.026.656,2.82,2.82,0,0,1,.578.964,3.538,3.538,0,0,1,.194,1.192,2.494,2.494,0,0,1-.557,1.676,2.814,2.814,0,0,1-1.6.878l3.067,4.593Zm-3.266-8.437v2.432H634.4q1.585,0,1.586-1.212a1.108,1.108,0,0,0-.388-.9,1.853,1.853,0,0,0-1.2-.324Z" transform="translate(-585.459 -1046.857)" fill="#03192e"/>
        <path id="Trazado_17718" data-name="Trazado 17718" d="M646.825,1048.722h-3.781v2.315H646.4v1.841h-3.351v2.306h3.781v1.87h-5.911v-10.194h5.911Z" transform="translate(-585.898 -1046.857)" fill="#03192e"/>
        <path id="Trazado_17719" data-name="Trazado 17719" d="M651.205,1055.184h4.9v1.87h-7.429v-1.672l4.833-6.662H648.68v-1.863h7.329v1.672Z" transform="translate(-586.242 -1046.857)" fill="#03192e"/>
      </g>
      <g id="Grupo_18126" data-name="Grupo 18126" transform="translate(686.725 3.406)">
        <path id="Trazado_17720" data-name="Trazado 17720" d="M772.951,1057.053v-10.194h3.69a5.775,5.775,0,0,1,2.128.367,3.922,3.922,0,0,1,1.524,1.041,4.536,4.536,0,0,1,.9,1.605,7.257,7.257,0,0,1,0,4.17,4.542,4.542,0,0,1-.9,1.605,3.922,3.922,0,0,1-1.524,1.041,5.762,5.762,0,0,1-2.128.367Zm2.115-1.87h1.467a2.5,2.5,0,0,0,2.06-.828,4.6,4.6,0,0,0,0-4.806,2.5,2.5,0,0,0-2.06-.829h-1.467Z" transform="translate(-772.951 -1046.717)" fill="#03192e"/>
        <path id="Trazado_17721" data-name="Trazado 17721" d="M789.884,1048.721H786.1v2.315h3.351v1.84H786.1v2.307h3.781v1.87h-5.911v-10.194h5.911Z" transform="translate(-773.44 -1046.717)" fill="#03192e"/>
        <path id="Trazado_17722" data-name="Trazado 17722" d="M796.517,1057.188a5.677,5.677,0,0,1-2.077-.375,4.886,4.886,0,0,1-1.654-1.043,4.719,4.719,0,0,1-1.087-1.658,5.791,5.791,0,0,1-.395-2.167,5.518,5.518,0,0,1,.677-2.767,4.606,4.606,0,0,1,1.86-1.832,5.571,5.571,0,0,1,2.677-.635,5.412,5.412,0,0,1,2.992.825,4.5,4.5,0,0,1,1.826,2.273l-1.974.719a2.8,2.8,0,0,0-1.094-1.374,3.127,3.127,0,0,0-1.75-.494,2.994,2.994,0,0,0-2.229.888,3.727,3.727,0,0,0,0,4.8,2.987,2.987,0,0,0,2.221.893,3.12,3.12,0,0,0,1.748-.5,2.817,2.817,0,0,0,1.1-1.375l1.974.72a4.523,4.523,0,0,1-1.826,2.274A5.385,5.385,0,0,1,796.517,1057.188Z" transform="translate(-773.766 -1046.711)" fill="#03192e"/>
        <path id="Trazado_17723" data-name="Trazado 17723" d="M805.735,1055.183h3.2v1.87h-5.312v-10.194h2.115Z" transform="translate(-774.313 -1046.717)" fill="#03192e"/>
        <path id="Trazado_17724" data-name="Trazado 17724" d="M810.869,1057.053v-10.194h2.115v10.194Z" transform="translate(-774.634 -1046.717)" fill="#03192e"/>
        <path id="Trazado_17725" data-name="Trazado 17725" d="M822.269,1046.859h2.25l-3.767,10.194h-2.327l-3.746-10.194h2.244l2.674,7.72Z" transform="translate(-774.804 -1046.717)" fill="#03192e"/>
        <path id="Trazado_17726" data-name="Trazado 17726" d="M832.494,1048.721h-3.782v2.315h3.35v1.84h-3.35v2.307h3.782v1.87h-5.913v-10.194h5.913Z" transform="translate(-775.332 -1046.717)" fill="#03192e"/>
      </g>
    </g>
  </g>
</svg>
