<svg id="t1-i5" xmlns="http://www.w3.org/2000/svg" width="1008" height="359" viewBox="0 0 1008 359">
  <rect id="Rectángulo_5006" data-name="Rectángulo 5006" width="1008" height="359" fill="#f6f6f6"/>
  <g id="Trazado_17291" data-name="Trazado 17291">
    <path id="Path_32381" data-name="Path 32381" d="M106.652,201.413a1,1,0,0,1-.5-.134L30.8,157.777a1,1,0,0,1-.5-.866v-87a1,1,0,0,1,.5-.866l75.349-43.5a1,1,0,0,1,1,0l75.347,43.5a1,1,0,0,1,.5.866v87a1,1,0,0,1-.5.866l-75.348,43.5A1,1,0,0,1,106.652,201.413ZM32.3,156.333l74.348,42.925L181,156.333V70.484L106.653,27.561,32.3,70.484Z" fill="#a3121d"/>
  </g>
  <g id="Group_56810" data-name="Group 56810">
    <g id="Group_56806" data-name="Group 56806">
      <path id="Trazado_17303" data-name="Trazado 17303" d="M36.963,282.782v-13.92H41.45a6.635,6.635,0,0,1,3.544.9,5.478,5.478,0,0,1,2.175,2.446,8.6,8.6,0,0,1,.707,3.6,9.149,9.149,0,0,1-.41,2.812,6.384,6.384,0,0,1-1.2,2.2,5.26,5.26,0,0,1-2.023,1.444,7.209,7.209,0,0,1-2.792.515Zm1.77-1.611h2.659a4.246,4.246,0,0,0,3.475-1.424,6.032,6.032,0,0,0,1.171-3.934,5.97,5.97,0,0,0-1.176-3.915,4.244,4.244,0,0,0-3.47-1.422H38.733Z"/>
      <path id="Trazado_17304" data-name="Trazado 17304" d="M59.372,277.727l-.019.466H51.762a3.429,3.429,0,0,0,.928,2.485,3.051,3.051,0,0,0,2.215.865,2.938,2.938,0,0,0,1.611-.464,3.026,3.026,0,0,0,1.107-1.285l1.542.326a4.4,4.4,0,0,1-1.66,2.087,4.522,4.522,0,0,1-2.579.76,4.7,4.7,0,0,1-3.5-1.354,5.77,5.77,0,0,1,.005-7.388,4.634,4.634,0,0,1,3.445-1.355,4.389,4.389,0,0,1,3.268,1.247A4.921,4.921,0,0,1,59.372,277.727Zm-4.5-3.538a3.026,3.026,0,0,0-2.021.687,3.145,3.145,0,0,0-1.022,2h5.822a2.886,2.886,0,0,0-.85-2,2.744,2.744,0,0,0-1.929-.686Z"/>
      <path id="Trazado_17305" data-name="Trazado 17305" d="M66.085,282.957a4.685,4.685,0,0,1-3.48-1.393,5.538,5.538,0,0,1-.005-7.294,5.054,5.054,0,0,1,6.3-.55,4.285,4.285,0,0,1,1.635,2.364l-1.6.256a2.948,2.948,0,0,0-1.1-1.512,2.987,2.987,0,0,0-1.759-.535,2.872,2.872,0,0,0-2.249,1,4.313,4.313,0,0,0,0,5.235,2.884,2.884,0,0,0,2.249.992,2.913,2.913,0,0,0,2.859-2.045l1.6.267a4.3,4.3,0,0,1-1.645,2.357A4.717,4.717,0,0,1,66.085,282.957Z"/>
      <path id="Trazado_17306" data-name="Trazado 17306" d="M73.922,270.779a1.164,1.164,0,0,1-1.156-1.156,1.1,1.1,0,0,1,.341-.811,1.119,1.119,0,0,1,.815-.336,1.152,1.152,0,0,1,0,2.3Zm-.869,12v-9.717h1.719v9.717Z"/>
      <path id="Trazado_17307" data-name="Trazado 17307" d="M85.429,267.6h1.709V282.78h-1.65l-.041-1.889a3.579,3.579,0,0,1-1.383,1.533,3.886,3.886,0,0,1-2.057.563,4.409,4.409,0,0,1-3.207-1.37,4.675,4.675,0,0,1-.979-1.606,5.842,5.842,0,0,1-.361-2.085,5.107,5.107,0,0,1,1.319-3.647,4.258,4.258,0,0,1,3.227-1.4,3.866,3.866,0,0,1,2.031.55,3.587,3.587,0,0,1,1.39,1.488ZM82.364,281.5a2.909,2.909,0,0,0,2.259-1.024,4.013,4.013,0,0,0-.005-5.105,2.906,2.906,0,0,0-2.254-1.028,2.977,2.977,0,0,0-2.274.992,4.1,4.1,0,0,0,0,5.17,2.982,2.982,0,0,0,2.273.995Z"/>
      <path id="Trazado_17308" data-name="Trazado 17308" d="M91.487,270.779a1.164,1.164,0,0,1-1.156-1.156,1.1,1.1,0,0,1,.341-.811,1.146,1.146,0,0,1,1.621,0,1.1,1.1,0,0,1,.341.811,1.117,1.117,0,0,1-.341.815A1.1,1.1,0,0,1,91.487,270.779Zm-.869,12v-9.717h1.719v9.717Z"/>
      <path id="Trazado_17309" data-name="Trazado 17309" d="M97.487,274.772a2.945,2.945,0,0,1,1.206-1.3,3.62,3.62,0,0,1,1.867-.515v1.611a3.192,3.192,0,0,0-2.259.722,3.012,3.012,0,0,0-.776,2.3v5.191H95.816v-9.717h1.67Z"/>
      <path id="Trazado_17310" data-name="Trazado 17310" d="M111.86,282.957a4.677,4.677,0,0,1-3.48-1.393,5.538,5.538,0,0,1,0-7.294,5.054,5.054,0,0,1,6.3-.55,4.3,4.3,0,0,1,1.635,2.364l-1.6.256a2.918,2.918,0,0,0-2.859-2.047,2.872,2.872,0,0,0-2.249,1,4.309,4.309,0,0,0,0,5.235,2.879,2.879,0,0,0,2.249.992,2.913,2.913,0,0,0,2.859-2.045l1.6.267a4.305,4.305,0,0,1-1.645,2.357A4.717,4.717,0,0,1,111.86,282.957Z"/>
      <path id="Trazado_17311" data-name="Trazado 17311" d="M124.878,273.063h1.71v9.717h-1.641l-.039-1.287a3.037,3.037,0,0,1-1.206,1.092,3.71,3.71,0,0,1-1.7.381,3.379,3.379,0,0,1-2.446-.881,3.279,3.279,0,0,1-.914-2.48v-6.544h1.711v6.157a2.3,2.3,0,0,0,.6,1.739,2.118,2.118,0,0,0,1.526.574,2.335,2.335,0,0,0,1.726-.672,2.743,2.743,0,0,0,.677-1.987Z"/>
      <path id="Trazado_17312" data-name="Trazado 17312" d="M132.312,282.967a3.306,3.306,0,0,1-2.131-.668,2.394,2.394,0,0,1-.835-1.991,2.808,2.808,0,0,1,.266-1.27,2.225,2.225,0,0,1,.791-.886,4.733,4.733,0,0,1,1.14-.548,10.725,10.725,0,0,1,1.478-.351l1.572-.257c.573-.106.86-.4.86-.9a1.7,1.7,0,0,0-.609-1.449,2.47,2.47,0,0,0-1.537-.459,2.525,2.525,0,0,0-1.522.444,1.862,1.862,0,0,0-.722,1.365l-1.542-.326a2.967,2.967,0,0,1,1.216-2.082,4.534,4.534,0,0,1,2.648-.7,5.277,5.277,0,0,1,1.409.174,3.793,3.793,0,0,1,1.176.543,2.461,2.461,0,0,1,.842,1.048,3.9,3.9,0,0,1,.3,1.6v4.013a1.652,1.652,0,0,0,.222,1.014.967.967,0,0,0,.766.261h.158v1.237h-.85a1.623,1.623,0,0,1-1.839-1.316h-.079A3.711,3.711,0,0,1,132.312,282.967Zm.4-1.383a2.594,2.594,0,0,0,2.085-.94,3.864,3.864,0,0,0,.791-2.569l-2.569.493a3.444,3.444,0,0,0-1.508.54,1.425,1.425,0,0,0-.02,2.131,2.02,2.02,0,0,0,1.221.345Z"/>
      <path id="Trazado_17313" data-name="Trazado 17313" d="M140.674,282.78V267.6H142.4V282.78Z"/>
    </g>
    <g id="Group_56807" data-name="Group 56807">
      <path id="Trazado_17314" data-name="Trazado 17314" d="M46.252,302.035l-.02.466H38.641a3.434,3.434,0,0,0,.93,2.485,3.049,3.049,0,0,0,2.213.865,2.919,2.919,0,0,0,1.611-.464A3.022,3.022,0,0,0,44.5,304.1l1.542.326a4.378,4.378,0,0,1-1.662,2.087,4.528,4.528,0,0,1-2.579.761,4.7,4.7,0,0,1-3.5-1.355,5.773,5.773,0,0,1,0-7.388,4.637,4.637,0,0,1,3.445-1.355,4.386,4.386,0,0,1,3.266,1.247A4.914,4.914,0,0,1,46.252,302.035Zm-4.5-3.538a3.038,3.038,0,0,0-2.023.687,3.155,3.155,0,0,0-1.022,2h5.822a2.886,2.886,0,0,0-.85-2,2.742,2.742,0,0,0-1.925-.686Z"/>
      <path id="Trazado_17315" data-name="Trazado 17315" d="M52,307.275a4.616,4.616,0,0,1-2.62-.7,2.9,2.9,0,0,1-1.275-2l1.493-.425a2.088,2.088,0,0,0,.8,1.35,2.581,2.581,0,0,0,1.6.479,3.186,3.186,0,0,0,.936-.128,1.506,1.506,0,0,0,.717-.479,1.345,1.345,0,0,0,.207-1.284,1.917,1.917,0,0,0-.159-.321.961.961,0,0,0-.277-.266,3.421,3.421,0,0,0-.337-.208,3.311,3.311,0,0,0-.439-.184c-.194-.069-.351-.122-.469-.159s-.3-.088-.545-.157-.433-.125-.564-.164q-.513-.153-1.007-.356a4.311,4.311,0,0,1-.822-.469,1.884,1.884,0,0,1-.638-.766,2.59,2.59,0,0,1-.213-1.088,2.5,2.5,0,0,1,.476-1.552,2.665,2.665,0,0,1,1.23-.914,4.916,4.916,0,0,1,1.725-.282,4.22,4.22,0,0,1,2.367.633,2.7,2.7,0,0,1,1.181,1.9l-1.4.356a1.855,1.855,0,0,0-.74-1.23,2.364,2.364,0,0,0-1.4-.412,2.4,2.4,0,0,0-1.3.343,1.143,1.143,0,0,0-.543,1.042,1.038,1.038,0,0,0,.143.538,1.693,1.693,0,0,0,.292.381,1.847,1.847,0,0,0,.533.292c.256.1.449.17.573.207s.363.1.712.182a1.282,1.282,0,0,0,.148.039c.381.1.693.187.933.263a5.688,5.688,0,0,1,.84.356,2.786,2.786,0,0,1,.757.528,2.468,2.468,0,0,1,.474.751,2.657,2.657,0,0,1,.2,1.049,2.829,2.829,0,0,1-.292,1.309,2.261,2.261,0,0,1-.8.894,3.824,3.824,0,0,1-1.13.489A5.338,5.338,0,0,1,52,307.275Z"/>
    </g>
    <g id="Group_56808" data-name="Group 56808">
      <path id="Trazado_17316" data-name="Trazado 17316" d="M63.127,307.071V291.888h1.731v15.183Z"/>
      <path id="Trazado_17317" data-name="Trazado 17317" d="M70.582,307.26a3.3,3.3,0,0,1-2.129-.668,2.4,2.4,0,0,1-.835-1.992,2.827,2.827,0,0,1,.266-1.27,2.243,2.243,0,0,1,.79-.886,4.8,4.8,0,0,1,1.142-.547,10.585,10.585,0,0,1,1.478-.352l1.572-.255c.573-.106.86-.4.86-.9a1.7,1.7,0,0,0-.609-1.448,2.476,2.476,0,0,0-1.537-.459,2.527,2.527,0,0,0-1.522.444,1.869,1.869,0,0,0-.722,1.364l-1.542-.325a2.971,2.971,0,0,1,1.217-2.082,4.536,4.536,0,0,1,2.648-.7,5.267,5.267,0,0,1,1.409.174,3.765,3.765,0,0,1,1.177.543,2.413,2.413,0,0,1,.839,1.048,3.9,3.9,0,0,1,.3,1.6v4.013a1.635,1.635,0,0,0,.223,1.013.963.963,0,0,0,.766.263h.157v1.235h-.849a1.621,1.621,0,0,1-1.839-1.315h-.079A3.713,3.713,0,0,1,70.582,307.26Zm.4-1.383a2.594,2.594,0,0,0,2.085-.94,3.859,3.859,0,0,0,.791-2.571l-2.571.494a3.449,3.449,0,0,0-1.507.54,1.422,1.422,0,0,0-.02,2.129,2.01,2.01,0,0,0,1.216.348Z"/>
      <path id="Trazado_17318" data-name="Trazado 17318" d="M85.072,295.072a1.164,1.164,0,0,1-1.156-1.156,1.1,1.1,0,0,1,.341-.812,1.121,1.121,0,0,1,.815-.336,1.156,1.156,0,0,1,1.147,1.148,1.118,1.118,0,0,1-.341.815A1.1,1.1,0,0,1,85.072,295.072Zm-.869,12v-9.716h1.719v9.716Z"/>
      <path id="Trazado_17319" data-name="Trazado 17319" d="M96.577,291.888h1.711v15.183h-1.65l-.04-1.888a3.575,3.575,0,0,1-1.384,1.533,3.869,3.869,0,0,1-2.056.564,4.413,4.413,0,0,1-3.207-1.37,4.688,4.688,0,0,1-.978-1.606,5.864,5.864,0,0,1-.361-2.085,5.121,5.121,0,0,1,1.319-3.649,4.259,4.259,0,0,1,3.227-1.4,3.861,3.861,0,0,1,2.031.55,3.565,3.565,0,0,1,1.388,1.486ZM93.514,305.8a2.914,2.914,0,0,0,2.259-1.024,4.013,4.013,0,0,0-.005-5.105,2.908,2.908,0,0,0-2.254-1.029,2.979,2.979,0,0,0-2.274.994,4.1,4.1,0,0,0,0,5.17A2.983,2.983,0,0,0,93.514,305.8Z"/>
      <path id="Trazado_17320" data-name="Trazado 17320" d="M110.271,302.02l-.02.466H102.66a3.435,3.435,0,0,0,.929,2.485,3.051,3.051,0,0,0,2.214.865,2.919,2.919,0,0,0,1.611-.464,3.022,3.022,0,0,0,1.108-1.285l1.542.326A4.378,4.378,0,0,1,108.4,306.5a4.546,4.546,0,0,1-2.579.761,4.7,4.7,0,0,1-3.5-1.355,5.773,5.773,0,0,1,.005-7.388,4.633,4.633,0,0,1,3.445-1.355,4.377,4.377,0,0,1,3.266,1.247A4.913,4.913,0,0,1,110.271,302.02Zm-4.5-3.538a3.025,3.025,0,0,0-2.022.687,3.146,3.146,0,0,0-1.022,2h5.822a2.877,2.877,0,0,0-.85-2,2.728,2.728,0,0,0-1.928-.686Z"/>
      <path id="Trazado_17321" data-name="Trazado 17321" d="M115.191,307.26a3.308,3.308,0,0,1-2.131-.668,2.4,2.4,0,0,1-.835-1.992,2.858,2.858,0,0,1,.267-1.27,2.267,2.267,0,0,1,.791-.886,4.763,4.763,0,0,1,1.142-.547,10.584,10.584,0,0,1,1.478-.352l1.571-.255c.573-.106.86-.4.86-.9a1.7,1.7,0,0,0-.608-1.448,2.479,2.479,0,0,0-1.538-.459,2.527,2.527,0,0,0-1.522.444,1.869,1.869,0,0,0-.722,1.364l-1.542-.325a2.976,2.976,0,0,1,1.216-2.082,4.544,4.544,0,0,1,2.648-.7,5.272,5.272,0,0,1,1.409.174,3.765,3.765,0,0,1,1.177.543,2.449,2.449,0,0,1,.84,1.048,3.883,3.883,0,0,1,.3,1.6v4.013a1.642,1.642,0,0,0,.223,1.013.965.965,0,0,0,.766.263h.158v1.235h-.85a1.622,1.622,0,0,1-1.839-1.315h-.079A3.71,3.71,0,0,1,115.191,307.26Zm.395-1.383a2.593,2.593,0,0,0,2.085-.94,3.864,3.864,0,0,0,.791-2.571l-2.569.494a3.449,3.449,0,0,0-1.508.54,1.253,1.253,0,0,0-.49,1.063,1.239,1.239,0,0,0,.469,1.066A2.012,2.012,0,0,0,115.586,305.877Z"/>
    </g>
    <g id="Group_56809" data-name="Group 56809">
      <path id="Trazado_17322" data-name="Trazado 17322" d="M44.936,315.888h1.709v15.183h-1.65l-.039-1.888a3.577,3.577,0,0,1-1.385,1.533,3.873,3.873,0,0,1-2.057.564,4.418,4.418,0,0,1-3.207-1.37,4.706,4.706,0,0,1-.979-1.606,5.864,5.864,0,0,1-.361-2.085,5.116,5.116,0,0,1,1.319-3.649,4.268,4.268,0,0,1,3.227-1.4,3.868,3.868,0,0,1,2.033.55,3.59,3.59,0,0,1,1.388,1.486ZM41.871,329.8a2.912,2.912,0,0,0,2.259-1.024,4.013,4.013,0,0,0-.005-5.105,2.905,2.905,0,0,0-2.254-1.029,2.97,2.97,0,0,0-2.272.994,4.1,4.1,0,0,0,0,5.17,2.98,2.98,0,0,0,2.271.994Z"/>
      <path id="Trazado_17323" data-name="Trazado 17323" d="M58.626,326.02l-.02.466H51.015a3.439,3.439,0,0,0,.929,2.485,3.06,3.06,0,0,0,2.215.865,2.927,2.927,0,0,0,1.611-.464,3.019,3.019,0,0,0,1.107-1.285l1.542.326a4.384,4.384,0,0,1-1.66,2.087,4.552,4.552,0,0,1-2.581.761,4.7,4.7,0,0,1-3.5-1.355,5.773,5.773,0,0,1,0-7.388,4.632,4.632,0,0,1,3.445-1.355A4.383,4.383,0,0,1,57.4,322.41,4.918,4.918,0,0,1,58.626,326.02Zm-4.5-3.538a3.015,3.015,0,0,0-2.021.687,3.146,3.146,0,0,0-1.024,2H56.9a2.9,2.9,0,0,0-.85-2,2.738,2.738,0,0,0-1.926-.686Z"/>
      <path id="Trazado_17324" data-name="Trazado 17324" d="M71.693,321.167a4.412,4.412,0,0,1,1.759.356,4.33,4.33,0,0,1,1.444,1,4.668,4.668,0,0,1,.974,1.6,5.938,5.938,0,0,1,.361,2.1,5.13,5.13,0,0,1-1.311,3.666,4.254,4.254,0,0,1-3.227,1.4,3.854,3.854,0,0,1-2.031-.555,3.621,3.621,0,0,1-1.388-1.491v6.731H66.563V321.365h1.651l.039,1.888a3.56,3.56,0,0,1,1.383-1.518A3.9,3.9,0,0,1,71.693,321.167Zm-.336,8.631a2.958,2.958,0,0,0,2.249-.984,4.134,4.134,0,0,0,0-5.185,3.066,3.066,0,0,0-4.533.045,3.969,3.969,0,0,0,0,5.1,2.973,2.973,0,0,0,2.284,1.023Z"/>
      <path id="Trazado_17325" data-name="Trazado 17325" d="M80.6,323.065a2.945,2.945,0,0,1,1.206-1.3,3.63,3.63,0,0,1,1.869-.515v1.611a3.194,3.194,0,0,0-2.259.722,3.011,3.011,0,0,0-.776,2.3v5.189h-1.71v-9.715H80.6Z"/>
      <path id="Trazado_17326" data-name="Trazado 17326" d="M89.655,331.26a5.122,5.122,0,0,1-2.491-.6,4.405,4.405,0,0,1-1.755-1.763,5.427,5.427,0,0,1-.648-2.684,4.953,4.953,0,0,1,1.38-3.662,5.17,5.17,0,0,1,7.033,0,5.574,5.574,0,0,1-.005,7.333A4.765,4.765,0,0,1,89.655,331.26Zm-.01-1.424a2.981,2.981,0,0,0,2.3-1,4.224,4.224,0,0,0,0-5.248,2.974,2.974,0,0,0-2.3-1,2.944,2.944,0,0,0-2.279,1,4.275,4.275,0,0,0,0,5.248A2.951,2.951,0,0,0,89.645,329.836Z"/>
      <path id="Trazado_17327" data-name="Trazado 17327" d="M104.4,315.888h1.709v15.183h-1.65l-.039-1.888a3.577,3.577,0,0,1-1.385,1.533,3.869,3.869,0,0,1-2.056.564,4.418,4.418,0,0,1-3.207-1.37A4.715,4.715,0,0,1,96.8,328.3a5.864,5.864,0,0,1-.361-2.085,5.116,5.116,0,0,1,1.319-3.649,4.268,4.268,0,0,1,3.227-1.4,3.868,3.868,0,0,1,2.033.55,3.59,3.59,0,0,1,1.388,1.486ZM101.338,329.8a2.912,2.912,0,0,0,2.259-1.024,4.013,4.013,0,0,0,0-5.105,2.905,2.905,0,0,0-2.254-1.029,2.972,2.972,0,0,0-2.273.994,4.1,4.1,0,0,0,0,5.17,2.979,2.979,0,0,0,2.273.994Z"/>
      <path id="Trazado_17328" data-name="Trazado 17328" d="M115.641,321.355h1.711v9.715h-1.641l-.039-1.284a3.035,3.035,0,0,1-1.206,1.091,3.707,3.707,0,0,1-1.7.381,3.381,3.381,0,0,1-2.446-.881,3.279,3.279,0,0,1-.914-2.48v-6.544h1.709v6.158a2.3,2.3,0,0,0,.6,1.739,2.113,2.113,0,0,0,1.527.574,2.333,2.333,0,0,0,1.726-.671,2.744,2.744,0,0,0,.676-1.987Z"/>
      <path id="Trazado_17329" data-name="Trazado 17329" d="M124.864,331.25a4.684,4.684,0,0,1-3.48-1.394,5.538,5.538,0,0,1-.005-7.294,5.054,5.054,0,0,1,6.3-.55,4.283,4.283,0,0,1,1.635,2.363l-1.6.256a2.941,2.941,0,0,0-1.1-1.511,2.988,2.988,0,0,0-1.76-.535,2.866,2.866,0,0,0-2.249,1,4.306,4.306,0,0,0,0,5.233,2.878,2.878,0,0,0,2.249.994,3,3,0,0,0,1.76-.533,2.954,2.954,0,0,0,1.1-1.513l1.6.268a4.3,4.3,0,0,1-1.645,2.357A4.709,4.709,0,0,1,124.864,331.25Z"/>
      <path id="Trazado_17330" data-name="Trazado 17330" d="M134.935,331.071a2.558,2.558,0,0,1-1.9-.7,2.642,2.642,0,0,1-.692-1.942v-5.714H130.36v-1.363h.731a1.412,1.412,0,0,0,1.073-.341,1.677,1.677,0,0,0,.311-1.142v-1.76h1.592v3.242H136.3v1.363h-2.234v5.537a1.472,1.472,0,0,0,.371,1.071,1.29,1.29,0,0,0,.974.38h.889v1.363Z"/>
      <path id="Trazado_17331" data-name="Trazado 17331" d="M142.744,331.26a5.11,5.11,0,0,1-2.49-.6A4.4,4.4,0,0,1,138.5,328.9a5.427,5.427,0,0,1-.648-2.684,4.947,4.947,0,0,1,1.378-3.662,5.17,5.17,0,0,1,7.033,0,5.568,5.568,0,0,1-.005,7.333A4.76,4.76,0,0,1,142.744,331.26Zm-.01-1.424a2.988,2.988,0,0,0,2.3-1,4.224,4.224,0,0,0,0-5.248,2.981,2.981,0,0,0-2.3-1,2.937,2.937,0,0,0-2.278,1,4.275,4.275,0,0,0,0,5.248A2.944,2.944,0,0,0,142.734,329.836Z"/>
      <path id="Trazado_17332" data-name="Trazado 17332" d="M151.394,331.27a1.112,1.112,0,0,1-.8-.337,1.149,1.149,0,0,1,.8-1.957,1.119,1.119,0,0,1,.812.341,1.122,1.122,0,0,1,.005,1.616A1.123,1.123,0,0,1,151.394,331.27Z"/>
    </g>
  </g>
  <g id="Group_56814" data-name="Group 56814">
    <g id="Group_56811" data-name="Group 56811">
      <path id="Trazado_17341" data-name="Trazado 17341" d="M252.563,282.78h-1.719l-.93-11.487-4.448,11.487h-1.058l-4.418-11.446-.94,11.446h-1.73l1.058-13.918h2.333l4.221,10.854,4.23-10.854h2.353Z"/>
      <path id="Trazado_17342" data-name="Trazado 17342" d="M258.069,282.967a3.308,3.308,0,0,1-2.131-.666,2.4,2.4,0,0,1-.835-1.992,2.851,2.851,0,0,1,.266-1.27,2.241,2.241,0,0,1,.791-.884,4.673,4.673,0,0,1,1.142-.548,10.309,10.309,0,0,1,1.478-.351l1.57-.258q.861-.157.86-.9a1.7,1.7,0,0,0-.607-1.448,2.47,2.47,0,0,0-1.537-.461,2.515,2.515,0,0,0-1.523.445,1.863,1.863,0,0,0-.722,1.363l-1.542-.326a2.968,2.968,0,0,1,1.216-2.08,4.527,4.527,0,0,1,2.648-.7,5.358,5.358,0,0,1,1.409.172,3.855,3.855,0,0,1,1.177.543,2.431,2.431,0,0,1,.84,1.049,3.883,3.883,0,0,1,.3,1.6v4.013a1.64,1.64,0,0,0,.223,1.012.959.959,0,0,0,.766.263h.159v1.235h-.85a1.624,1.624,0,0,1-1.839-1.314h-.079A3.715,3.715,0,0,1,258.069,282.967Zm.395-1.383a2.593,2.593,0,0,0,2.085-.94,3.859,3.859,0,0,0,.791-2.569l-2.569.494a3.463,3.463,0,0,0-1.508.538,1.425,1.425,0,0,0-.02,2.131,2.012,2.012,0,0,0,1.218.346Z"/>
      <path id="Trazado_17343" data-name="Trazado 17343" d="M269.475,282.78a2.564,2.564,0,0,1-1.9-.7,2.638,2.638,0,0,1-.692-1.942v-5.714H264.9v-1.365h.73a1.4,1.4,0,0,0,1.073-.341,1.682,1.682,0,0,0,.31-1.142v-1.759H268.6v3.242h2.233v1.365H268.6v5.535a1.474,1.474,0,0,0,.371,1.073,1.3,1.3,0,0,0,.974.38h.889v1.365Z"/>
      <path id="Trazado_17344" data-name="Trazado 17344" d="M281.694,277.729l-.02.464h-7.592a3.434,3.434,0,0,0,.93,2.487,3.051,3.051,0,0,0,2.214.865,2.91,2.91,0,0,0,1.611-.466,3.012,3.012,0,0,0,1.108-1.286l1.542.327a4.389,4.389,0,0,1-1.662,2.085,4.53,4.53,0,0,1-2.579.761,4.7,4.7,0,0,1-3.5-1.353,5.77,5.77,0,0,1,.005-7.386,4.63,4.63,0,0,1,3.445-1.355,4.382,4.382,0,0,1,3.266,1.245A4.919,4.919,0,0,1,281.694,277.729Zm-4.5-3.539a3.033,3.033,0,0,0-2.023.687,3.15,3.15,0,0,0-1.022,2h5.822a2.886,2.886,0,0,0-.85-2,2.747,2.747,0,0,0-1.925-.687Z"/>
      <path id="Trazado_17345" data-name="Trazado 17345" d="M286.043,274.774a2.937,2.937,0,0,1,1.206-1.306,3.634,3.634,0,0,1,1.867-.513v1.611a3.194,3.194,0,0,0-2.259.722,3.02,3.02,0,0,0-.776,2.3v5.189h-1.709V273.06h1.67Z"/>
      <path id="Trazado_17346" data-name="Trazado 17346" d="M291.994,270.78a1.164,1.164,0,0,1-1.156-1.158,1.1,1.1,0,0,1,.341-.81,1.143,1.143,0,0,1,1.621,0,1.1,1.1,0,0,1,.341.81,1.165,1.165,0,0,1-1.147,1.158Zm-.871,12v-9.717h1.721v9.717Z"/>
      <path id="Trazado_17347" data-name="Trazado 17347" d="M298.567,282.967a3.308,3.308,0,0,1-2.131-.666,2.4,2.4,0,0,1-.835-1.992,2.852,2.852,0,0,1,.267-1.27,2.241,2.241,0,0,1,.791-.884,4.66,4.66,0,0,1,1.14-.548,10.445,10.445,0,0,1,1.478-.351l1.572-.258q.861-.157.86-.9a1.7,1.7,0,0,0-.608-1.448,2.467,2.467,0,0,0-1.538-.461,2.512,2.512,0,0,0-1.522.445,1.863,1.863,0,0,0-.722,1.363l-1.542-.326a2.962,2.962,0,0,1,1.217-2.08,4.529,4.529,0,0,1,2.648-.7,5.353,5.353,0,0,1,1.409.172,3.816,3.816,0,0,1,1.176.543,2.443,2.443,0,0,1,.842,1.049,3.9,3.9,0,0,1,.3,1.6v4.013a1.627,1.627,0,0,0,.223,1.012.958.958,0,0,0,.766.263h.158v1.235h-.85a1.623,1.623,0,0,1-1.839-1.314h-.079A3.716,3.716,0,0,1,298.567,282.967Zm.4-1.383a2.592,2.592,0,0,0,2.085-.94,3.859,3.859,0,0,0,.791-2.569l-2.569.494a3.458,3.458,0,0,0-1.508.538,1.425,1.425,0,0,0-.02,2.131A2.016,2.016,0,0,0,298.962,281.584Z"/>
      <path id="Trazado_17348" data-name="Trazado 17348" d="M306.929,282.78V267.6h1.729V282.78Z"/>
      <path id="Trazado_17349" data-name="Trazado 17349" d="M313.008,270.78a1.164,1.164,0,0,1-1.156-1.158,1.1,1.1,0,0,1,.341-.81,1.122,1.122,0,0,1,.815-.337,1.158,1.158,0,0,1,1.147,1.147,1.165,1.165,0,0,1-1.147,1.158Zm-.869,12v-9.717h1.719v9.717Z"/>
      <path id="Trazado_17350" data-name="Trazado 17350" d="M318.681,281.4h5.181v1.383h-7.75l5.12-8.324h-4.826v-1.395h7.443Z"/>
      <path id="Trazado_17351" data-name="Trazado 17351" d="M328.132,282.967A3.306,3.306,0,0,1,326,282.3a2.4,2.4,0,0,1-.835-1.992,2.851,2.851,0,0,1,.266-1.27,2.241,2.241,0,0,1,.791-.884,4.729,4.729,0,0,1,1.142-.548,10.309,10.309,0,0,1,1.478-.351l1.57-.258q.861-.157.86-.9a1.7,1.7,0,0,0-.608-1.448,2.466,2.466,0,0,0-1.537-.461,2.515,2.515,0,0,0-1.523.445,1.859,1.859,0,0,0-.72,1.363l-1.542-.326a2.967,2.967,0,0,1,1.215-2.08,4.533,4.533,0,0,1,2.65-.7,5.4,5.4,0,0,1,1.409.172,3.85,3.85,0,0,1,1.176.543,2.431,2.431,0,0,1,.84,1.049,3.883,3.883,0,0,1,.3,1.6v4.013a1.652,1.652,0,0,0,.221,1.012.965.965,0,0,0,.767.263h.157v1.235h-.85a1.621,1.621,0,0,1-1.837-1.314h-.079A3.721,3.721,0,0,1,328.132,282.967Zm.4-1.383a2.6,2.6,0,0,0,2.087-.94,3.87,3.87,0,0,0,.789-2.569l-2.569.494a3.458,3.458,0,0,0-1.508.538,1.256,1.256,0,0,0-.489,1.063,1.24,1.24,0,0,0,.471,1.068A2.008,2.008,0,0,0,328.527,281.584Z"/>
      <path id="Trazado_17352" data-name="Trazado 17352" d="M338.164,274.774a2.959,2.959,0,0,1,1.206-1.306,3.628,3.628,0,0,1,1.869-.513v1.611a3.19,3.19,0,0,0-2.259.722,3.011,3.011,0,0,0-.776,2.3v5.189h-1.711V273.06h1.67Z"/>
    </g>
    <g id="Group_56812" data-name="Group 56812">
      <path id="Trazado_17353" data-name="Trazado 17353" d="M237.4,307.073V291.89h1.729v15.183Z"/>
      <path id="Trazado_17354" data-name="Trazado 17354" d="M244.854,307.26a3.32,3.32,0,0,1-2.131-.666,2.4,2.4,0,0,1-.835-1.992,2.838,2.838,0,0,1,.267-1.27,2.241,2.241,0,0,1,.791-.884,4.674,4.674,0,0,1,1.142-.548,10.114,10.114,0,0,1,1.478-.351l1.571-.258q.861-.157.861-.9a1.7,1.7,0,0,0-.608-1.448,2.464,2.464,0,0,0-1.537-.461,2.515,2.515,0,0,0-1.523.445,1.86,1.86,0,0,0-.722,1.363l-1.542-.326a2.971,2.971,0,0,1,1.217-2.08,4.527,4.527,0,0,1,2.648-.7,5.351,5.351,0,0,1,1.408.172,3.8,3.8,0,0,1,1.178.543,2.449,2.449,0,0,1,.84,1.048,3.883,3.883,0,0,1,.3,1.6v4.013a1.64,1.64,0,0,0,.223,1.012.959.959,0,0,0,.766.261h.158v1.237h-.85a1.623,1.623,0,0,1-1.839-1.314h-.079A3.713,3.713,0,0,1,244.854,307.26Zm.395-1.383a2.593,2.593,0,0,0,2.085-.94,3.859,3.859,0,0,0,.791-2.569l-2.569.495a3.458,3.458,0,0,0-1.508.538,1.256,1.256,0,0,0-.49,1.063,1.243,1.243,0,0,0,.469,1.068,2.009,2.009,0,0,0,1.221.345Z"/>
      <path id="Trazado_17355" data-name="Trazado 17355" d="M259.344,295.073a1.168,1.168,0,0,1-1.158-1.158,1.1,1.1,0,0,1,.341-.81,1.121,1.121,0,0,1,.817-.338,1.105,1.105,0,0,1,.8.338,1.091,1.091,0,0,1,.341.81,1.168,1.168,0,0,1-1.141,1.158Zm-.87,12v-9.717h1.719v9.717Z"/>
      <path id="Trazado_17356" data-name="Trazado 17356" d="M270.85,291.89h1.71v15.183h-1.651l-.039-1.888a3.586,3.586,0,0,1-1.385,1.532,3.856,3.856,0,0,1-2.055.563,4.428,4.428,0,0,1-3.209-1.37,4.67,4.67,0,0,1-.979-1.607,5.9,5.9,0,0,1-.361-2.085,5.111,5.111,0,0,1,1.319-3.646,4.26,4.26,0,0,1,3.229-1.4,3.878,3.878,0,0,1,2.031.548,3.613,3.613,0,0,1,1.388,1.488ZM267.785,305.8a2.912,2.912,0,0,0,2.259-1.022,4.015,4.015,0,0,0-.005-5.107,2.9,2.9,0,0,0-2.254-1.027,2.969,2.969,0,0,0-2.272.994,4.094,4.094,0,0,0,0,5.169,2.97,2.97,0,0,0,2.271.993Z"/>
      <path id="Trazado_17357" data-name="Trazado 17357" d="M284.54,302.022l-.02.464h-7.592a3.444,3.444,0,0,0,.93,2.487,3.055,3.055,0,0,0,2.215.864,2.919,2.919,0,0,0,1.611-.464,3.007,3.007,0,0,0,1.107-1.285l1.542.327a4.4,4.4,0,0,1-1.66,2.085,4.534,4.534,0,0,1-2.581.761,4.7,4.7,0,0,1-3.5-1.353,5.77,5.77,0,0,1,0-7.386,4.63,4.63,0,0,1,3.445-1.355,4.387,4.387,0,0,1,3.268,1.245A4.919,4.919,0,0,1,284.54,302.022Zm-4.5-3.539a3.028,3.028,0,0,0-2.021.687,3.153,3.153,0,0,0-1.024,2h5.824a2.886,2.886,0,0,0-.85-2,2.749,2.749,0,0,0-1.927-.688Z"/>
      <path id="Trazado_17358" data-name="Trazado 17358" d="M289.463,307.26a3.314,3.314,0,0,1-2.131-.666,2.4,2.4,0,0,1-.835-1.992,2.851,2.851,0,0,1,.266-1.27,2.241,2.241,0,0,1,.791-.884,4.728,4.728,0,0,1,1.142-.548,10.113,10.113,0,0,1,1.478-.351l1.572-.258q.858-.157.859-.9a1.7,1.7,0,0,0-.607-1.448,2.464,2.464,0,0,0-1.537-.461,2.51,2.51,0,0,0-1.522.445,1.857,1.857,0,0,0-.722,1.363l-1.542-.326a2.967,2.967,0,0,1,1.215-2.08,4.533,4.533,0,0,1,2.65-.7,5.358,5.358,0,0,1,1.409.172,3.793,3.793,0,0,1,1.176.543,2.434,2.434,0,0,1,.84,1.048,3.883,3.883,0,0,1,.3,1.6v4.013a1.64,1.64,0,0,0,.223,1.012.959.959,0,0,0,.766.261h.157v1.237h-.849a1.621,1.621,0,0,1-1.839-1.314h-.079A3.717,3.717,0,0,1,289.463,307.26Zm.394-1.383a2.6,2.6,0,0,0,2.087-.94,3.871,3.871,0,0,0,.791-2.569l-2.571.495a3.45,3.45,0,0,0-1.506.538,1.424,1.424,0,0,0-.021,2.131A2.006,2.006,0,0,0,289.857,305.877Z"/>
      <path id="Trazado_17359" data-name="Trazado 17359" d="M299.159,310.641h-1.245l1.206-6.129h1.788Z"/>
    </g>
    <g id="Group_56813" data-name="Group 56813">
      <path id="Trazado_17360" data-name="Trazado 17360" d="M242.531,321.172a4.391,4.391,0,0,1,1.759.356,4.316,4.316,0,0,1,1.444,1,4.65,4.65,0,0,1,.973,1.6,5.893,5.893,0,0,1,.361,2.1,5.131,5.131,0,0,1-1.311,3.666,4.247,4.247,0,0,1-3.227,1.394,3.842,3.842,0,0,1-2.031-.552,3.632,3.632,0,0,1-1.388-1.493v6.731H237.4V321.365h1.651l.039,1.888a3.566,3.566,0,0,1,1.384-1.517A3.875,3.875,0,0,1,242.531,321.172ZM242.2,329.8a2.95,2.95,0,0,0,2.249-.983,4.132,4.132,0,0,0,0-5.184,3.068,3.068,0,0,0-4.533.043,3.97,3.97,0,0,0,0,5.1A2.972,2.972,0,0,0,242.2,329.8Z"/>
      <path id="Trazado_17361" data-name="Trazado 17361" d="M251.436,323.071a2.95,2.95,0,0,1,1.206-1.307,3.637,3.637,0,0,1,1.869-.513v1.612a3.19,3.19,0,0,0-2.259.722,3.01,3.01,0,0,0-.776,2.3v5.19h-1.711v-9.717h1.67Z"/>
      <path id="Trazado_17362" data-name="Trazado 17362" d="M260.492,331.263a5.139,5.139,0,0,1-2.492-.6,4.389,4.389,0,0,1-1.754-1.765,5.427,5.427,0,0,1-.648-2.684,4.953,4.953,0,0,1,1.38-3.662,5.173,5.173,0,0,1,7.031,0,5.574,5.574,0,0,1,0,7.335A4.765,4.765,0,0,1,260.492,331.263Zm-.01-1.424a2.988,2.988,0,0,0,2.3-1,4.226,4.226,0,0,0,0-5.25,2.981,2.981,0,0,0-2.3-1,2.944,2.944,0,0,0-2.279,1,4.278,4.278,0,0,0,0,5.25,2.952,2.952,0,0,0,2.279,1Z"/>
      <path id="Trazado_17363" data-name="Trazado 17363" d="M275.24,315.894h1.709v15.183H275.3l-.04-1.888a3.57,3.57,0,0,1-1.384,1.531,3.839,3.839,0,0,1-2.056.563,4.413,4.413,0,0,1-3.207-1.37,4.656,4.656,0,0,1-.979-1.606,5.857,5.857,0,0,1-.361-2.085,5.119,5.119,0,0,1,1.319-3.647,4.259,4.259,0,0,1,3.227-1.4,3.887,3.887,0,0,1,2.033.548,3.607,3.607,0,0,1,1.388,1.488ZM272.175,329.8a2.91,2.91,0,0,0,2.259-1.022,4.017,4.017,0,0,0-.005-5.108,2.91,2.91,0,0,0-2.254-1.027,2.966,2.966,0,0,0-2.272.995,4.1,4.1,0,0,0,0,5.169,2.974,2.974,0,0,0,2.276.993Z"/>
      <path id="Trazado_17364" data-name="Trazado 17364" d="M286.479,321.358h1.711v9.717h-1.642l-.041-1.285a3.038,3.038,0,0,1-1.2,1.093,3.718,3.718,0,0,1-1.7.379,3.386,3.386,0,0,1-2.446-.879,3.283,3.283,0,0,1-.914-2.482v-6.543h1.709v6.159a2.31,2.31,0,0,0,.6,1.739,2.123,2.123,0,0,0,1.527.574,2.319,2.319,0,0,0,1.724-.673,2.73,2.73,0,0,0,.678-1.987Z"/>
      <path id="Trazado_17365" data-name="Trazado 17365" d="M295.7,331.253a4.688,4.688,0,0,1-3.48-1.393,5.538,5.538,0,0,1,0-7.294,5.065,5.065,0,0,1,6.3-.543,4.28,4.28,0,0,1,1.635,2.362l-1.6.256a2.948,2.948,0,0,0-1.1-1.512,2.987,2.987,0,0,0-1.76-.534,2.88,2.88,0,0,0-2.249,1,4.309,4.309,0,0,0,0,5.235,2.879,2.879,0,0,0,2.249.994,2.985,2.985,0,0,0,1.76-.534,2.954,2.954,0,0,0,1.1-1.513l1.6.266A4.29,4.29,0,0,1,298.5,330.4,4.72,4.72,0,0,1,295.7,331.253Z"/>
      <path id="Trazado_17366" data-name="Trazado 17366" d="M303.539,319.077a1.168,1.168,0,0,1-1.156-1.158,1.1,1.1,0,0,1,.341-.81,1.119,1.119,0,0,1,.815-.338,1.153,1.153,0,0,1,0,2.306Zm-.869,12V321.36h1.719v9.717Z"/>
      <path id="Trazado_17367" data-name="Trazado 17367" d="M309.54,323.071a2.945,2.945,0,0,1,1.206-1.307,3.646,3.646,0,0,1,1.868-.513v1.612a3.2,3.2,0,0,0-2.259.722,3.019,3.019,0,0,0-.776,2.3v5.19H307.87v-9.717h1.67Z"/>
      <path id="Trazado_17368" data-name="Trazado 17368" d="M314.619,331.077V315.894h1.731v15.183Z"/>
      <path id="Trazado_17369" data-name="Trazado 17369" d="M323.921,331.263a5.132,5.132,0,0,1-2.49-.6,4.385,4.385,0,0,1-1.755-1.765,5.427,5.427,0,0,1-.648-2.684,4.951,4.951,0,0,1,1.378-3.662,5.176,5.176,0,0,1,7.033,0,5.571,5.571,0,0,1-.005,7.335A4.758,4.758,0,0,1,323.921,331.263Zm-.01-1.424a2.992,2.992,0,0,0,2.3-1,4.226,4.226,0,0,0,0-5.25,2.986,2.986,0,0,0-2.3-1,2.94,2.94,0,0,0-2.277,1,4.278,4.278,0,0,0,0,5.25,2.947,2.947,0,0,0,2.277,1Z"/>
      <path id="Trazado_17370" data-name="Trazado 17370" d="M332.571,331.274a1.144,1.144,0,1,1,.812-1.947,1.116,1.116,0,0,1,.005,1.611A1.123,1.123,0,0,1,332.571,331.274Z"/>
    </g>
  </g>
  <g id="Group_56818" data-name="Group 56818">
    <g id="Group_56815" data-name="Group 56815">
      <path id="Trazado_17378" data-name="Trazado 17378" d="M443.394,268.862a4.124,4.124,0,0,1,2.179.579,3.9,3.9,0,0,1,1.463,1.547,4.546,4.546,0,0,1,.509,2.146,4.229,4.229,0,0,1-1.152,3.03,3.956,3.956,0,0,1-3,1.21h-3.5v5.407h-1.77V268.863Zm-.256,6.969a2.531,2.531,0,0,0,1.937-.746,3.114,3.114,0,0,0,0-3.934,2.507,2.507,0,0,0-1.937-.756h-3.243v5.435Z"/>
      <path id="Trazado_17379" data-name="Trazado 17379" d="M453.426,282.969a5.1,5.1,0,0,1-2.49-.6,4.366,4.366,0,0,1-1.755-1.765,5.406,5.406,0,0,1-.648-2.682,4.947,4.947,0,0,1,1.378-3.662,5.17,5.17,0,0,1,7.033,0,5.568,5.568,0,0,1-.005,7.333A4.761,4.761,0,0,1,453.426,282.969Zm-.01-1.424a2.991,2.991,0,0,0,2.3-1,4.22,4.22,0,0,0,0-5.248,2.984,2.984,0,0,0-2.3-1,2.934,2.934,0,0,0-2.277,1,4.275,4.275,0,0,0,0,5.248A2.937,2.937,0,0,0,453.416,281.545Z"/>
      <path id="Trazado_17380" data-name="Trazado 17380" d="M465.585,272.876a3.372,3.372,0,0,1,2.446.881,3.282,3.282,0,0,1,.914,2.482v6.542h-1.709v-6.158a2.291,2.291,0,0,0-.594-1.739,2.115,2.115,0,0,0-1.522-.563,2.357,2.357,0,0,0-1.731.666,2.711,2.711,0,0,0-.682,1.982v5.812H461v-9.715h1.71v1.245A3.246,3.246,0,0,1,465.585,272.876Z"/>
      <path id="Trazado_17381" data-name="Trazado 17381" d="M480.747,277.729l-.019.466h-7.591a3.421,3.421,0,0,0,.93,2.485,3.045,3.045,0,0,0,2.213.865,2.919,2.919,0,0,0,1.611-.464A3.026,3.026,0,0,0,479,279.8l1.542.326a4.384,4.384,0,0,1-1.66,2.087,4.546,4.546,0,0,1-2.579.761,4.692,4.692,0,0,1-3.5-1.355,5.775,5.775,0,0,1,0-7.388,4.634,4.634,0,0,1,3.445-1.355,4.379,4.379,0,0,1,3.268,1.247A4.922,4.922,0,0,1,480.747,277.729Zm-4.5-3.538a3.021,3.021,0,0,0-2.021.687,3.145,3.145,0,0,0-1.022,2h5.822a2.886,2.886,0,0,0-.85-2,2.737,2.737,0,0,0-1.926-.686Z"/>
      <path id="Trazado_17382" data-name="Trazado 17382" d="M485.1,274.774a2.92,2.92,0,0,1,1.2-1.3,3.63,3.63,0,0,1,1.869-.515v1.611a3.192,3.192,0,0,0-2.259.722,3.007,3.007,0,0,0-.776,2.3v5.189h-1.71v-9.715h1.672Z"/>
      <path id="Trazado_17383" data-name="Trazado 17383" d="M503.938,277.729l-.02.466h-7.591a3.425,3.425,0,0,0,.929,2.485,3.049,3.049,0,0,0,2.213.865,2.919,2.919,0,0,0,1.611-.464,3.026,3.026,0,0,0,1.107-1.285l1.543.326a4.394,4.394,0,0,1-1.662,2.087,4.546,4.546,0,0,1-2.579.761,4.69,4.69,0,0,1-3.5-1.355,5.773,5.773,0,0,1,0-7.388,4.63,4.63,0,0,1,3.445-1.355,4.38,4.38,0,0,1,3.266,1.247A4.922,4.922,0,0,1,503.938,277.729Zm-4.5-3.538a3.024,3.024,0,0,0-2.023.687,3.146,3.146,0,0,0-1.022,2h5.822a2.886,2.886,0,0,0-.85-2,2.738,2.738,0,0,0-1.925-.686Z"/>
      <path id="Trazado_17384" data-name="Trazado 17384" d="M506.616,282.78V267.6h1.731V282.78Z"/>
      <path id="Trazado_17385" data-name="Trazado 17385" d="M522.215,272.876a4.432,4.432,0,0,1,1.759.356,4.319,4.319,0,0,1,1.442,1,4.643,4.643,0,0,1,.974,1.6,5.9,5.9,0,0,1,.361,2.1,5.141,5.141,0,0,1-1.309,3.667,4.26,4.26,0,0,1-3.227,1.393,3.85,3.85,0,0,1-2.033-.553,3.621,3.621,0,0,1-1.388-1.491v6.731h-1.709V273.07h1.65l.04,1.888a3.559,3.559,0,0,1,1.383-1.518A3.884,3.884,0,0,1,522.215,272.876Zm-.337,8.631a2.952,2.952,0,0,0,2.249-.984,4.141,4.141,0,0,0,0-5.19,3.066,3.066,0,0,0-4.532.046,3.961,3.961,0,0,0,0,5.1,2.968,2.968,0,0,0,2.283,1.028Z"/>
      <path id="Trazado_17386" data-name="Trazado 17386" d="M531.12,274.774a2.923,2.923,0,0,1,1.206-1.3,3.62,3.62,0,0,1,1.867-.515v1.611a3.192,3.192,0,0,0-2.259.722,3.012,3.012,0,0,0-.776,2.3v5.189h-1.709v-9.715h1.67Z"/>
      <path id="Trazado_17387" data-name="Trazado 17387" d="M540.175,282.969a5.126,5.126,0,0,1-2.492-.6,4.388,4.388,0,0,1-1.754-1.765,5.43,5.43,0,0,1-.646-2.682,4.947,4.947,0,0,1,1.378-3.662,5.17,5.17,0,0,1,7.033,0,5.574,5.574,0,0,1,0,7.333A4.761,4.761,0,0,1,540.175,282.969Zm-.01-1.424a2.984,2.984,0,0,0,2.3-1,4.224,4.224,0,0,0,0-5.248,2.977,2.977,0,0,0-2.3-1,2.933,2.933,0,0,0-2.278,1,4.253,4.253,0,0,0,0,5.248,2.937,2.937,0,0,0,2.277,1Z"/>
      <path id="Trazado_17388" data-name="Trazado 17388" d="M554.922,267.6h1.711V282.78h-1.652l-.039-1.888a3.575,3.575,0,0,1-1.383,1.532,3.863,3.863,0,0,1-2.057.563,4.4,4.4,0,0,1-3.207-1.368,4.662,4.662,0,0,1-.98-1.606,5.877,5.877,0,0,1-.359-2.087,5.107,5.107,0,0,1,1.319-3.647,4.259,4.259,0,0,1,3.227-1.4,3.862,3.862,0,0,1,2.031.55,3.584,3.584,0,0,1,1.388,1.486ZM551.858,281.5a2.917,2.917,0,0,0,2.259-1.024,4.013,4.013,0,0,0-.005-5.105,2.905,2.905,0,0,0-2.254-1.029,2.973,2.973,0,0,0-2.274.994,4.1,4.1,0,0,0,0,5.171A2.979,2.979,0,0,0,551.858,281.5Z"/>
      <path id="Trazado_17389" data-name="Trazado 17389" d="M566.161,273.065h1.711v9.715h-1.641l-.039-1.284a3.035,3.035,0,0,1-1.206,1.091,3.707,3.707,0,0,1-1.7.381,3.381,3.381,0,0,1-2.446-.881,3.279,3.279,0,0,1-.914-2.48v-6.544h1.711v6.157a2.306,2.306,0,0,0,.6,1.739,2.118,2.118,0,0,0,1.528.574,2.333,2.333,0,0,0,1.724-.671,2.744,2.744,0,0,0,.676-1.987Z"/>
      <path id="Trazado_17390" data-name="Trazado 17390" d="M575.384,282.959a4.684,4.684,0,0,1-3.479-1.393,5.534,5.534,0,0,1-.005-7.3,5.063,5.063,0,0,1,6.3-.543,4.286,4.286,0,0,1,1.636,2.364l-1.6.256a2.965,2.965,0,0,0-1.1-1.513,3,3,0,0,0-1.76-.533,2.868,2.868,0,0,0-2.249,1,4.314,4.314,0,0,0,0,5.233,2.879,2.879,0,0,0,2.249.994,2.913,2.913,0,0,0,2.86-2.046l1.6.268a4.3,4.3,0,0,1-1.647,2.357A4.7,4.7,0,0,1,575.384,282.959Z"/>
      <path id="Trazado_17391" data-name="Trazado 17391" d="M585.457,282.78a2.551,2.551,0,0,1-1.9-.7,2.63,2.63,0,0,1-.692-1.942v-5.714h-1.987v-1.363h.732a1.406,1.406,0,0,0,1.071-.342,1.676,1.676,0,0,0,.312-1.14v-1.76h1.591v3.242h2.234v1.363h-2.234v5.535a1.464,1.464,0,0,0,.371,1.073,1.3,1.3,0,0,0,.973.381h.889v1.363Z"/>
      <path id="Trazado_17392" data-name="Trazado 17392" d="M593.266,282.969a5.122,5.122,0,0,1-2.491-.6,4.4,4.4,0,0,1-1.755-1.765,5.417,5.417,0,0,1-.648-2.682,4.945,4.945,0,0,1,1.38-3.662,5.17,5.17,0,0,1,7.033,0,5.574,5.574,0,0,1,0,7.333A4.761,4.761,0,0,1,593.266,282.969Zm-.01-1.424a2.984,2.984,0,0,0,2.3-1,4.22,4.22,0,0,0,0-5.248,2.977,2.977,0,0,0-2.3-1,2.941,2.941,0,0,0-2.279,1,4.275,4.275,0,0,0,0,5.248A2.941,2.941,0,0,0,593.256,281.545Z"/>
    </g>
    <g id="Group_56816" data-name="Group 56816">
      <path id="Trazado_17393" data-name="Trazado 17393" d="M441.1,307.276a3.3,3.3,0,0,1-2.129-.668,2.39,2.39,0,0,1-.837-1.991,2.813,2.813,0,0,1,.268-1.27,2.228,2.228,0,0,1,.79-.886,4.729,4.729,0,0,1,1.142-.548,10.515,10.515,0,0,1,1.478-.351l1.572-.256q.859-.159.86-.9a1.7,1.7,0,0,0-.609-1.447,2.472,2.472,0,0,0-1.537-.459,2.529,2.529,0,0,0-1.522.444,1.862,1.862,0,0,0-.722,1.365l-1.542-.326a2.965,2.965,0,0,1,1.216-2.082,4.536,4.536,0,0,1,2.649-.7,5.319,5.319,0,0,1,1.409.174,3.792,3.792,0,0,1,1.176.543,2.423,2.423,0,0,1,.84,1.048,3.915,3.915,0,0,1,.3,1.6v4.013a1.638,1.638,0,0,0,.223,1.014.961.961,0,0,0,.766.261h.158v1.235h-.85a1.621,1.621,0,0,1-1.839-1.314h-.079A3.711,3.711,0,0,1,441.1,307.276Zm.4-1.385a2.593,2.593,0,0,0,2.085-.938,3.864,3.864,0,0,0,.791-2.571l-2.571.494a3.44,3.44,0,0,0-1.507.54,1.247,1.247,0,0,0-.489,1.063,1.234,1.234,0,0,0,.469,1.066,2.012,2.012,0,0,0,1.218.346Z"/>
      <path id="Trazado_17394" data-name="Trazado 17394" d="M461.612,291.89h1.71v15.183H461.67l-.039-1.888a3.588,3.588,0,0,1-1.383,1.532,3.863,3.863,0,0,1-2.057.564,4.362,4.362,0,0,1-1.759-.361,4.425,4.425,0,0,1-1.449-1.007,4.674,4.674,0,0,1-.979-1.606,5.878,5.878,0,0,1-.361-2.087,5.1,5.1,0,0,1,1.321-3.647,4.259,4.259,0,0,1,3.227-1.4,3.883,3.883,0,0,1,2.031.548,3.6,3.6,0,0,1,1.388,1.488ZM458.548,305.8a2.913,2.913,0,0,0,2.259-1.022,4.013,4.013,0,0,0-.005-5.105,2.907,2.907,0,0,0-2.254-1.029,2.973,2.973,0,0,0-2.274.994,4.1,4.1,0,0,0,0,5.17,2.982,2.982,0,0,0,2.274.989Z"/>
      <path id="Trazado_17395" data-name="Trazado 17395" d="M467.671,295.073a1.164,1.164,0,0,1-1.158-1.157,1.1,1.1,0,0,1,.341-.81,1.114,1.114,0,0,1,.817-.336,1.158,1.158,0,0,1,1.142,1.146,1.121,1.121,0,0,1-.342.816A1.1,1.1,0,0,1,467.671,295.073Zm-.87,12v-9.72h1.721v9.715Z"/>
      <path id="Trazado_17396" data-name="Trazado 17396" d="M475.075,307.261a4.619,4.619,0,0,1-2.62-.7,2.9,2.9,0,0,1-1.275-2l1.493-.425a2.08,2.08,0,0,0,.793,1.35,2.594,2.594,0,0,0,1.6.479,3.162,3.162,0,0,0,.933-.128,1.509,1.509,0,0,0,.717-.479,1.291,1.291,0,0,0,.287-.886,1.271,1.271,0,0,0-.079-.4,1.7,1.7,0,0,0-.157-.32,1,1,0,0,0-.278-.268,3.886,3.886,0,0,0-.336-.207,3.424,3.424,0,0,0-.44-.182c-.194-.069-.351-.121-.469-.159s-.3-.089-.543-.159-.432-.123-.563-.162c-.408-.125-.744-.245-1.009-.356a4.413,4.413,0,0,1-.82-.471,1.885,1.885,0,0,1-.638-.766,2.569,2.569,0,0,1-.213-1.086,2.514,2.514,0,0,1,.474-1.552,2.66,2.66,0,0,1,1.231-.914,4.911,4.911,0,0,1,1.724-.282,4.221,4.221,0,0,1,2.369.633,2.7,2.7,0,0,1,1.181,1.9l-1.4.356a1.863,1.863,0,0,0-.742-1.232,2.359,2.359,0,0,0-1.393-.41,2.4,2.4,0,0,0-1.3.341,1.146,1.146,0,0,0-.545,1.044,1.05,1.05,0,0,0,.143.538,1.733,1.733,0,0,0,.292.38,1.787,1.787,0,0,0,.535.292q.384.153.572.207c.126.037.363.1.712.184.066.019.116.032.148.039.383.1.693.187.934.261a5.78,5.78,0,0,1,.84.356,2.842,2.842,0,0,1,.756.53,2.445,2.445,0,0,1,.474.751,2.649,2.649,0,0,1,.2,1.048,2.863,2.863,0,0,1-.292,1.311,2.305,2.305,0,0,1-.8.894,3.847,3.847,0,0,1-1.132.489A5.459,5.459,0,0,1,475.075,307.261Z"/>
      <path id="Trazado_17397" data-name="Trazado 17397" d="M486.47,297.168a4.42,4.42,0,0,1,1.76.356,4.327,4.327,0,0,1,1.444,1,4.666,4.666,0,0,1,.973,1.6,5.9,5.9,0,0,1,.361,2.1,5.146,5.146,0,0,1-1.309,3.668,4.262,4.262,0,0,1-3.229,1.393,3.85,3.85,0,0,1-2.031-.553,3.626,3.626,0,0,1-1.388-1.493v6.733h-1.71V297.363h1.651l.039,1.888a3.547,3.547,0,0,1,1.385-1.518A3.881,3.881,0,0,1,486.47,297.168Zm-.336,8.629a2.951,2.951,0,0,0,2.249-.984,4.134,4.134,0,0,0,0-5.185,3.065,3.065,0,0,0-4.531.046,3.961,3.961,0,0,0,0,5.1,2.965,2.965,0,0,0,2.284,1.023Z"/>
      <path id="Trazado_17398" data-name="Trazado 17398" d="M497.8,307.261a5.1,5.1,0,0,1-2.49-.6,4.385,4.385,0,0,1-1.755-1.765,5.416,5.416,0,0,1-.648-2.682,4.947,4.947,0,0,1,1.378-3.662,5.17,5.17,0,0,1,7.033,0,5.568,5.568,0,0,1,0,7.333A4.765,4.765,0,0,1,497.8,307.261Zm-.01-1.424a2.991,2.991,0,0,0,2.3-1,4.224,4.224,0,0,0,0-5.248,2.984,2.984,0,0,0-2.3-1,2.934,2.934,0,0,0-2.277,1,4.275,4.275,0,0,0,0,5.248,2.937,2.937,0,0,0,2.277,1Z"/>
      <path id="Trazado_17399" data-name="Trazado 17399" d="M508.445,307.261a4.619,4.619,0,0,1-2.62-.7,2.9,2.9,0,0,1-1.275-2l1.493-.425a2.08,2.08,0,0,0,.8,1.35,2.59,2.59,0,0,0,1.6.479,3.184,3.184,0,0,0,.935-.128,1.507,1.507,0,0,0,.715-.479,1.283,1.283,0,0,0,.287-.886,1.328,1.328,0,0,0-.078-.4,1.8,1.8,0,0,0-.158-.32.981.981,0,0,0-.277-.268c-.127-.084-.238-.154-.338-.207a3.352,3.352,0,0,0-.439-.182c-.194-.069-.351-.121-.471-.159s-.3-.089-.543-.159l-.564-.162q-.513-.153-1.007-.356a4.406,4.406,0,0,1-.822-.471,1.884,1.884,0,0,1-.638-.766,2.584,2.584,0,0,1-.213-1.086,2.508,2.508,0,0,1,.476-1.552,2.652,2.652,0,0,1,1.23-.914,4.911,4.911,0,0,1,1.724-.282,4.221,4.221,0,0,1,2.369.633,2.7,2.7,0,0,1,1.181,1.9l-1.4.356a1.87,1.87,0,0,0-.741-1.232,2.359,2.359,0,0,0-1.4-.41,2.4,2.4,0,0,0-1.3.341,1.144,1.144,0,0,0-.543,1.044,1.028,1.028,0,0,0,.143.538,1.65,1.65,0,0,0,.29.38,1.787,1.787,0,0,0,.535.292c.256.1.447.172.573.207s.363.1.712.184c.065.019.115.032.147.039.383.1.7.187.934.261a5.733,5.733,0,0,1,.84.356,2.781,2.781,0,0,1,.756.53,2.451,2.451,0,0,1,.476.751,2.684,2.684,0,0,1,.2,1.048,2.85,2.85,0,0,1-.292,1.311,2.276,2.276,0,0,1-.8.894,3.846,3.846,0,0,1-1.132.489A5.462,5.462,0,0,1,508.445,307.261Z"/>
      <path id="Trazado_17400" data-name="Trazado 17400" d="M515.582,295.073a1.163,1.163,0,0,1-1.155-1.157,1.1,1.1,0,0,1,.34-.81,1.145,1.145,0,0,1,1.621,0,1.1,1.1,0,0,1,.341.81,1.12,1.12,0,0,1-.341.816A1.1,1.1,0,0,1,515.582,295.073Zm-.869,12v-9.72h1.719v9.715Z"/>
      <path id="Trazado_17401" data-name="Trazado 17401" d="M523.943,307.251a4.685,4.685,0,0,1-3.479-1.393,5.534,5.534,0,0,1-.005-7.3,5.063,5.063,0,0,1,6.3-.543,4.294,4.294,0,0,1,1.636,2.363l-1.6.256a2.913,2.913,0,0,0-2.859-2.046,2.865,2.865,0,0,0-2.249,1,4.314,4.314,0,0,0,0,5.233,2.876,2.876,0,0,0,2.249.994,2.913,2.913,0,0,0,2.859-2.046l1.6.267a4.3,4.3,0,0,1-1.646,2.358A4.708,4.708,0,0,1,523.943,307.251Z"/>
      <path id="Trazado_17402" data-name="Trazado 17402" d="M531.783,295.073a1.164,1.164,0,0,1-1.158-1.157,1.1,1.1,0,0,1,.341-.81,1.114,1.114,0,0,1,.817-.336,1.156,1.156,0,0,1,1.141,1.146,1.117,1.117,0,0,1-.341.816A1.1,1.1,0,0,1,531.783,295.073Zm-.87,12v-9.72h1.72v9.715Z"/>
      <path id="Trazado_17403" data-name="Trazado 17403" d="M540.205,307.261a5.122,5.122,0,0,1-2.491-.6,4.4,4.4,0,0,1-1.755-1.765,5.431,5.431,0,0,1-.646-2.682,4.943,4.943,0,0,1,1.378-3.662,5.17,5.17,0,0,1,7.033,0,5.574,5.574,0,0,1-.005,7.333A4.761,4.761,0,0,1,540.205,307.261Zm-.01-1.424a2.984,2.984,0,0,0,2.3-1,4.224,4.224,0,0,0,0-5.248,2.976,2.976,0,0,0-2.3-1,2.934,2.934,0,0,0-2.277,1,4.253,4.253,0,0,0,0,5.248A2.937,2.937,0,0,0,540.2,305.837Zm-.643-10.152,2.482-3.222.909.663-2.214,2.559Z"/>
      <path id="Trazado_17404" data-name="Trazado 17404" d="M552.363,297.168a3.374,3.374,0,0,1,2.446.881,3.276,3.276,0,0,1,.914,2.48v6.544h-1.709v-6.158a2.3,2.3,0,0,0-.594-1.739,2.115,2.115,0,0,0-1.522-.563,2.358,2.358,0,0,0-1.731.666,2.707,2.707,0,0,0-.682,1.982v5.812h-1.71v-9.715h1.71V298.6A3.241,3.241,0,0,1,552.363,297.168Z"/>
      <path id="Trazado_17405" data-name="Trazado 17405" d="M571.46,291.89h1.71v15.183h-1.652l-.039-1.888a3.582,3.582,0,0,1-1.383,1.532,3.864,3.864,0,0,1-2.057.564,4.422,4.422,0,0,1-3.208-1.368,4.617,4.617,0,0,1-.978-1.606,5.852,5.852,0,0,1-.361-2.087,5.107,5.107,0,0,1,1.319-3.647,4.259,4.259,0,0,1,3.227-1.4,3.883,3.883,0,0,1,2.031.548,3.6,3.6,0,0,1,1.388,1.488ZM568.4,305.8a2.913,2.913,0,0,0,2.259-1.022,4.011,4.011,0,0,0,0-5.105,2.9,2.9,0,0,0-2.254-1.029,2.976,2.976,0,0,0-2.274.994,4.1,4.1,0,0,0,0,5.17,2.982,2.982,0,0,0,2.274.989Z"/>
      <path id="Trazado_17406" data-name="Trazado 17406" d="M585.152,302.021l-.02.466h-7.591a3.425,3.425,0,0,0,.929,2.485,3.045,3.045,0,0,0,2.213.865,2.929,2.929,0,0,0,1.611-.464,3.031,3.031,0,0,0,1.106-1.285l1.543.326a4.395,4.395,0,0,1-1.662,2.085,4.531,4.531,0,0,1-2.579.762,4.69,4.69,0,0,1-3.5-1.355,5.773,5.773,0,0,1,0-7.388,4.63,4.63,0,0,1,3.445-1.355,4.38,4.38,0,0,1,3.266,1.247A4.921,4.921,0,0,1,585.152,302.021Zm-4.5-3.538a3.024,3.024,0,0,0-2.023.687,3.145,3.145,0,0,0-1.022,2h5.822a2.886,2.886,0,0,0-.85-2,2.737,2.737,0,0,0-1.925-.686Z"/>
      <path id="Trazado_17407" data-name="Trazado 17407" d="M587.829,307.073V291.89h1.731v15.183Z"/>
    </g>
    <g id="Group_56817" data-name="Group 56817">
      <path id="Trazado_17408" data-name="Trazado 17408" d="M442.981,331.255a4.686,4.686,0,0,1-3.479-1.393,5.534,5.534,0,0,1-.005-7.3,5.063,5.063,0,0,1,6.3-.543,4.284,4.284,0,0,1,1.636,2.363l-1.6.256a2.913,2.913,0,0,0-2.86-2.046,2.866,2.866,0,0,0-2.249,1,4.314,4.314,0,0,0,0,5.233,2.881,2.881,0,0,0,2.249.994,3,3,0,0,0,1.76-.533,2.954,2.954,0,0,0,1.1-1.513l1.6.267a4.3,4.3,0,0,1-1.646,2.358A4.706,4.706,0,0,1,442.981,331.255Z"/>
      <path id="Trazado_17409" data-name="Trazado 17409" d="M454.042,331.265a5.129,5.129,0,0,1-2.492-.6A4.408,4.408,0,0,1,449.8,328.9a5.423,5.423,0,0,1-.648-2.683,4.952,4.952,0,0,1,1.38-3.661,5.17,5.17,0,0,1,7.033,0,5.573,5.573,0,0,1-.005,7.332A4.757,4.757,0,0,1,454.042,331.265Zm-.01-1.424a2.981,2.981,0,0,0,2.3-1,4.22,4.22,0,0,0,0-5.248,2.974,2.974,0,0,0-2.3-1,2.941,2.941,0,0,0-2.279,1,4.275,4.275,0,0,0,0,5.248,2.948,2.948,0,0,0,2.279,1Z"/>
      <path id="Trazado_17410" data-name="Trazado 17410" d="M466.2,321.172a3.371,3.371,0,0,1,2.446.881,3.278,3.278,0,0,1,.914,2.48v6.544h-1.71v-6.158a2.3,2.3,0,0,0-.592-1.739,2.114,2.114,0,0,0-1.523-.563,2.353,2.353,0,0,0-1.729.666,2.707,2.707,0,0,0-.682,1.982v5.812h-1.71v-9.715h1.71v1.245A3.243,3.243,0,0,1,466.2,321.172Z"/>
      <path id="Trazado_17411" data-name="Trazado 17411" d="M475.936,331.265a4.615,4.615,0,0,1-2.618-.7,2.907,2.907,0,0,1-1.275-2l1.491-.425a2.091,2.091,0,0,0,.8,1.35,2.592,2.592,0,0,0,1.6.479,3.179,3.179,0,0,0,.935-.128,1.509,1.509,0,0,0,.717-.479,1.285,1.285,0,0,0,.286-.886,1.3,1.3,0,0,0-.079-.4,1.564,1.564,0,0,0-.159-.32.969.969,0,0,0-.277-.268,3.889,3.889,0,0,0-.336-.207,3.309,3.309,0,0,0-.44-.182c-.194-.069-.351-.121-.469-.159s-.3-.089-.543-.159-.432-.123-.563-.162q-.513-.153-1.009-.356a4.538,4.538,0,0,1-.82-.471,1.892,1.892,0,0,1-.638-.766,2.6,2.6,0,0,1-.213-1.086,2.525,2.525,0,0,1,.474-1.552,2.66,2.66,0,0,1,1.231-.914,4.893,4.893,0,0,1,1.724-.282,4.212,4.212,0,0,1,2.367.633,2.693,2.693,0,0,1,1.182,1.9l-1.4.356a1.858,1.858,0,0,0-.741-1.232,2.35,2.35,0,0,0-1.393-.41,2.408,2.408,0,0,0-1.306.341,1.151,1.151,0,0,0-.543,1.044,1.038,1.038,0,0,0,.143.538,1.687,1.687,0,0,0,.292.38,1.789,1.789,0,0,0,.533.292c.258.1.449.172.574.207s.363.1.712.184c.066.019.115.032.148.039.383.1.693.187.934.261a5.911,5.911,0,0,1,.84.356,2.766,2.766,0,0,1,.756.53,2.456,2.456,0,0,1,.474.751,2.649,2.649,0,0,1,.2,1.048,2.851,2.851,0,0,1-.29,1.311,2.305,2.305,0,0,1-.8.894,3.836,3.836,0,0,1-1.132.489A5.5,5.5,0,0,1,475.936,331.265Z"/>
      <path id="Trazado_17412" data-name="Trazado 17412" d="M488.252,321.361h1.71v9.715h-1.641l-.039-1.284a3.037,3.037,0,0,1-1.206,1.092,3.733,3.733,0,0,1-1.7.381,3.381,3.381,0,0,1-2.446-.881,3.28,3.28,0,0,1-.914-2.482V321.36h1.71v6.158a2.3,2.3,0,0,0,.6,1.739,2.117,2.117,0,0,0,1.527.574,2.333,2.333,0,0,0,1.726-.671,2.744,2.744,0,0,0,.676-1.987Z"/>
      <path id="Trazado_17413" data-name="Trazado 17413" d="M503.376,321.172a3.13,3.13,0,0,1,2.264.825,3.065,3.065,0,0,1,.86,2.32v6.76h-1.711v-6.316a2.2,2.2,0,0,0-.535-1.6,1.808,1.808,0,0,0-1.353-.543,1.915,1.915,0,0,0-1.483.612,2.63,2.63,0,0,0-.563,1.839v6.009h-1.739v-6.247a2.288,2.288,0,0,0-.54-1.655,1.826,1.826,0,0,0-1.378-.558,1.9,1.9,0,0,0-1.478.628,2.718,2.718,0,0,0-.569,1.883v5.95h-1.712v-9.715h1.711v1.255a2.954,2.954,0,0,1,1.112-1.068,3.153,3.153,0,0,1,1.547-.376,3.284,3.284,0,0,1,1.66.41,2.532,2.532,0,0,1,1.078,1.183,3.023,3.023,0,0,1,1.167-1.183A3.33,3.33,0,0,1,503.376,321.172Z"/>
      <path id="Trazado_17414" data-name="Trazado 17414" d="M510.68,319.077a1.152,1.152,0,1,1,.807-1.968,1.1,1.1,0,0,1,.341.81,1.121,1.121,0,0,1-.341.817A1.1,1.1,0,0,1,510.68,319.077Zm-.87,12v-9.72h1.721v9.715Z"/>
      <path id="Trazado_17415" data-name="Trazado 17415" d="M522.186,315.894H523.9v15.183h-1.651l-.039-1.888a3.575,3.575,0,0,1-1.383,1.532,3.863,3.863,0,0,1-2.057.564,4.417,4.417,0,0,1-3.207-1.368,4.648,4.648,0,0,1-.978-1.606,5.875,5.875,0,0,1-.361-2.087,5.111,5.111,0,0,1,1.319-3.647,4.259,4.259,0,0,1,3.227-1.4,3.878,3.878,0,0,1,2.031.548,3.6,3.6,0,0,1,1.388,1.488ZM519.123,329.8a2.915,2.915,0,0,0,2.259-1.022,4.014,4.014,0,0,0-.005-5.106,2.9,2.9,0,0,0-2.254-1.028,2.982,2.982,0,0,0-2.274.993,4.1,4.1,0,0,0,0,5.171,2.984,2.984,0,0,0,2.274.989Z"/>
      <path id="Trazado_17416" data-name="Trazado 17416" d="M531.469,331.265a5.11,5.11,0,0,1-2.49-.6,4.389,4.389,0,0,1-1.754-1.765,5.423,5.423,0,0,1-.648-2.683,4.946,4.946,0,0,1,1.378-3.661,5.17,5.17,0,0,1,7.033,0,5.567,5.567,0,0,1-.005,7.332A4.757,4.757,0,0,1,531.469,331.265Zm-.01-1.424a2.991,2.991,0,0,0,2.3-1,4.224,4.224,0,0,0,0-5.248,2.984,2.984,0,0,0-2.3-1,2.934,2.934,0,0,0-2.278,1,4.275,4.275,0,0,0,0,5.248,2.943,2.943,0,0,0,2.277,1Z"/>
      <path id="Trazado_17417" data-name="Trazado 17417" d="M540.709,323.071a2.934,2.934,0,0,1,1.206-1.3,3.628,3.628,0,0,1,1.868-.514v1.611a3.194,3.194,0,0,0-2.259.722,3.019,3.019,0,0,0-.776,2.3v5.189h-1.709v-9.715h1.67Z"/>
      <path id="Trazado_17418" data-name="Trazado 17418" d="M547.293,331.275a1.161,1.161,0,0,1-1.143-1.147,1.168,1.168,0,0,1,1.143-1.147,1.119,1.119,0,0,1,.812.341,1.122,1.122,0,0,1,.005,1.616A1.124,1.124,0,0,1,547.293,331.275Z"/>
    </g>
  </g>
  <g id="Grupo_18081" data-name="Grupo 18081">
    <path id="Trazado_17427" data-name="Trazado 17427" d="M640.163,281.518V267.6h4.488a6.635,6.635,0,0,1,3.544.9,5.473,5.473,0,0,1,2.175,2.446,8.6,8.6,0,0,1,.707,3.6,9.115,9.115,0,0,1-.41,2.812,6.4,6.4,0,0,1-1.2,2.2A5.282,5.282,0,0,1,647.446,281a7.221,7.221,0,0,1-2.794.513Zm1.77-1.611h2.658a4.24,4.24,0,0,0,3.475-1.424,7.147,7.147,0,0,0-.005-7.848,4.243,4.243,0,0,0-3.47-1.424h-2.658Z"/>
    <path id="Trazado_17428" data-name="Trazado 17428" d="M656.314,281.7a3.3,3.3,0,0,1-2.129-.668,2.4,2.4,0,0,1-.835-1.992,2.794,2.794,0,0,1,.266-1.269,2.224,2.224,0,0,1,.791-.886,4.668,4.668,0,0,1,1.141-.548,10.693,10.693,0,0,1,1.478-.351l1.572-.256q.861-.159.86-.9a1.7,1.7,0,0,0-.609-1.447,2.47,2.47,0,0,0-1.537-.459,2.509,2.509,0,0,0-1.522.444,1.862,1.862,0,0,0-.722,1.365l-1.542-.327a2.963,2.963,0,0,1,1.216-2.08,4.537,4.537,0,0,1,2.649-.7,5.393,5.393,0,0,1,1.408.172,3.8,3.8,0,0,1,1.176.545,2.422,2.422,0,0,1,.84,1.048,3.882,3.882,0,0,1,.3,1.6v4.013a1.646,1.646,0,0,0,.223,1.014.966.966,0,0,0,.766.261h.159v1.235h-.85a1.621,1.621,0,0,1-1.839-1.314h-.079A3.713,3.713,0,0,1,656.314,281.7Zm.4-1.385a2.592,2.592,0,0,0,2.085-.938,3.864,3.864,0,0,0,.791-2.571l-2.569.494a3.444,3.444,0,0,0-1.508.54,1.422,1.422,0,0,0-.02,2.129,2.016,2.016,0,0,0,1.217.346Z"/>
    <path id="Trazado_17429" data-name="Trazado 17429" d="M666.348,273.508a2.923,2.923,0,0,1,1.206-1.3,3.623,3.623,0,0,1,1.868-.515V273.3a3.194,3.194,0,0,0-2.259.722,3.016,3.016,0,0,0-.776,2.3v5.189h-1.709V271.8h1.67Z"/>
    <path id="Trazado_17430" data-name="Trazado 17430" d="M678.932,281.7a3.306,3.306,0,0,1-2.131-.668,2.4,2.4,0,0,1-.835-1.992,2.82,2.82,0,0,1,.266-1.269,2.253,2.253,0,0,1,.791-.886,4.693,4.693,0,0,1,1.142-.548,10.517,10.517,0,0,1,1.478-.351l1.571-.256q.861-.159.86-.9a1.7,1.7,0,0,0-.607-1.447,2.47,2.47,0,0,0-1.537-.459,2.512,2.512,0,0,0-1.523.444,1.862,1.862,0,0,0-.722,1.365l-1.542-.327a2.968,2.968,0,0,1,1.216-2.08,4.537,4.537,0,0,1,2.649-.7,5.394,5.394,0,0,1,1.408.172,3.813,3.813,0,0,1,1.177.545,2.422,2.422,0,0,1,.84,1.048,3.915,3.915,0,0,1,.3,1.6v4.013a1.646,1.646,0,0,0,.223,1.014.965.965,0,0,0,.766.261h.159v1.235h-.85a1.622,1.622,0,0,1-1.839-1.314h-.079A3.713,3.713,0,0,1,678.932,281.7Zm.4-1.385a2.592,2.592,0,0,0,2.085-.938,3.864,3.864,0,0,0,.791-2.571l-2.569.494a3.444,3.444,0,0,0-1.508.54,1.25,1.25,0,0,0-.49,1.061,1.237,1.237,0,0,0,.469,1.068,2.014,2.014,0,0,0,1.221.346Z"/>
    <path id="Trazado_17431" data-name="Trazado 17431" d="M696.586,281.692a4.692,4.692,0,0,1-3.48-1.393,5.54,5.54,0,0,1-.005-7.3,5.065,5.065,0,0,1,6.3-.543,4.29,4.29,0,0,1,1.635,2.364l-1.6.256a2.912,2.912,0,0,0-2.859-2.046,2.864,2.864,0,0,0-2.249,1,4.307,4.307,0,0,0,0,5.233,2.876,2.876,0,0,0,2.249.994,2.912,2.912,0,0,0,2.859-2.046l1.6.267a4.307,4.307,0,0,1-1.645,2.358A4.714,4.714,0,0,1,696.586,281.692Z"/>
    <path id="Trazado_17432" data-name="Trazado 17432" d="M707.645,281.7a5.1,5.1,0,0,1-2.49-.6,4.385,4.385,0,0,1-1.755-1.765,5.421,5.421,0,0,1-.648-2.682,4.947,4.947,0,0,1,1.378-3.662,5.17,5.17,0,0,1,7.033,0,5.568,5.568,0,0,1-.005,7.333A4.759,4.759,0,0,1,707.645,281.7Zm-.01-1.424a2.991,2.991,0,0,0,2.3-1,4.224,4.224,0,0,0,0-5.248,2.984,2.984,0,0,0-2.3-1,2.934,2.934,0,0,0-2.277,1,4.275,4.275,0,0,0,0,5.248A2.937,2.937,0,0,0,707.635,280.278Z"/>
    <path id="Trazado_17433" data-name="Trazado 17433" d="M719.8,271.609a3.372,3.372,0,0,1,2.446.88,3.276,3.276,0,0,1,.914,2.48v6.544h-1.709v-6.161a2.29,2.29,0,0,0-.594-1.739,2.111,2.111,0,0,0-1.522-.563,2.353,2.353,0,0,0-1.731.666,2.71,2.71,0,0,0-.681,1.982v5.812h-1.709V271.8h1.709v1.245A3.243,3.243,0,0,1,719.8,271.609Z"/>
    <path id="Trazado_17434" data-name="Trazado 17434" d="M730.558,281.7a5.1,5.1,0,0,1-2.49-.6,4.388,4.388,0,0,1-1.754-1.765,5.416,5.416,0,0,1-.648-2.682,4.947,4.947,0,0,1,1.378-3.662,5.17,5.17,0,0,1,7.033,0,5.568,5.568,0,0,1-.005,7.333A4.761,4.761,0,0,1,730.558,281.7Zm-.01-1.424a2.991,2.991,0,0,0,2.3-1,4.224,4.224,0,0,0,0-5.248,2.984,2.984,0,0,0-2.3-1,2.93,2.93,0,0,0-2.277,1,4.275,4.275,0,0,0,0,5.248A2.937,2.937,0,0,0,730.548,280.278Z"/>
    <path id="Trazado_17435" data-name="Trazado 17435" d="M742.164,281.692a4.684,4.684,0,0,1-3.479-1.393,5.534,5.534,0,0,1-.005-7.3,5.063,5.063,0,0,1,6.3-.543,4.287,4.287,0,0,1,1.636,2.364l-1.6.256a2.913,2.913,0,0,0-2.86-2.046,2.868,2.868,0,0,0-2.249,1,4.314,4.314,0,0,0,0,5.233,2.879,2.879,0,0,0,2.249.994,2.913,2.913,0,0,0,2.86-2.046l1.6.267a4.3,4.3,0,0,1-1.646,2.358A4.707,4.707,0,0,1,742.164,281.692Z"/>
    <path id="Trazado_17436" data-name="Trazado 17436" d="M757.633,276.462l-.02.466h-7.592a3.44,3.44,0,0,0,.93,2.485,3.056,3.056,0,0,0,2.215.865,2.929,2.929,0,0,0,1.611-.464,3.026,3.026,0,0,0,1.107-1.285l1.542.326a4.379,4.379,0,0,1-1.66,2.085,4.549,4.549,0,0,1-2.581.763,4.7,4.7,0,0,1-3.5-1.355,5.772,5.772,0,0,1,.006-7.388,4.63,4.63,0,0,1,3.445-1.355,4.381,4.381,0,0,1,3.267,1.247A4.919,4.919,0,0,1,757.633,276.462Zm-4.5-3.538a3.019,3.019,0,0,0-2.021.687,3.143,3.143,0,0,0-1.024,2h5.824a2.9,2.9,0,0,0-.85-2,2.737,2.737,0,0,0-1.926-.686Z"/>
    <path id="Trazado_17437" data-name="Trazado 17437" d="M761.982,273.508a2.939,2.939,0,0,1,1.206-1.3,3.62,3.62,0,0,1,1.867-.515V273.3a3.2,3.2,0,0,0-2.257.722,3.008,3.008,0,0,0-.776,2.3v5.189h-1.71V271.8h1.67Z"/>
    <path id="Trazado_17438" data-name="Trazado 17438" d="M648.22,300.755l-.02.464h-7.6a3.434,3.434,0,0,0,.93,2.487,3.051,3.051,0,0,0,2.213.865,2.913,2.913,0,0,0,1.611-.466,3.026,3.026,0,0,0,1.108-1.284l1.542.326a4.389,4.389,0,0,1-1.662,2.085,4.54,4.54,0,0,1-2.579.763,4.69,4.69,0,0,1-3.5-1.355,5.77,5.77,0,0,1,0-7.386,4.635,4.635,0,0,1,3.445-1.356,4.39,4.39,0,0,1,3.266,1.245A4.926,4.926,0,0,1,648.22,300.755Zm-4.5-3.539a3.025,3.025,0,0,0-2.023.688,3.146,3.146,0,0,0-1.022,2H646.5a2.886,2.886,0,0,0-.85-2,2.739,2.739,0,0,0-1.925-.688Z"/>
    <path id="Trazado_17439" data-name="Trazado 17439" d="M650.9,305.806V290.623h1.729v15.183Z"/>
    <path id="Trazado_17440" data-name="Trazado 17440" d="M666.5,295.9a4.415,4.415,0,0,1,1.759.356,4.323,4.323,0,0,1,1.443,1,4.665,4.665,0,0,1,.973,1.6,5.893,5.893,0,0,1,.361,2.1,5.146,5.146,0,0,1-1.309,3.668,4.26,4.26,0,0,1-3.227,1.393,3.841,3.841,0,0,1-2.031-.553,3.63,3.63,0,0,1-1.39-1.493v6.733h-1.709V296.1h1.65l.041,1.889a3.56,3.56,0,0,1,1.383-1.518A3.869,3.869,0,0,1,666.5,295.9Zm-.337,8.629a2.952,2.952,0,0,0,2.249-.984,4.134,4.134,0,0,0,0-5.185,3.067,3.067,0,0,0-4.531.044,3.964,3.964,0,0,0,0,5.1,2.963,2.963,0,0,0,2.282,1.023Z"/>
    <path id="Trazado_17441" data-name="Trazado 17441" d="M675.4,297.8a2.923,2.923,0,0,1,1.206-1.3,3.606,3.606,0,0,1,1.865-.523v1.611a3.192,3.192,0,0,0-2.259.722,3.012,3.012,0,0,0-.776,2.3V305.8h-1.709v-9.717h1.67Z"/>
    <path id="Trazado_17442" data-name="Trazado 17442" d="M684.457,305.995a5.129,5.129,0,0,1-2.49-.6,4.376,4.376,0,0,1-1.754-1.765,5.405,5.405,0,0,1-.648-2.684,4.946,4.946,0,0,1,1.378-3.661,5.17,5.17,0,0,1,7.033,0,5.57,5.57,0,0,1-.005,7.334A4.761,4.761,0,0,1,684.457,305.995Zm-.01-1.424a2.991,2.991,0,0,0,2.3-1,4.224,4.224,0,0,0,0-5.248,2.984,2.984,0,0,0-2.3-1,2.934,2.934,0,0,0-2.278,1,4.275,4.275,0,0,0,0,5.248,2.943,2.943,0,0,0,2.279,1Z"/>
    <path id="Trazado_17443" data-name="Trazado 17443" d="M699.2,290.623h1.71v15.183H699.26l-.039-1.888a3.575,3.575,0,0,1-1.383,1.532,3.863,3.863,0,0,1-2.057.563,4.417,4.417,0,0,1-3.207-1.368,4.635,4.635,0,0,1-.979-1.606,5.853,5.853,0,0,1-.361-2.087,5.107,5.107,0,0,1,1.319-3.647,4.249,4.249,0,0,1,3.227-1.4,3.883,3.883,0,0,1,2.031.548,3.6,3.6,0,0,1,1.388,1.488Zm-3.064,13.908a2.917,2.917,0,0,0,2.259-1.022,4.013,4.013,0,0,0,0-5.105,2.9,2.9,0,0,0-2.254-1.029,2.973,2.973,0,0,0-2.274.994,4.094,4.094,0,0,0,0,5.169,2.98,2.98,0,0,0,2.276.992Z"/>
    <path id="Trazado_17444" data-name="Trazado 17444" d="M710.443,296.089h1.711v9.717h-1.641l-.039-1.284a3.037,3.037,0,0,1-1.206,1.092,3.736,3.736,0,0,1-1.7.381,3.381,3.381,0,0,1-2.446-.881,3.285,3.285,0,0,1-.914-2.482v-6.544h1.711v6.159a2.3,2.3,0,0,0,.6,1.739,2.118,2.118,0,0,0,1.528.574,2.328,2.328,0,0,0,1.724-.671,2.733,2.733,0,0,0,.676-1.987Z"/>
    <path id="Trazado_17445" data-name="Trazado 17445" d="M719.666,305.985a4.684,4.684,0,0,1-3.479-1.393,5.534,5.534,0,0,1-.005-7.3,5.063,5.063,0,0,1,6.3-.543,4.3,4.3,0,0,1,1.636,2.362l-1.6.258a2.913,2.913,0,0,0-2.86-2.046,2.868,2.868,0,0,0-2.249,1,4.314,4.314,0,0,0,0,5.233,2.879,2.879,0,0,0,2.249.994,2.913,2.913,0,0,0,2.86-2.046l1.6.267a4.3,4.3,0,0,1-1.646,2.358A4.707,4.707,0,0,1,719.666,305.985Z"/>
    <path id="Trazado_17446" data-name="Trazado 17446" d="M729.738,305.8a2.55,2.55,0,0,1-1.9-.7,2.63,2.63,0,0,1-.692-1.942v-5.714h-1.987v-1.365h.732a1.4,1.4,0,0,0,1.071-.341,1.676,1.676,0,0,0,.312-1.14v-1.76h1.591v3.241H731.1v1.365h-2.235v5.535a1.478,1.478,0,0,0,.371,1.073,1.3,1.3,0,0,0,.973.381h.891V305.8Z"/>
    <path id="Trazado_17447" data-name="Trazado 17447" d="M737.548,305.995a5.136,5.136,0,0,1-2.492-.6,4.4,4.4,0,0,1-1.755-1.765,5.415,5.415,0,0,1-.648-2.684,4.941,4.941,0,0,1,1.38-3.661,5.17,5.17,0,0,1,7.033,0,5.576,5.576,0,0,1-.005,7.334A4.765,4.765,0,0,1,737.548,305.995Zm-.01-1.424a2.983,2.983,0,0,0,2.3-1,4.224,4.224,0,0,0,0-5.248,2.976,2.976,0,0,0-2.3-1,2.94,2.94,0,0,0-2.279,1,4.275,4.275,0,0,0,0,5.248,2.946,2.946,0,0,0,2.279,1Z"/>
    <path id="Trazado_17448" data-name="Trazado 17448" d="M746.2,306a1.139,1.139,0,0,1-.806-1.952,1.1,1.1,0,0,1,.806-.341,1.111,1.111,0,0,1,.81.341,1.122,1.122,0,0,1,.005,1.616A1.123,1.123,0,0,1,746.2,306Z"/>
  </g>
  <g id="Group_56822" data-name="Group 56822">
    <g id="Group_56819" data-name="Group 56819">
      <path id="Trazado_17455" data-name="Trazado 17455" d="M840.962,282.787V268.869h1.77v13.918Z"/>
      <path id="Trazado_17456" data-name="Trazado 17456" d="M851.245,272.883a3.375,3.375,0,0,1,2.448.879,3.282,3.282,0,0,1,.914,2.482v6.544H852.9v-6.159a2.3,2.3,0,0,0-.594-1.739,2.113,2.113,0,0,0-1.522-.564,2.343,2.343,0,0,0-1.729.668,2.7,2.7,0,0,0-.683,1.981v5.813H846.66v-9.717h1.709v1.245A3.246,3.246,0,0,1,851.245,272.883Z"/>
      <path id="Trazado_17457" data-name="Trazado 17457" d="M861.008,282.787a2.558,2.558,0,0,1-1.9-.7,2.642,2.642,0,0,1-.693-1.943v-5.712h-1.986v-1.365h.731a1.4,1.4,0,0,0,1.073-.341,1.683,1.683,0,0,0,.312-1.142v-1.76h1.591v3.242h2.234v1.365h-2.234v5.535a1.478,1.478,0,0,0,.371,1.073,1.3,1.3,0,0,0,.973.38h.889v1.365Z"/>
      <path id="Trazado_17458" data-name="Trazado 17458" d="M873.225,277.736l-.02.464h-7.591a3.438,3.438,0,0,0,.929,2.487,3.056,3.056,0,0,0,2.213.864,2.908,2.908,0,0,0,1.611-.464,3.034,3.034,0,0,0,1.108-1.285l1.542.327a4.389,4.389,0,0,1-1.662,2.085,4.528,4.528,0,0,1-2.579.761,4.7,4.7,0,0,1-3.5-1.355,5.773,5.773,0,0,1,.005-7.388,4.635,4.635,0,0,1,3.445-1.353,4.382,4.382,0,0,1,3.266,1.245A4.91,4.91,0,0,1,873.225,277.736Zm-4.5-3.539a3.033,3.033,0,0,0-2.023.687,3.155,3.155,0,0,0-1.022,2H871.5a2.889,2.889,0,0,0-.849-2,2.743,2.743,0,0,0-1.926-.691Z"/>
      <path id="Trazado_17459" data-name="Trazado 17459" d="M877.574,274.781a2.926,2.926,0,0,1,1.206-1.306,3.613,3.613,0,0,1,1.867-.513v1.611a3.194,3.194,0,0,0-2.259.72,3.02,3.02,0,0,0-.776,2.3v5.189H875.9v-9.717h1.67Z"/>
      <path id="Trazado_17460" data-name="Trazado 17460" d="M886.569,282.964a4.688,4.688,0,0,1-3.48-1.393,5.538,5.538,0,0,1-.005-7.294,5.065,5.065,0,0,1,6.3-.543,4.278,4.278,0,0,1,1.636,2.362l-1.6.256a2.948,2.948,0,0,0-1.1-1.512,2.979,2.979,0,0,0-1.76-.535,2.874,2.874,0,0,0-2.249,1,4.317,4.317,0,0,0,0,5.235,2.886,2.886,0,0,0,2.249.994,2.986,2.986,0,0,0,1.76-.535,2.956,2.956,0,0,0,1.1-1.512l1.6.267a4.292,4.292,0,0,1-1.646,2.357A4.712,4.712,0,0,1,886.569,282.964Z"/>
      <path id="Trazado_17461" data-name="Trazado 17461" d="M895.782,282.974a3.319,3.319,0,0,1-2.13-.666,2.4,2.4,0,0,1-.835-1.992,2.851,2.851,0,0,1,.266-1.27,2.241,2.241,0,0,1,.791-.884,4.735,4.735,0,0,1,1.142-.55,10.586,10.586,0,0,1,1.478-.351l1.571-.256q.861-.158.86-.9a1.7,1.7,0,0,0-.607-1.449,2.483,2.483,0,0,0-1.537-.459,2.518,2.518,0,0,0-1.524.445,1.854,1.854,0,0,0-.72,1.363l-1.543-.326a2.976,2.976,0,0,1,1.216-2.082,4.537,4.537,0,0,1,2.649-.7,5.348,5.348,0,0,1,1.409.174,3.81,3.81,0,0,1,1.177.543,2.434,2.434,0,0,1,.84,1.048,3.883,3.883,0,0,1,.3,1.6v4.012a1.638,1.638,0,0,0,.224,1.014.959.959,0,0,0,.766.262h.159v1.237h-.85a1.622,1.622,0,0,1-1.839-1.316h-.078A3.719,3.719,0,0,1,895.782,282.974Zm.4-1.383a2.591,2.591,0,0,0,2.085-.94,3.859,3.859,0,0,0,.791-2.569l-2.569.494a3.463,3.463,0,0,0-1.508.538,1.254,1.254,0,0,0-.489,1.063,1.241,1.241,0,0,0,.47,1.068A2.013,2.013,0,0,0,896.177,281.591Z"/>
      <path id="Trazado_17462" data-name="Trazado 17462" d="M914.077,272.883a3.13,3.13,0,0,1,2.264.825,3.051,3.051,0,0,1,.86,2.318v6.761h-1.71v-6.316a2.2,2.2,0,0,0-.532-1.6,1.823,1.823,0,0,0-1.355-.543,1.916,1.916,0,0,0-1.483.612,2.636,2.636,0,0,0-.564,1.839v6.011h-1.739v-6.247a2.306,2.306,0,0,0-.538-1.657,1.832,1.832,0,0,0-1.38-.558,1.894,1.894,0,0,0-1.478.628,2.722,2.722,0,0,0-.568,1.882v5.952h-1.709v-9.717h1.709v1.255a2.964,2.964,0,0,1,1.113-1.068,3.18,3.18,0,0,1,1.547-.373,3.289,3.289,0,0,1,1.66.41,2.557,2.557,0,0,1,1.078,1.181,3.009,3.009,0,0,1,1.166-1.181A3.33,3.33,0,0,1,914.077,272.883Z"/>
      <path id="Trazado_17463" data-name="Trazado 17463" d="M925.663,272.883a4.232,4.232,0,0,1,3.213,1.4,5.757,5.757,0,0,1,.013,7.3,4.234,4.234,0,0,1-3.222,1.4,3.919,3.919,0,0,1-2.072-.563,3.582,3.582,0,0,1-1.388-1.532l-.04,1.888h-1.65V267.6h1.7l.01,7.325a3.576,3.576,0,0,1,1.388-1.5A3.89,3.89,0,0,1,925.663,272.883Zm-.375,8.629a2.981,2.981,0,0,0,2.274-.994,4.094,4.094,0,0,0,0-5.169,2.974,2.974,0,0,0-2.274-.994,2.91,2.91,0,0,0-2.255,1.027,4.016,4.016,0,0,0-.005,5.105,2.915,2.915,0,0,0,2.259,1.025Z"/>
      <path id="Trazado_17464" data-name="Trazado 17464" d="M933.749,270.786a1.164,1.164,0,0,1-1.158-1.156,1.1,1.1,0,0,1,.341-.811,1.127,1.127,0,0,1,.817-.336,1.109,1.109,0,0,1,.8.336,1.154,1.154,0,0,1-.8,1.967Zm-.87,12v-9.717H934.6v9.717Z"/>
      <path id="Trazado_17465" data-name="Trazado 17465" d="M940.322,282.974a3.324,3.324,0,0,1-2.13-.666,2.4,2.4,0,0,1-.835-1.992,2.823,2.823,0,0,1,.268-1.27,2.214,2.214,0,0,1,.789-.884,4.718,4.718,0,0,1,1.142-.55,10.584,10.584,0,0,1,1.478-.351l1.572-.256q.858-.158.859-.9a1.7,1.7,0,0,0-.607-1.449,2.476,2.476,0,0,0-1.537-.459,2.51,2.51,0,0,0-1.522.445,1.851,1.851,0,0,0-.722,1.363l-1.542-.326a2.973,2.973,0,0,1,1.214-2.082,4.543,4.543,0,0,1,2.65-.7,5.353,5.353,0,0,1,1.409.174,3.792,3.792,0,0,1,1.176.543,2.434,2.434,0,0,1,.84,1.048,3.883,3.883,0,0,1,.3,1.6v4.012a1.644,1.644,0,0,0,.223,1.014.96.96,0,0,0,.766.262h.157v1.237h-.849a1.621,1.621,0,0,1-1.839-1.316H943.5A3.716,3.716,0,0,1,940.322,282.974Zm.4-1.383a2.6,2.6,0,0,0,2.085-.94,3.871,3.871,0,0,0,.791-2.569l-2.571.494a3.45,3.45,0,0,0-1.506.538,1.425,1.425,0,0,0-.02,2.131,2.018,2.018,0,0,0,1.217.346Z"/>
      <path id="Trazado_17466" data-name="Trazado 17466" d="M950.354,274.781a2.937,2.937,0,0,1,1.206-1.306,3.618,3.618,0,0,1,1.869-.513v1.611a3.2,3.2,0,0,0-2.259.72,3.016,3.016,0,0,0-.776,2.3v5.189h-1.711v-9.717h1.67Z"/>
    </g>
    <g id="Group_56820" data-name="Group 56820">
      <path id="Trazado_17467" data-name="Trazado 17467" d="M849.017,302.028l-.021.464h-7.591a3.444,3.444,0,0,0,.93,2.487,3.062,3.062,0,0,0,2.215.864,2.927,2.927,0,0,0,1.611-.464,3.021,3.021,0,0,0,1.107-1.286l1.542.326a4.384,4.384,0,0,1-1.66,2.087,4.535,4.535,0,0,1-2.581.761,4.7,4.7,0,0,1-3.5-1.355,5.773,5.773,0,0,1,.005-7.388,4.635,4.635,0,0,1,3.445-1.353,4.387,4.387,0,0,1,3.268,1.245A4.918,4.918,0,0,1,849.017,302.028Zm-4.5-3.539a3.029,3.029,0,0,0-2.021.687,3.153,3.153,0,0,0-1.024,2h5.823a2.9,2.9,0,0,0-.85-2,2.747,2.747,0,0,0-1.926-.691Z"/>
      <path id="Trazado_17468" data-name="Trazado 17468" d="M851.7,307.08V291.9h1.729V307.08Z"/>
      <path id="Trazado_17469" data-name="Trazado 17469" d="M867.294,297.175a4.415,4.415,0,0,1,1.76.354,4.331,4.331,0,0,1,1.444,1,4.668,4.668,0,0,1,.974,1.6,5.9,5.9,0,0,1,.361,2.1,5.135,5.135,0,0,1-1.311,3.668,4.258,4.258,0,0,1-3.227,1.393,3.864,3.864,0,0,1-2.031-.553,3.633,3.633,0,0,1-1.388-1.493v6.731h-1.715V297.366h1.651l.039,1.888a3.551,3.551,0,0,1,1.383-1.517A3.876,3.876,0,0,1,867.294,297.175Zm-.336,8.629a2.958,2.958,0,0,0,2.249-.984,4.134,4.134,0,0,0,0-5.185,3.065,3.065,0,0,0-4.533.044,3.967,3.967,0,0,0,0,5.1,2.97,2.97,0,0,0,2.287,1.025Z"/>
      <path id="Trazado_17470" data-name="Trazado 17470" d="M876.2,299.073a2.939,2.939,0,0,1,1.207-1.306,3.63,3.63,0,0,1,1.869-.515v1.613a3.194,3.194,0,0,0-2.259.72,3.011,3.011,0,0,0-.776,2.3v5.191h-1.711v-9.717h1.67Z"/>
      <path id="Trazado_17471" data-name="Trazado 17471" d="M885.255,307.267a5.14,5.14,0,0,1-2.492-.6,4.4,4.4,0,0,1-1.754-1.765,5.427,5.427,0,0,1-.648-2.684,4.955,4.955,0,0,1,1.38-3.663,5.175,5.175,0,0,1,7.032,0,5.574,5.574,0,0,1,0,7.336A4.76,4.76,0,0,1,885.255,307.267Zm-.01-1.424a2.981,2.981,0,0,0,2.3-1,4.224,4.224,0,0,0,0-5.248,2.981,2.981,0,0,0-2.3-1,2.944,2.944,0,0,0-2.279,1,4.275,4.275,0,0,0,0,5.248,2.947,2.947,0,0,0,2.279,1Z"/>
      <path id="Trazado_17472" data-name="Trazado 17472" d="M900,291.9h1.709V307.08h-1.65l-.041-1.888a3.575,3.575,0,0,1-1.383,1.532,3.862,3.862,0,0,1-2.057.563,4.413,4.413,0,0,1-3.207-1.37,4.687,4.687,0,0,1-.978-1.606,5.866,5.866,0,0,1-.361-2.085,5.112,5.112,0,0,1,1.319-3.647,4.259,4.259,0,0,1,3.227-1.4,3.859,3.859,0,0,1,2.031.548,3.581,3.581,0,0,1,1.39,1.488ZM896.939,305.8a2.9,2.9,0,0,0,2.259-1.024,4.016,4.016,0,0,0-.005-5.105,2.906,2.906,0,0,0-2.254-1.027,2.97,2.97,0,0,0-2.272.992,4.1,4.1,0,0,0,0,5.17,2.975,2.975,0,0,0,2.271.994Z"/>
      <path id="Trazado_17473" data-name="Trazado 17473" d="M911.242,297.362h1.711v9.717h-1.646l-.04-1.286a3.026,3.026,0,0,1-1.2,1.091,3.707,3.707,0,0,1-1.7.381,3.381,3.381,0,0,1-2.446-.881,3.279,3.279,0,0,1-.914-2.48v-6.542h1.709v6.158a2.309,2.309,0,0,0,.6,1.741,2.126,2.126,0,0,0,1.527.572,2.319,2.319,0,0,0,1.724-.671,2.73,2.73,0,0,0,.678-1.987Z"/>
      <path id="Trazado_17474" data-name="Trazado 17474" d="M920.464,307.256a4.688,4.688,0,0,1-3.48-1.393,5.538,5.538,0,0,1-.005-7.294,5.067,5.067,0,0,1,6.3-.544,4.277,4.277,0,0,1,1.635,2.363l-1.6.256a2.948,2.948,0,0,0-1.1-1.512,2.986,2.986,0,0,0-1.76-.535,2.874,2.874,0,0,0-2.249,1,4.309,4.309,0,0,0,0,5.235,2.885,2.885,0,0,0,2.249.994,2.993,2.993,0,0,0,1.76-.535,2.956,2.956,0,0,0,1.1-1.512l1.6.267a4.281,4.281,0,0,1-1.645,2.357A4.713,4.713,0,0,1,920.464,307.256Z"/>
      <path id="Trazado_17475" data-name="Trazado 17475" d="M930.54,307.079a2.565,2.565,0,0,1-1.9-.7,2.646,2.646,0,0,1-.692-1.943v-5.714h-1.987v-1.363h.732a1.414,1.414,0,0,0,1.073-.341,1.681,1.681,0,0,0,.31-1.142v-1.76h1.593v3.242H931.9v1.363h-2.234v5.537a1.482,1.482,0,0,0,.369,1.071,1.3,1.3,0,0,0,.975.381h.889v1.365Z"/>
      <path id="Trazado_17476" data-name="Trazado 17476" d="M938.344,307.267a5.132,5.132,0,0,1-2.49-.6A4.41,4.41,0,0,1,934.1,304.9a5.427,5.427,0,0,1-.648-2.684,4.946,4.946,0,0,1,1.379-3.663,5.176,5.176,0,0,1,7.033,0,5.572,5.572,0,0,1-.005,7.336A4.761,4.761,0,0,1,938.344,307.267Zm-.01-1.424a2.987,2.987,0,0,0,2.3-1,4.224,4.224,0,0,0,0-5.248,2.987,2.987,0,0,0-2.3-1,2.94,2.94,0,0,0-2.277,1,4.275,4.275,0,0,0,0,5.248,2.94,2.94,0,0,0,2.277,1Z"/>
    </g>
    <g id="Group_56821" data-name="Group 56821">
      <path id="Trazado_17477" data-name="Trazado 17477" d="M844.586,331.253a4.677,4.677,0,0,1-3.479-1.393,5.532,5.532,0,0,1-.005-7.294,5.065,5.065,0,0,1,6.3-.544,4.284,4.284,0,0,1,1.636,2.363l-1.6.256a2.918,2.918,0,0,0-2.859-2.047,2.874,2.874,0,0,0-2.249,1,4.317,4.317,0,0,0,0,5.235,2.889,2.889,0,0,0,2.249.994,2.918,2.918,0,0,0,2.859-2.047l1.6.267a4.291,4.291,0,0,1-1.646,2.357A4.706,4.706,0,0,1,844.586,331.253Z"/>
      <path id="Trazado_17478" data-name="Trazado 17478" d="M855.647,331.264a5.139,5.139,0,0,1-2.492-.6A4.41,4.41,0,0,1,851.4,328.9a5.443,5.443,0,0,1-.646-2.683,4.949,4.949,0,0,1,1.378-3.663,5.176,5.176,0,0,1,7.033,0,5.578,5.578,0,0,1-.005,7.336A4.76,4.76,0,0,1,855.647,331.264Zm-.01-1.424a2.981,2.981,0,0,0,2.3-1,4.224,4.224,0,0,0,0-5.248,2.981,2.981,0,0,0-2.3-1,2.943,2.943,0,0,0-2.278,1,4.253,4.253,0,0,0,0,5.248,2.942,2.942,0,0,0,2.282,1Z"/>
      <path id="Trazado_17479" data-name="Trazado 17479" d="M867.8,321.172a3.375,3.375,0,0,1,2.447.879,3.275,3.275,0,0,1,.914,2.482v6.544h-1.709v-6.159a2.3,2.3,0,0,0-.594-1.739,2.113,2.113,0,0,0-1.522-.563,2.35,2.35,0,0,0-1.731.668,2.71,2.71,0,0,0-.681,1.981v5.813h-1.713v-9.717h1.711v1.244A3.244,3.244,0,0,1,867.8,321.172Z"/>
      <path id="Trazado_17480" data-name="Trazado 17480" d="M886.9,315.894h1.711v15.183h-1.651l-.039-1.888a3.593,3.593,0,0,1-1.383,1.532,3.881,3.881,0,0,1-2.057.563,4.409,4.409,0,0,1-3.207-1.37,4.648,4.648,0,0,1-.978-1.606,5.864,5.864,0,0,1-.361-2.085,5.106,5.106,0,0,1,1.319-3.647,4.252,4.252,0,0,1,3.227-1.4,3.859,3.859,0,0,1,2.031.548,3.576,3.576,0,0,1,1.388,1.488ZM883.838,329.8a2.912,2.912,0,0,0,2.259-1.024,4.013,4.013,0,0,0-.005-5.105,2.9,2.9,0,0,0-2.254-1.027,2.977,2.977,0,0,0-2.274.992,4.1,4.1,0,0,0,0,5.17,2.986,2.986,0,0,0,2.274.994Z"/>
      <path id="Trazado_17481" data-name="Trazado 17481" d="M892.958,319.075a1.15,1.15,0,0,1-.815-1.967,1.145,1.145,0,0,1,1.621,0,1.1,1.1,0,0,1,.341.811,1.117,1.117,0,0,1-.341.815A1.1,1.1,0,0,1,892.958,319.075Zm-.869,12v-9.717h1.719v9.717Z"/>
      <path id="Trazado_17482" data-name="Trazado 17482" d="M901.877,321.172a3.371,3.371,0,0,1,2.446.879,3.275,3.275,0,0,1,.914,2.482v6.544h-1.709v-6.159a2.291,2.291,0,0,0-.594-1.739,2.109,2.109,0,0,0-1.522-.563,2.341,2.341,0,0,0-1.729.668,2.7,2.7,0,0,0-.683,1.981v5.813h-1.708v-9.717H899v1.244A3.245,3.245,0,0,1,901.877,321.172Z"/>
      <path id="Trazado_17483" data-name="Trazado 17483" d="M917.042,326.025l-.02.464h-7.591a3.429,3.429,0,0,0,.929,2.487,3.056,3.056,0,0,0,2.213.864,2.927,2.927,0,0,0,1.611-.464,3.022,3.022,0,0,0,1.107-1.286l1.543.326a4.407,4.407,0,0,1-1.661,2.087,4.528,4.528,0,0,1-2.579.761,4.7,4.7,0,0,1-3.5-1.355,5.773,5.773,0,0,1,.005-7.388,4.635,4.635,0,0,1,3.445-1.353,4.382,4.382,0,0,1,3.266,1.245A4.919,4.919,0,0,1,917.042,326.025Zm-4.5-3.539a3.033,3.033,0,0,0-2.023.687,3.155,3.155,0,0,0-1.022,2h5.822a2.885,2.885,0,0,0-.85-2,2.745,2.745,0,0,0-1.925-.691Z"/>
      <path id="Trazado_17484" data-name="Trazado 17484" d="M921.391,323.07a2.927,2.927,0,0,1,1.206-1.306,3.625,3.625,0,0,1,1.867-.515v1.613a3.194,3.194,0,0,0-2.259.72,3.006,3.006,0,0,0-.776,2.3v5.192h-1.71v-9.718h1.672Z"/>
      <path id="Trazado_17485" data-name="Trazado 17485" d="M930.445,331.264a5.151,5.151,0,0,1-2.492-.6A4.41,4.41,0,0,1,926.2,328.9a5.42,5.42,0,0,1-.648-2.683,4.951,4.951,0,0,1,1.38-3.663,5.176,5.176,0,0,1,7.033,0,5.578,5.578,0,0,1-.005,7.336A4.76,4.76,0,0,1,930.445,331.264Zm-.01-1.424a2.981,2.981,0,0,0,2.3-1,4.224,4.224,0,0,0,0-5.248,2.981,2.981,0,0,0-2.3-1,2.944,2.944,0,0,0-2.279,1,4.275,4.275,0,0,0,0,5.248,2.947,2.947,0,0,0,2.279,1Z"/>
      <path id="Trazado_17486" data-name="Trazado 17486" d="M939.095,331.274a1.118,1.118,0,0,1-.807-.336,1.141,1.141,0,1,1,1.617-1.611,1.085,1.085,0,0,1,.346.8,1.1,1.1,0,0,1-.341.811A1.127,1.127,0,0,1,939.095,331.274Z"/>
    </g>
  </g>
  <g id="Group_56823" data-name="Group 56823">
    <path id="Path_32382" data-name="Path 32382" d="M106.652,258.005a1,1,0,0,1-1-1V211a1,1,0,1,1,2,0v46A1,1,0,0,1,106.652,258.005Z" fill="#a3121d"/>
  </g>
  <g id="Trazado_17291-2" data-name="Trazado 17291">
    <path id="Path_32383" data-name="Path 32383" d="M307.455,201.413a1,1,0,0,1-.5-.134l-75.348-43.5a1,1,0,0,1-.5-.866v-87a1,1,0,0,1,.5-.866l75.349-43.5a1,1,0,0,1,1,0l75.347,43.5a1,1,0,0,1,.5.866v87a1,1,0,0,1-.5.866l-75.348,43.5A1,1,0,0,1,307.455,201.413Zm-74.348-45.08,74.348,42.925L381.8,156.333V70.484L307.456,27.561,233.107,70.484Z" fill="#7d1538"/>
  </g>
  <g id="Group_56824" data-name="Group 56824">
    <path id="Path_32384" data-name="Path 32384" d="M307.455,258.005a1,1,0,0,1-1-1V211a1,1,0,1,1,2,0v46A1,1,0,0,1,307.455,258.005Z" fill="#7d1538"/>
  </g>
  <g id="Trazado_17291-3" data-name="Trazado 17291">
    <path id="Path_32385" data-name="Path 32385" d="M508.257,201.413a1,1,0,0,1-.5-.134l-75.348-43.5a1,1,0,0,1-.5-.866v-87a1,1,0,0,1,.5-.866l75.35-43.5a1,1,0,0,1,1,0l75.346,43.5a1,1,0,0,1,.5.866v87a1,1,0,0,1-.5.866l-75.348,43.5A1,1,0,0,1,508.257,201.413Zm-74.348-45.08,74.348,42.925L582.6,156.333V70.484L508.259,27.561l-74.35,42.923Z" fill="#c74653"/>
  </g>
  <g id="Group_56825" data-name="Group 56825">
    <path id="Path_32386" data-name="Path 32386" d="M508.257,258.005a1,1,0,0,1-1-1V211a1,1,0,1,1,2,0v46A1,1,0,0,1,508.257,258.005Z" fill="#c74653"/>
  </g>
  <g id="Trazado_17291-4" data-name="Trazado 17291">
    <path id="Path_32387" data-name="Path 32387" d="M708.921,201.413a.989.989,0,0,1-.5-.136L633.174,157.6a1,1,0,0,1-.5-.867l.206-87a1,1,0,0,1,.5-.865l75.452-43.322a1,1,0,0,1,1,0L785.079,69.22a1,1,0,0,1,.5.867l-.206,87a1,1,0,0,1-.5.865l-75.45,43.324A1,1,0,0,1,708.921,201.413Zm-74.244-45.256,74.247,43.1,74.448-42.749.2-85.849-74.245-43.1-74.45,42.747Z" fill="#ee8d3f"/>
  </g>
  <g id="Group_56826" data-name="Group 56826">
    <path id="Path_32388" data-name="Path 32388" d="M708.787,258h0a1,1,0,0,1-1-1l.109-46a1,1,0,0,1,1-1h0a1,1,0,0,1,1,1l-.109,46A1,1,0,0,1,708.787,258Z" fill="#ee8d3f"/>
  </g>
  <g id="Trazado_17291-5" data-name="Trazado 17291">
    <path id="Path_32389" data-name="Path 32389" d="M909.658,201.413a.992.992,0,0,1-.5-.136L833.911,157.6a1,1,0,0,1-.5-.867l.206-87a1,1,0,0,1,.5-.865l75.452-43.322a1,1,0,0,1,1,0L985.816,69.22a1,1,0,0,1,.5.867l-.206,87a1,1,0,0,1-.5.865l-75.45,43.324A1,1,0,0,1,909.658,201.413Zm-74.244-45.256,74.247,43.1,74.448-42.749.2-85.849-74.245-43.1-74.45,42.747Z" fill="#f0c068"/>
  </g>
  <g id="Group_56827" data-name="Group 56827">
    <path id="Path_32390" data-name="Path 32390" d="M909.81,258h0a1,1,0,0,1-1-1l.108-46a1,1,0,0,1,1-1h0a1,1,0,0,1,1,1l-.108,46A1,1,0,0,1,909.81,258Z" fill="#f0c068"/>
  </g>
  <rect id="Rectangle_6823" data-name="Rectangle 6823" width="1008" height="42" transform="translate(0 92)" fill="#f6f6f6"/>
  <path id="Trazado_17291-6" data-name="Trazado 17291" d="M36.518,72.917V153.9l70.134,40.492L176.787,153.9V72.917L106.653,32.426Z" fill="#a3121d" fill-rule="evenodd"/>
  <g id="Grupo_18074" data-name="Grupo 18074">
    <path id="Trazado_17296" data-name="Trazado 17296" d="M68.084,119.818V104.025H73.8a8.912,8.912,0,0,1,3.3.569,6.078,6.078,0,0,1,2.362,1.612,7.03,7.03,0,0,1,1.4,2.487,11.194,11.194,0,0,1,0,6.459,7.022,7.022,0,0,1-1.4,2.487,6.067,6.067,0,0,1-2.362,1.612,8.912,8.912,0,0,1-3.3.569Zm3.279-2.9h2.275a3.877,3.877,0,0,0,3.189-1.283,7.114,7.114,0,0,0,0-7.443,3.873,3.873,0,0,0-3.189-1.284H71.363Z" fill="#fff"/>
    <path id="Trazado_17297" data-name="Trazado 17297" d="M85.593,106.9a1.77,1.77,0,0,1-1.29-.53,1.74,1.74,0,0,1-.535-1.284,1.721,1.721,0,0,1,.54-1.273,1.778,1.778,0,0,1,1.285-.53,1.74,1.74,0,0,1,1.266.53,1.809,1.809,0,0,1-1.266,3.087Zm-1.608,12.918V108.582h3.172v11.235Z" fill="#fff"/>
    <path id="Trazado_17298" data-name="Trazado 17298" d="M94.369,120.035a6.263,6.263,0,0,1-3.28-.788,3.315,3.315,0,0,1-1.606-2.338l2.633-.742a2.117,2.117,0,0,0,2.252,1.672,2.328,2.328,0,0,0,1.146-.256.891.891,0,0,0,.442-.869.925.925,0,0,0-.184-.58,1.474,1.474,0,0,0-.575-.415,7.02,7.02,0,0,0-.765-.295c-.252-.081-.586-.177-1-.291s-.761-.221-1.04-.323a6.814,6.814,0,0,1-.988-.42,4.2,4.2,0,0,1-.821-.579,2.364,2.364,0,0,1-.611-.879,3.191,3.191,0,0,1-.212-1.2,2.871,2.871,0,0,1,1.216-2.514,5.45,5.45,0,0,1,3.189-.851,5.562,5.562,0,0,1,2.94.722,3.262,3.262,0,0,1,1.509,2.251l-2.433.546a1.909,1.909,0,0,0-2-1.421,2.2,2.2,0,0,0-1.1.252.81.81,0,0,0-.437.744.869.869,0,0,0,.065.338.694.694,0,0,0,.23.274,3.242,3.242,0,0,0,.317.206,2.419,2.419,0,0,0,.448.182c.2.062.362.11.492.141l.575.147.584.153c.4.11.752.221,1.056.332a5.966,5.966,0,0,1,.966.458,3.474,3.474,0,0,1,.847.664,2.96,2.96,0,0,1,.553.929A3.424,3.424,0,0,1,99,116.533a3.379,3.379,0,0,1-.377,1.629,2.823,2.823,0,0,1-1.034,1.1,5.028,5.028,0,0,1-1.458.591A7.61,7.61,0,0,1,94.369,120.035Z" fill="#fff"/>
    <path id="Trazado_17299" data-name="Trazado 17299" d="M111.821,114.035l-.032.756h-8.326a2.91,2.91,0,0,0,.9,2.053,2.869,2.869,0,0,0,1.979.711,2.772,2.772,0,0,0,1.481-.388,2.407,2.407,0,0,0,.946-1.13l2.884.425a4.9,4.9,0,0,1-1.966,2.634,5.853,5.853,0,0,1-3.317.94,6.081,6.081,0,0,1-4.377-1.548,6.471,6.471,0,0,1,0-8.578,5.9,5.9,0,0,1,4.274-1.569,5.131,5.131,0,0,1,5.554,5.694Zm-5.539-3.463a2.486,2.486,0,0,0-2.732,2.163h5.158a2.359,2.359,0,0,0-.774-1.606,2.459,2.459,0,0,0-1.652-.562Z" fill="#fff"/>
    <path id="Trazado_17300" data-name="Trazado 17300" d="M120.85,108.364a4.376,4.376,0,0,1,3.1,1.01,3.751,3.751,0,0,1,1.083,2.875v7.563h-3.158v-6.877a1.953,1.953,0,0,0-.563-1.548,2.118,2.118,0,0,0-1.447-.492,2.941,2.941,0,0,0-.94.142,2.448,2.448,0,0,0-.787.442,1.969,1.969,0,0,0-.564.849,3.942,3.942,0,0,0-.212,1.3v6.191h-3.149V108.586h3.149v1.246A4.323,4.323,0,0,1,120.85,108.364Zm-2.459-2.787a.62.62,0,0,0-.57.383,2.249,2.249,0,0,0-.195,1.016h-1.5a3.352,3.352,0,0,1,.594-2.065,1.909,1.909,0,0,1,1.612-.8,2.136,2.136,0,0,1,1.914,1.127.769.769,0,0,0,.655.414q.732,0,.733-1.4h1.509a3.416,3.416,0,0,1-.586,2.061,1.892,1.892,0,0,1-1.623.8A2.183,2.183,0,0,1,119.012,106a.761.761,0,0,0-.619-.427Z" fill="#fff"/>
    <path id="Trazado_17301" data-name="Trazado 17301" d="M137.3,116.766a10.47,10.47,0,0,0,.275,2.744v.306h-2.94l-.252-1.224a3.646,3.646,0,0,1-1.575,1.081,5.8,5.8,0,0,1-2.033.361,5.263,5.263,0,0,1-1.048-.1,3.57,3.57,0,0,1-.946-.331,2.894,2.894,0,0,1-.781-.586,2.564,2.564,0,0,1-.524-.885,3.568,3.568,0,0,1-.2-1.216,3.319,3.319,0,0,1,.209-1.216,2.849,2.849,0,0,1,.546-.913,3.353,3.353,0,0,1,.884-.663,6.876,6.876,0,0,1,1.116-.48,13.012,13.012,0,0,1,1.334-.35l1.846-.416a2.017,2.017,0,0,0,.836-.354.706.706,0,0,0,.246-.564,1.161,1.161,0,0,0-.552-1.081,2.582,2.582,0,0,0-1.339-.332,1.926,1.926,0,0,0-2.185,1.625c0,.03-.008.061-.011.091l-2.786-.5a3.775,3.775,0,0,1,1.628-2.563,6.465,6.465,0,0,1,3.529-.825q4.724,0,4.722,4.055Zm-5.539,1.138a2.534,2.534,0,0,0,1.945-.815,3.434,3.434,0,0,0,.754-2.41l-2.668.754a3.148,3.148,0,0,0-1.119.461.942.942,0,0,0-.388.807,1.05,1.05,0,0,0,.415.891,1.726,1.726,0,0,0,1.061.313Z" fill="#fff"/>
    <path id="Trazado_17302" data-name="Trazado 17302" d="M143.373,110.365a3.636,3.636,0,0,1,1.475-1.35,4.5,4.5,0,0,1,2.2-.563v2.809a4.26,4.26,0,0,0-2.688.677,2.958,2.958,0,0,0-.831,2.4v5.476h-3.169V108.584h3.016Z" fill="#fff"/>
  </g>
  <rect id="Rectangle_6824" data-name="Rectangle 6824" width="30" height="12" transform="translate(207 107)" fill="#7d1538"/>
  <path id="Path_32391" data-name="Path 32391" d="M222.374,113,205,96.763v32.474Z" fill="#f6f6f6"/>
  <rect id="Rectangle_6825" data-name="Rectangle 6825" width="40" height="16" transform="translate(165 105)" fill="#a3121d"/>
  <path id="Path_32392" data-name="Path 32392" d="M218.374,113,201,96.763v32.474Z" fill="#a3121d"/>
  <rect id="Rectangle_6826" data-name="Rectangle 6826" width="30" height="12" transform="translate(408 107)" fill="#c74653"/>
  <path id="Path_32393" data-name="Path 32393" d="M423.374,113,406,96.763v32.474Z" fill="#f6f6f6"/>
  <rect id="Rectangle_6827" data-name="Rectangle 6827" width="40" height="16" transform="translate(366 105)" fill="#7d1538"/>
  <path id="Path_32394" data-name="Path 32394" d="M419.374,113,402,96.763v32.474Z" fill="#7d1538"/>
  <rect id="Rectangle_6828" data-name="Rectangle 6828" width="30" height="12" transform="translate(609 107)" fill="#ee8d3f"/>
  <path id="Path_32395" data-name="Path 32395" d="M624.374,113,607,96.763v32.474Z" fill="#f6f6f6"/>
  <rect id="Rectangle_6829" data-name="Rectangle 6829" width="40" height="16" transform="translate(567 105)" fill="#c74653"/>
  <path id="Path_32396" data-name="Path 32396" d="M620.374,113,603,96.763v32.474Z" fill="#c74653"/>
  <rect id="Rectangle_6830" data-name="Rectangle 6830" width="30" height="12" transform="translate(810 107)" fill="#f0c068"/>
  <path id="Path_32397" data-name="Path 32397" d="M825.374,113,808,96.763v32.474Z" fill="#f6f6f6"/>
  <rect id="Rectangle_6831" data-name="Rectangle 6831" width="40" height="16" transform="translate(768 105)" fill="#ee8d3f"/>
  <path id="Path_32398" data-name="Path 32398" d="M821.374,113,804,96.763v32.474Z" fill="#ee8d3f"/>
  <g id="Group_56828" data-name="Group 56828">
    <path id="Trazado_17293" data-name="Trazado 17293" d="M438.123,72.917V153.9l70.134,40.492L578.392,153.9V72.917L508.257,32.425Z" fill="#c74653" fill-rule="evenodd"/>
    <g id="Grupo_18078" data-name="Grupo 18078">
      <path id="Trazado_17371" data-name="Trazado 17371" d="M476.312,120.034a8.564,8.564,0,0,1-4.149-.995,7.169,7.169,0,0,1-2.874-2.846,9.292,9.292,0,0,1,0-8.574,7.136,7.136,0,0,1,2.874-2.835,9.212,9.212,0,0,1,8.289,0,7.139,7.139,0,0,1,2.875,2.835,9.284,9.284,0,0,1,0,8.574,7.153,7.153,0,0,1-2.875,2.846A8.53,8.53,0,0,1,476.312,120.034Zm-3.454-4.388a5.006,5.006,0,0,0,6.907,0,5.793,5.793,0,0,0,0-7.449,5.022,5.022,0,0,0-6.907,0,5.794,5.794,0,0,0,0,7.45Z" fill="#fff"/>
      <path id="Trazado_17372" data-name="Trazado 17372" d="M493.316,105.543h-.065c-.205,0-.36,0-.464,0s-.255.017-.45.038a1.888,1.888,0,0,0-.453.1,2.4,2.4,0,0,0-.377.2.992.992,0,0,0-.332.331,2.036,2.036,0,0,0-.2.487,2.573,2.573,0,0,0-.082.677v1.2h2.416V111H490.9v8.819h-3.136V111h-2.2v-2.416h2.2v-1.216a6.673,6.673,0,0,1,.141-1.437,4.413,4.413,0,0,1,.383-1.088,2.559,2.559,0,0,1,.64-.782,3.782,3.782,0,0,1,.831-.524,4.667,4.667,0,0,1,1.032-.317,9.1,9.1,0,0,1,1.186-.158q.585-.039,1.339-.039Z" fill="#fff"/>
      <path id="Trazado_17373" data-name="Trazado 17373" d="M498.114,110.362a3.663,3.663,0,0,1,1.475-1.35,4.5,4.5,0,0,1,2.2-.561v2.807a4.261,4.261,0,0,0-2.69.679,2.96,2.96,0,0,0-.831,2.4v5.475H495.1V108.581h3.016Z" fill="#fff"/>
      <path id="Trazado_17374" data-name="Trazado 17374" d="M514.136,114.032l-.033.754h-8.328a2.912,2.912,0,0,0,.9,2.055,2.862,2.862,0,0,0,1.977.709,2.754,2.754,0,0,0,1.481-.388,2.364,2.364,0,0,0,.945-1.13l2.886.427a4.9,4.9,0,0,1-1.968,2.633,5.837,5.837,0,0,1-3.317.94,6.078,6.078,0,0,1-4.376-1.548,6.468,6.468,0,0,1,0-8.577,5.9,5.9,0,0,1,4.274-1.569,5.14,5.14,0,0,1,5.557,5.694Zm-5.542-3.465a2.489,2.489,0,0,0-2.733,2.164h5.159a2.367,2.367,0,0,0-.774-1.607,2.459,2.459,0,0,0-1.652-.554Z" fill="#fff"/>
      <path id="Trazado_17375" data-name="Trazado 17375" d="M521.611,120.025a6,6,0,0,1-4.338-1.618,6.134,6.134,0,0,1-.005-8.438,6.671,6.671,0,0,1,7.983-.526,4.837,4.837,0,0,1,1.88,3.05l-2.908.317a2.5,2.5,0,0,0-.94-1.477,2.864,2.864,0,0,0-1.705-.491,2.572,2.572,0,0,0-2.053.918,4.126,4.126,0,0,0,0,4.848,2.567,2.567,0,0,0,2.053.923,2.829,2.829,0,0,0,1.7-.492,2.546,2.546,0,0,0,.946-1.475l2.908.318a4.86,4.86,0,0,1-1.9,3.049A5.973,5.973,0,0,1,521.611,120.025Z" fill="#fff"/>
      <path id="Trazado_17376" data-name="Trazado 17376" d="M539.939,114.032l-.033.754h-8.327a2.914,2.914,0,0,0,.9,2.055,2.864,2.864,0,0,0,1.977.709,2.754,2.754,0,0,0,1.481-.388,2.369,2.369,0,0,0,.945-1.13l2.886.427a4.907,4.907,0,0,1-1.968,2.633,5.837,5.837,0,0,1-3.317.94,6.081,6.081,0,0,1-4.377-1.548,6.467,6.467,0,0,1,.005-8.577,5.9,5.9,0,0,1,4.273-1.569,5.142,5.142,0,0,1,5.559,5.694Zm-5.541-3.465a2.489,2.489,0,0,0-2.732,2.164h5.159a2.367,2.367,0,0,0-.774-1.607,2.464,2.464,0,0,0-1.653-.554Z" fill="#fff"/>
      <path id="Trazado_17377" data-name="Trazado 17377" d="M545.348,110.362a3.67,3.67,0,0,1,1.475-1.35,4.5,4.5,0,0,1,2.2-.561v2.807a4.243,4.243,0,0,0-2.688.679,2.952,2.952,0,0,0-.832,2.4v5.475h-3.169V108.581h3.016Z" fill="#fff"/>
    </g>
  </g>
  <g id="Group_56829" data-name="Group 56829">
    <path id="Trazado_17294" data-name="Trazado 17294" d="M639.088,72.752l-.191,80.984,70.038,40.657,70.23-40.326.192-80.984L709.318,32.426Z" fill="#ee8d3f" fill-rule="evenodd"/>
    <g id="Grupo_18080" data-name="Grupo 18080">
      <path id="Trazado_17419" data-name="Trazado 17419" d="M672.746,119.731l-1.14-3.259-6.634-.016-1.154,3.253-3.356-.007,5.851-15.78,4.012.01,5.777,15.807Zm-6.806-6.017,4.71.011-2.333-6.7Z" fill="#fff"/>
      <path id="Trazado_17420" data-name="Trazado 17420" d="M684.717,108.309a4.368,4.368,0,0,1,3.1,1.018,3.743,3.743,0,0,1,1.076,2.877l-.018,7.561-3.158-.007.017-6.885a1.963,1.963,0,0,0-.559-1.549,2.121,2.121,0,0,0-1.447-.495,3,3,0,0,0-.94.139,2.419,2.419,0,0,0-.788.44,1.959,1.959,0,0,0-.566.846,3.935,3.935,0,0,0-.215,1.3l-.015,6.192-3.146-.007.026-11.224,3.147.008,0,1.246A4.322,4.322,0,0,1,684.717,108.309Z" fill="#fff"/>
      <path id="Trazado_17421" data-name="Trazado 17421" d="M699.394,108.559l3.149.008-.027,11.234-2.985-.007-.073-1.355A4.29,4.29,0,0,1,695.881,120a4.376,4.376,0,0,1-3.1-1.018,3.739,3.739,0,0,1-1.075-2.877l.018-7.564,3.158.008-.017,6.885a1.942,1.942,0,0,0,.56,1.541,2.135,2.135,0,0,0,1.457.5,2.53,2.53,0,0,0,1.788-.636,2.743,2.743,0,0,0,.71-2.081Z" fill="#fff"/>
      <path id="Trazado_17422" data-name="Trazado 17422" d="M712.433,108.374a4.381,4.381,0,0,1,3.1,1.018,3.754,3.754,0,0,1,1.075,2.878l-.018,7.561-3.16-.007.017-6.885a1.961,1.961,0,0,0-.558-1.549,2.122,2.122,0,0,0-1.449-.5,3,3,0,0,0-.94.139,2.421,2.421,0,0,0-.788.441,1.957,1.957,0,0,0-.564.845,3.865,3.865,0,0,0-.217,1.3l-.015,6.192-3.145-.008.026-11.223,3.147.007,0,1.246A4.334,4.334,0,0,1,712.433,108.374Z" fill="#fff"/>
      <path id="Trazado_17423" data-name="Trazado 17423" d="M724.723,120.063a6,6,0,0,1-4.335-1.629A6.134,6.134,0,0,1,720.4,110a6.667,6.667,0,0,1,7.983-.507,4.815,4.815,0,0,1,1.873,3.054l-2.909.308a2.49,2.49,0,0,0-.935-1.477,2.878,2.878,0,0,0-1.7-.5,2.575,2.575,0,0,0-2.057.913,4.127,4.127,0,0,0-.012,4.848,2.567,2.567,0,0,0,2.053.928,2.833,2.833,0,0,0,1.7-.488,2.547,2.547,0,0,0,.948-1.472l2.907.324a4.842,4.842,0,0,1-1.9,3.045A5.971,5.971,0,0,1,724.723,120.063Z" fill="#fff"/>
      <path id="Trazado_17424" data-name="Trazado 17424" d="M734.121,106.96a1.77,1.77,0,0,1-1.289-.535,1.741,1.741,0,0,1-.532-1.285,1.723,1.723,0,0,1,.544-1.273,1.775,1.775,0,0,1,1.286-.526,1.81,1.81,0,0,1-.009,3.619Zm-1.638,12.912.026-11.234,3.169.007-.027,11.234Z" fill="#fff"/>
      <path id="Trazado_17425" data-name="Trazado 17425" d="M748.134,116.862a10.533,10.533,0,0,0,.265,2.742v.307l-2.94-.007-.247-1.225a3.652,3.652,0,0,1-1.577,1.078,5.782,5.782,0,0,1-2.034.355,5.366,5.366,0,0,1-1.05-.1,3.593,3.593,0,0,1-.943-.334,2.874,2.874,0,0,1-.78-.586,2.571,2.571,0,0,1-.525-.892,3.574,3.574,0,0,1-.192-1.217,3.406,3.406,0,0,1,.209-1.216,2.9,2.9,0,0,1,.549-.911,3.3,3.3,0,0,1,.886-.661,6.543,6.543,0,0,1,1.116-.478,13.023,13.023,0,0,1,1.328-.347l1.85-.41a2.017,2.017,0,0,0,.836-.354.7.7,0,0,0,.248-.561,1.165,1.165,0,0,0-.55-1.085,2.587,2.587,0,0,0-1.338-.334,1.927,1.927,0,0,0-2.19,1.622c-.005.029-.008.059-.011.088l-2.785-.509a3.769,3.769,0,0,1,1.634-2.559,6.476,6.476,0,0,1,3.533-.817q4.719.012,4.711,4.065Zm-5.545,1.122a2.529,2.529,0,0,0,1.947-.81,3.43,3.43,0,0,0,.761-2.409l-2.67.749a3.136,3.136,0,0,0-1.122.457.942.942,0,0,0-.39.806,1.053,1.053,0,0,0,.414.892,1.718,1.718,0,0,0,1.056.315Z" fill="#fff"/>
      <path id="Trazado_17426" data-name="Trazado 17426" d="M754.221,110.47a3.647,3.647,0,0,1,1.478-1.346,4.5,4.5,0,0,1,2.2-.557l-.006,2.807a4.253,4.253,0,0,0-2.692.673,2.955,2.955,0,0,0-.836,2.4l-.013,5.474-3.169-.008.027-11.234,3.016.007Z" fill="#fff"/>
    </g>
  </g>
  <g id="Group_56830" data-name="Group 56830">
    <path id="Trazado_17295" data-name="Trazado 17295" d="M839.728,72.917V153.9l70.138,40.492L980,153.9V72.917L909.866,32.425Z" fill="#f0c068" fill-rule="evenodd"/>
    <g id="Grupo_18082" data-name="Grupo 18082">
      <path id="Trazado_17449" data-name="Trazado 17449" d="M883.2,104.019h3.488l-5.836,15.793h-3.607l-5.8-15.793h3.475l4.143,11.967Z" fill="#fff"/>
      <path id="Trazado_17450" data-name="Trazado 17450" d="M898.1,114.035l-.034.754H889.74a2.911,2.911,0,0,0,.9,2.055,2.864,2.864,0,0,0,1.977.711,2.776,2.776,0,0,0,1.482-.388,2.379,2.379,0,0,0,.945-1.132l2.886.427a4.907,4.907,0,0,1-1.968,2.633,5.845,5.845,0,0,1-3.317.94,6.082,6.082,0,0,1-4.378-1.548,6.472,6.472,0,0,1,.006-8.58,5.907,5.907,0,0,1,4.273-1.569,5.146,5.146,0,0,1,5.559,5.7Zm-5.542-3.464a2.486,2.486,0,0,0-2.732,2.163h5.159a2.374,2.374,0,0,0-.774-1.607,2.464,2.464,0,0,0-1.653-.555Z" fill="#fff"/>
      <path id="Trazado_17451" data-name="Trazado 17451" d="M907.129,108.363a4.389,4.389,0,0,1,3.1,1.01,3.754,3.754,0,0,1,1.082,2.875v7.564h-3.16v-6.886a1.958,1.958,0,0,0-.562-1.548,2.124,2.124,0,0,0-1.449-.491,2.969,2.969,0,0,0-.94.141,2.449,2.449,0,0,0-.787.443,1.959,1.959,0,0,0-.562.847,3.884,3.884,0,0,0-.214,1.3v6.2h-3.147V108.581h3.147v1.246A4.331,4.331,0,0,1,907.129,108.363Z" fill="#fff"/>
      <path id="Trazado_17452" data-name="Trazado 17452" d="M922.331,103.03h3.146v16.787h-2.985l-.076-1.464a3.222,3.222,0,0,1-1.428,1.273,4.792,4.792,0,0,1-2.1.453,5.5,5.5,0,0,1-2.1-.4,5.053,5.053,0,0,1-2.885-3,6.852,6.852,0,0,1-.425-2.458,6.39,6.39,0,0,1,.741-3.131,5.1,5.1,0,0,1,1.963-2.039,5.41,5.41,0,0,1,2.7-.689,4.893,4.893,0,0,1,2.039.41,3.182,3.182,0,0,1,1.406,1.164Zm-2.721,14.437a2.8,2.8,0,0,0,2.126-.9,3.68,3.68,0,0,0-.006-4.705,2.805,2.805,0,0,0-2.12-.9,2.84,2.84,0,0,0-2.138.885,3.728,3.728,0,0,0,0,4.732,2.833,2.833,0,0,0,2.136.886Z" fill="#fff"/>
      <path id="Trazado_17453" data-name="Trazado 17453" d="M939.3,114.035l-.033.754h-8.329a2.9,2.9,0,0,0,.9,2.055,2.864,2.864,0,0,0,1.977.711,2.775,2.775,0,0,0,1.481-.388,2.379,2.379,0,0,0,.945-1.132l2.886.427a4.9,4.9,0,0,1-1.969,2.633,5.842,5.842,0,0,1-3.316.94,6.081,6.081,0,0,1-4.378-1.548,6.472,6.472,0,0,1,.006-8.58,5.9,5.9,0,0,1,4.273-1.569,5.144,5.144,0,0,1,5.559,5.7Zm-5.541-3.464a2.486,2.486,0,0,0-2.732,2.163h5.159a2.373,2.373,0,0,0-.774-1.607,2.464,2.464,0,0,0-1.653-.555Z" fill="#fff"/>
      <path id="Trazado_17454" data-name="Trazado 17454" d="M944.713,110.362a3.653,3.653,0,0,1,1.475-1.349,4.5,4.5,0,0,1,2.2-.563v2.809a4.268,4.268,0,0,0-2.69.677,2.957,2.957,0,0,0-.83,2.405v5.476H941.7V108.585h3.016Z" fill="#fff"/>
    </g>
  </g>
  <g id="Group_56831" data-name="Group 56831">
    <path id="Trazado_17292" data-name="Trazado 17292" d="M237.32,72.917V153.9l70.135,40.492L377.589,153.9V72.917L307.455,32.425Z" fill="#7d1538" fill-rule="evenodd"/>
    <g id="Grupo_18076" data-name="Grupo 18076">
      <path id="Trazado_17333" data-name="Trazado 17333" d="M269.783,104.024a4.757,4.757,0,0,1,3.64,1.47,5.113,5.113,0,0,1,1.376,3.633,4.985,4.985,0,0,1-1.365,3.613,4.839,4.839,0,0,1-3.649,1.416H266.5v5.66h-3.279V104.023Zm-.546,7.388a2.408,2.408,0,0,0,1.8-.617,2.345,2.345,0,0,0,.6-1.71,2.318,2.318,0,0,0-.605-1.688,2.382,2.382,0,0,0-1.8-.629h-2.743v4.643Z" fill="#fff"/>
      <path id="Trazado_17334" data-name="Trazado 17334" d="M280.153,110.365a3.65,3.65,0,0,1,1.475-1.35,4.511,4.511,0,0,1,2.2-.564v2.81a4.26,4.26,0,0,0-2.688.676,2.964,2.964,0,0,0-.832,2.4v5.476h-3.168V108.585h3.016Z" fill="#fff"/>
      <path id="Trazado_17335" data-name="Trazado 17335" d="M290.841,120.035a7.062,7.062,0,0,1-3.18-.687,5.142,5.142,0,0,1-2.18-2.023,6.031,6.031,0,0,1-.793-3.136,5.5,5.5,0,0,1,1.705-4.263,7.126,7.126,0,0,1,8.907,0,6.2,6.2,0,0,1,0,8.542A6.331,6.331,0,0,1,290.841,120.035Zm-.033-2.5a2.883,2.883,0,0,0,2.225-.918,3.9,3.9,0,0,0,0-4.851,2.88,2.88,0,0,0-2.225-.92,2.777,2.777,0,0,0-2.158.925,3.922,3.922,0,0,0,0,4.841,2.778,2.778,0,0,0,2.159.923Z" fill="#fff"/>
      <path id="Trazado_17336" data-name="Trazado 17336" d="M307.313,103.03h3.147v16.787h-2.985l-.077-1.463a3.206,3.206,0,0,1-1.427,1.272,4.782,4.782,0,0,1-2.1.456,5.5,5.5,0,0,1-2.1-.4,5.061,5.061,0,0,1-2.885-3,6.827,6.827,0,0,1-.426-2.458,6.4,6.4,0,0,1,.743-3.131,5.125,5.125,0,0,1,1.962-2.039,5.413,5.413,0,0,1,2.705-.688,4.947,4.947,0,0,1,2.039.41,3.212,3.212,0,0,1,1.4,1.165Zm-2.721,14.437a2.8,2.8,0,0,0,2.126-.9,3.683,3.683,0,0,0,0-4.706,2.8,2.8,0,0,0-2.121-.9,2.837,2.837,0,0,0-2.137.885,3.731,3.731,0,0,0,0,4.734,2.836,2.836,0,0,0,2.136.885Z" fill="#fff"/>
      <path id="Trazado_17337" data-name="Trazado 17337" d="M321.16,108.583h3.147v11.234h-2.985l-.077-1.355a4.285,4.285,0,0,1-3.573,1.574,4.38,4.38,0,0,1-3.1-1.01,3.747,3.747,0,0,1-1.082-2.875V108.59h3.158v6.884a1.94,1.94,0,0,0,.562,1.542,2.138,2.138,0,0,0,1.46.492,2.536,2.536,0,0,0,1.786-.64,2.75,2.75,0,0,0,.706-2.082Z" fill="#fff"/>
      <path id="Trazado_17338" data-name="Trazado 17338" d="M332.646,120.024a6,6,0,0,1-4.339-1.617,6.131,6.131,0,0,1-.007-8.436,6.669,6.669,0,0,1,7.983-.527,4.837,4.837,0,0,1,1.88,3.05l-2.908.317a2.482,2.482,0,0,0-.94-1.475,2.856,2.856,0,0,0-1.705-.492,2.571,2.571,0,0,0-2.053.92,4.123,4.123,0,0,0,0,4.846,2.567,2.567,0,0,0,2.053.923,2.852,2.852,0,0,0,1.7-.491,2.543,2.543,0,0,0,.944-1.475l2.908.318a4.842,4.842,0,0,1-1.9,3.047A5.947,5.947,0,0,1,332.646,120.024Z" fill="#fff"/>
      <path id="Trazado_17339" data-name="Trazado 17339" d="M342.012,106.9a1.772,1.772,0,0,1-1.29-.529,1.741,1.741,0,0,1-.535-1.284,1.719,1.719,0,0,1,.541-1.274,1.768,1.768,0,0,1,1.284-.529,1.808,1.808,0,0,1,0,3.616ZM340.4,119.818V108.581h3.169v11.234Z" fill="#fff"/>
      <path id="Trazado_17340" data-name="Trazado 17340" d="M349.848,110.365a3.636,3.636,0,0,1,1.475-1.35,4.51,4.51,0,0,1,2.2-.564v2.81a4.257,4.257,0,0,0-2.688.676,2.963,2.963,0,0,0-.83,2.4v5.476H346.83V108.585h3.017Z" fill="#fff"/>
    </g>
  </g>
</svg>
