<svg xmlns="http://www.w3.org/2000/svg" width="200" height="163" viewBox="0 0 200 163">
  <g id="t1-i31" transform="translate(-179 -15476)">
    <rect id="Rectangle_6842" data-name="Rectangle 6842" width="200" height="90" rx="5" transform="translate(179 15476)" fill="#fffae8"/>
    <g id="Group_80480" data-name="Group 80480" transform="translate(-960.742 14767.318)">
      <path id="Path_138515" data-name="Path 138515" d="M1180.745,744.129a7.449,7.449,0,0,1,7.447-7.447h19.864a7.45,7.45,0,0,0-7.451,7.447v11.552h-16.139a3.722,3.722,0,0,1-3.722-3.722v-7.83Z" transform="translate(-3.37 -3.368)" fill="#e899a0"/>
      <path id="Path_138516" data-name="Path 138516" d="M1204.516,736.671h64.555a7.453,7.453,0,0,1,7.451,7.451v95.77h-57.108a7.449,7.449,0,0,1-7.447-7.447V744.122a7.453,7.453,0,0,0-7.451-7.451Z" transform="translate(-19.381 -3.36)" fill="#fff"/>
      <g id="Group_80450" data-name="Group 80450" transform="translate(1199.676 798.655)">
        <g id="Group_80443" data-name="Group 80443" transform="translate(0)">
          <g id="Group_80442" data-name="Group 80442">
            <g id="Group_80437" data-name="Group 80437" transform="translate(36.645)">
              <g id="Group_80436" data-name="Group 80436">
                <path id="Path_138517" data-name="Path 138517" d="M1372.9,938.466a1.632,1.632,0,0,0-1.632-1.632h-8.326a1.632,1.632,0,1,0,0,3.265h8.326A1.632,1.632,0,0,0,1372.9,938.466Z" transform="translate(-1361.309 -936.834)" fill="#ee8d3f"/>
              </g>
            </g>
            <g id="Group_80439" data-name="Group 80439">
              <g id="Group_80438" data-name="Group 80438">
                <path id="Path_138518" data-name="Path 138518" d="M1280.635,938.466a1.632,1.632,0,0,0-1.632-1.632h-28.314a1.632,1.632,0,1,0,0,3.265H1279A1.632,1.632,0,0,0,1280.635,938.466Z" transform="translate(-1249.056 -936.834)" fill="#ee8d3f"/>
              </g>
            </g>
            <g id="Group_80441" data-name="Group 80441" transform="translate(0 7.256)">
              <g id="Group_80440" data-name="Group 80440">
                <path id="Path_138519" data-name="Path 138519" d="M1249.056,960.694a1.632,1.632,0,0,0,1.632,1.632h11.883v-3.265h-11.883A1.632,1.632,0,0,0,1249.056,960.694Z" transform="translate(-1249.056 -959.062)" fill="#ee8d3f"/>
              </g>
            </g>
          </g>
        </g>
        <g id="Group_80449" data-name="Group 80449" transform="translate(0 14.513)">
          <g id="Group_80448" data-name="Group 80448">
            <g id="Group_80445" data-name="Group 80445">
              <g id="Group_80444" data-name="Group 80444">
                <path id="Path_138520" data-name="Path 138520" d="M1249.056,982.922a1.632,1.632,0,0,0,1.632,1.632h11.883V981.29h-11.883A1.632,1.632,0,0,0,1249.056,982.922Z" transform="translate(-1249.056 -981.29)" fill="#ee8d3f"/>
              </g>
            </g>
            <g id="Group_80447" data-name="Group 80447" transform="translate(0 7.256)">
              <g id="Group_80446" data-name="Group 80446">
                <path id="Path_138521" data-name="Path 138521" d="M1249.056,1005.15a1.632,1.632,0,0,0,1.632,1.632h11.883v-3.265h-11.883A1.632,1.632,0,0,0,1249.056,1005.15Z" transform="translate(-1249.056 -1003.518)" fill="#ee8d3f"/>
              </g>
            </g>
          </g>
        </g>
      </g>
      <path id="Path_138522" data-name="Path 138522" d="M1251.774,980.628a7.449,7.449,0,0,0,7.447-7.447V953.066a7.445,7.445,0,0,1,5.127-7.076,7.357,7.357,0,0,1,2.324-.372h19.86a7.449,7.449,0,0,0-7.447,7.447v27.562Z" transform="translate(-51.211 -144.096)" fill="#e899a0"/>
      <path id="Path_138523" data-name="Path 138523" d="M1363.307,945.619a7.45,7.45,0,0,1,7.451,7.447v61.08H1313.65a7.449,7.449,0,0,1-7.447-7.447V953.066a7.45,7.45,0,0,0-7.451-7.447Z" transform="translate(-82.853 -144.096)" fill="#fff"/>
      <path id="Path_138524" data-name="Path 138524" d="M1298.757,945.619h12.6" transform="translate(-82.856 -144.096)" fill="#daffee"/>
      <path id="Path_138525" data-name="Path 138525" d="M1344.914,1120.184a7.45,7.45,0,0,0,7.447-7.451v-5.96a3.725,3.725,0,0,1,3.726-3.722h57.1a3.725,3.725,0,0,1,3.725,3.722v5.96a7.45,7.45,0,0,1-7.447,7.451Z" transform="translate(-113.945 -250.134)" fill="#e899a0"/>
      <path id="Path_138526" data-name="Path 138526" d="M1184.823,731.682a9.091,9.091,0,0,0-9.081,9.081v7.828a5.363,5.363,0,0,0,5.356,5.357h.6a1.632,1.632,0,1,0,0-3.265h-.6a2.1,2.1,0,0,1-2.092-2.092v-7.828a5.823,5.823,0,0,1,5.816-5.817h.316a5.823,5.823,0,0,1,5.816,5.817v88.319a9.091,9.091,0,0,0,9.081,9.081h21.681v2.421a1.632,1.632,0,1,0,3.265,0V808.971a9.038,9.038,0,0,0-2.112-5.816h57.586a5.823,5.823,0,0,1,5.816,5.816v42.315h-44.131a5.362,5.362,0,0,0-5.356,5.357V862.6a5.823,5.823,0,0,1-5.816,5.816h-.17a5.823,5.823,0,0,1-5.816-5.816V851.627a1.632,1.632,0,0,0-3.265,0V862.6a9.091,9.091,0,0,0,9.081,9.081h64.724a9.091,9.091,0,0,0,9.081-9.081v-5.959a5.363,5.363,0,0,0-5.357-5.357h-9.71V808.971a9.092,9.092,0,0,0-9.081-9.081h-21.681V740.763a9.091,9.091,0,0,0-9.081-9.081Zm57.318,122.868h57.106a2.1,2.1,0,0,1,2.092,2.092V862.6a5.823,5.823,0,0,1-5.816,5.816h-57.586a9.04,9.04,0,0,0,2.113-5.816v-5.959A2.1,2.1,0,0,1,1242.141,854.55ZM1221.717,834.9h-14.186a9.038,9.038,0,0,0,2.112-5.816V808.971a5.823,5.823,0,0,1,5.816-5.816,1.6,1.6,0,0,0,.221-.022,1.64,1.64,0,0,0,.221.022,5.823,5.823,0,0,1,5.816,5.816V834.9Zm-27.5-94.135a9.041,9.041,0,0,0-2.112-5.817h57.586a5.823,5.823,0,0,1,5.817,5.817v59.128h-40.051a9.091,9.091,0,0,0-9.081,9.081v20.112a5.823,5.823,0,0,1-5.816,5.816h-.526a5.823,5.823,0,0,1-5.817-5.816V740.763Z" fill="#a3121d"/>
      <g id="Group_80451" data-name="Group 80451" transform="translate(1205.282 741.381)">
        <path id="Path_138527" data-name="Path 138527" d="M1342,805a5.159,5.159,0,0,0,5.153,5.153h1.98A5.16,5.16,0,0,0,1354.29,805a3.133,3.133,0,0,0-1.467-2.65l-3.1-11.613a1.632,1.632,0,0,0-3.154,0l-3.1,11.613A3.134,3.134,0,0,0,1342,805Zm6.143-7.512,1.168,4.376h-2.335Zm-2.874,7.64h5.749a1.891,1.891,0,0,1-1.884,1.76h-1.98A1.892,1.892,0,0,1,1345.273,805.131Z" transform="translate(-1317.267 -780.342)" fill="#a3121d"/>
        <path id="Path_138528" data-name="Path 138528" d="M1267.7,802.352a3.134,3.134,0,0,0-1.467,2.65,5.159,5.159,0,0,0,5.153,5.153h1.979a5.159,5.159,0,0,0,5.153-5.153,3.133,3.133,0,0,0-1.467-2.65l-3.1-11.613a1.632,1.632,0,0,0-3.154,0l-3.1,11.613Zm4.676-4.861,1.168,4.376H1271.2Zm-2.874,7.64h5.749a1.891,1.891,0,0,1-1.884,1.76h-1.98A1.892,1.892,0,0,1,1269.5,805.131Z" transform="translate(-1266.229 -780.342)" fill="#a3121d"/>
        <path id="Path_138529" data-name="Path 138529" d="M1279,793.6a1.632,1.632,0,1,0,0,3.265h16.879a1.632,1.632,0,1,0,0-3.265h-6.807V767.921h13.937a1.632,1.632,0,1,0,0-3.265h-13.937v-1.634a1.632,1.632,0,1,0-3.265,0v1.634h-13.937a1.632,1.632,0,1,0,0,3.265h13.937V793.6Z" transform="translate(-1268.932 -761.391)" fill="#a3121d"/>
      </g>
      <g id="Group_80465" data-name="Group 80465" transform="translate(1231.368 813.305)">
        <g id="Group_80464" data-name="Group 80464" transform="translate(0 0)">
          <g id="Group_80453" data-name="Group 80453" transform="translate(36.645)">
            <g id="Group_80452" data-name="Group 80452">
              <path id="Path_138530" data-name="Path 138530" d="M1469.978,983.344a1.632,1.632,0,0,0-1.632-1.632h-8.326a1.632,1.632,0,0,0,0,3.265h8.326A1.632,1.632,0,0,0,1469.978,983.344Z" transform="translate(-1458.388 -981.712)" fill="#ee8d3f"/>
            </g>
          </g>
          <g id="Group_80455" data-name="Group 80455">
            <g id="Group_80454" data-name="Group 80454">
              <path id="Path_138531" data-name="Path 138531" d="M1376.082,984.977a1.632,1.632,0,0,0,0-3.265h-28.314a1.632,1.632,0,0,0,0,3.265Z" transform="translate(-1346.135 -981.712)" fill="#ee8d3f"/>
            </g>
          </g>
          <g id="Group_80457" data-name="Group 80457" transform="translate(41.643 7.257)">
            <g id="Group_80456" data-name="Group 80456">
              <path id="Path_138532" data-name="Path 138532" d="M1480.288,1005.573a1.632,1.632,0,0,0-1.632-1.632h-3.329a1.632,1.632,0,1,0,0,3.265h3.329A1.632,1.632,0,0,0,1480.288,1005.573Z" transform="translate(-1473.695 -1003.941)" fill="#ee8d3f"/>
            </g>
          </g>
          <g id="Group_80459" data-name="Group 80459" transform="translate(0 7.257)">
            <g id="Group_80458" data-name="Group 80458">
              <path id="Path_138533" data-name="Path 138533" d="M1382.711,1005.573a1.632,1.632,0,0,0-1.632-1.632h-33.312a1.632,1.632,0,0,0,0,3.265h33.312A1.632,1.632,0,0,0,1382.711,1005.573Z" transform="translate(-1346.135 -1003.941)" fill="#ee8d3f"/>
            </g>
          </g>
          <g id="Group_80461" data-name="Group 80461" transform="translate(0 14.513)">
            <g id="Group_80460" data-name="Group 80460">
              <path id="Path_138534" data-name="Path 138534" d="M1392.739,1029.433a1.632,1.632,0,1,0,0-3.265h-44.971a1.632,1.632,0,0,0,0,3.265Z" transform="translate(-1346.136 -1026.169)" fill="#ee8d3f"/>
            </g>
          </g>
          <g id="Group_80463" data-name="Group 80463" transform="translate(0 21.77)">
            <g id="Group_80462" data-name="Group 80462">
              <path id="Path_138535" data-name="Path 138535" d="M1403.853,1050.029a1.632,1.632,0,0,0,1.632,1.632h26.129a1.633,1.633,0,0,0,1.624-1.793,1.68,1.68,0,0,0-1.695-1.472h-26.059A1.632,1.632,0,0,0,1403.853,1050.029Z" transform="translate(-1385.011 -1048.397)" fill="#ee8d3f"/>
              <path id="Path_138536" data-name="Path 138536" d="M1346.144,1049.869a1.633,1.633,0,0,0,1.624,1.793h10.845a1.632,1.632,0,1,0,0-3.265h-10.775A1.679,1.679,0,0,0,1346.144,1049.869Z" transform="translate(-1346.136 -1048.397)" fill="#ee8d3f"/>
            </g>
          </g>
        </g>
      </g>
      <g id="Group_80475" data-name="Group 80475" transform="translate(1199.676 784.142)">
        <g id="Group_80474" data-name="Group 80474" transform="translate(0)">
          <g id="Group_80467" data-name="Group 80467" transform="translate(36.645)">
            <g id="Group_80466" data-name="Group 80466">
              <path id="Path_138537" data-name="Path 138537" d="M1372.9,894.01a1.632,1.632,0,0,0-1.632-1.632h-8.326a1.632,1.632,0,1,0,0,3.265h8.326A1.632,1.632,0,0,0,1372.9,894.01Z" transform="translate(-1361.309 -892.378)" fill="#a3121d"/>
            </g>
          </g>
          <g id="Group_80469" data-name="Group 80469">
            <g id="Group_80468" data-name="Group 80468">
              <path id="Path_138538" data-name="Path 138538" d="M1280.635,894.01a1.632,1.632,0,0,0-1.632-1.632h-28.314a1.632,1.632,0,1,0,0,3.265H1279A1.632,1.632,0,0,0,1280.635,894.01Z" transform="translate(-1249.056 -892.378)" fill="#a3121d"/>
            </g>
          </g>
          <g id="Group_80471" data-name="Group 80471" transform="translate(41.643 7.256)">
            <g id="Group_80470" data-name="Group 80470">
              <path id="Path_138539" data-name="Path 138539" d="M1383.209,916.238a1.632,1.632,0,0,0-1.632-1.632h-3.329a1.632,1.632,0,0,0,0,3.265h3.329A1.632,1.632,0,0,0,1383.209,916.238Z" transform="translate(-1376.616 -914.606)" fill="#a3121d"/>
            </g>
          </g>
          <g id="Group_80473" data-name="Group 80473" transform="translate(0 7.256)">
            <g id="Group_80472" data-name="Group 80472">
              <path id="Path_138540" data-name="Path 138540" d="M1285.632,916.238a1.632,1.632,0,0,0-1.632-1.632h-33.311a1.632,1.632,0,0,0,0,3.265H1284A1.632,1.632,0,0,0,1285.632,916.238Z" transform="translate(-1249.056 -914.606)" fill="#a3121d"/>
            </g>
          </g>
        </g>
      </g>
      <g id="Group_80479" data-name="Group 80479" transform="translate(1231.368 842.331)">
        <g id="Group_80478" data-name="Group 80478" transform="translate(0 0)">
          <g id="Group_80477" data-name="Group 80477">
            <g id="Group_80476" data-name="Group 80476">
              <path id="Path_138541" data-name="Path 138541" d="M1392.739,1073.89a1.632,1.632,0,1,0,0-3.265h-44.971a1.632,1.632,0,0,0,0,3.265Z" transform="translate(-1346.136 -1070.625)" fill="#ee8d3f"/>
            </g>
          </g>
        </g>
      </g>
    </g>
  </g>
</svg>
