<svg xmlns="http://www.w3.org/2000/svg" width="90" height="90" viewBox="0 0 90 90">
  <g id="t1-i2" transform="translate(-231 -863)">
    <g id="t1-i2-2" data-name="t1-i2" transform="translate(0 -23601)">
      <g id="Group_55890" data-name="Group 55890">
        <g id="Group_55870" data-name="Group 55870" transform="translate(52 20724)">
          <circle id="Ellipse_1805" data-name="Ellipse 1805" cx="45" cy="45" r="45" transform="translate(179 3740)" fill="#97181a"/>
        </g>
      </g>
    </g>
    <g id="Group_56844" data-name="Group 56844" transform="translate(-847.604 1504.237)">
      <path id="Path_32410" data-name="Path 32410" d="M1138.861-591.892a.977.977,0,0,0-1.023.929,45.263,45.263,0,0,1-3.69,16.088h-20.844c-4.787-10.8-4.992-24.733-.483-36.134h21.813a48.12,48.12,0,0,1,3.216,15.358.977.977,0,0,0,1.02.932.977.977,0,0,0,.932-1.02,49.888,49.888,0,0,0-3.6-16.6l-3.775-10.222c-.405-1.1-1.353-3.677-3.951-3.677h-9.5c-2.6,0-3.546,2.577-3.95,3.676l-3.775,10.222a50.167,50.167,0,0,0-3.638,20.036,46.971,46.971,0,0,0,4.573,19.651c1.827,3.714,3.147,6.4,8.432,6.411l3.11,0,3.109,0c5.283-.013,6.6-2.7,8.43-6.411a46.618,46.618,0,0,0,4.521-18.217A.977.977,0,0,0,1138.861-591.892Zm-22-29.994c.635-1.726,1.229-2.4,2.118-2.4h9.5c.889,0,1.482.672,2.118,2.4l.222.6h-14.181Zm9.774,2.555a3.07,3.07,0,0,1-2.906,2.089,3.073,3.073,0,0,1-2.909-2.089Zm-10.718,0h2.886a5.029,5.029,0,0,0,4.926,4.042,5.026,5.026,0,0,0,4.922-4.042h2.89l2.351,6.367h-20.326Zm10.919,51.136-3.106,0-3.107,0c-3.672-.009-4.644-1.238-6.389-4.728h18.989c-1.745,3.49-2.717,4.719-6.387,4.728Z" transform="translate(0 0)" fill="#fff"/>
      <path id="Path_32411" data-name="Path 32411" d="M1156.007-452.328a.976.976,0,0,0-.976-.977h-15.865a.976.976,0,0,0-.977.977.977.977,0,0,0,.977.977h15.865A.976.976,0,0,0,1156.007-452.328Z" transform="translate(-23.37 -132.135)" fill="#fff"/>
      <path id="Path_32412" data-name="Path 32412" d="M1154.969-436.687a.977.977,0,0,0-.977.977.977.977,0,0,0,.977.977h8.409a.976.976,0,0,0,.977-.977.976.976,0,0,0-.977-.977Z" transform="translate(-35.445 -144.833)" fill="#fff"/>
      <path id="Path_32413" data-name="Path 32413" d="M1160.818-533.968c0-2.855-2.9-7.107-4.817-9.921-.246-.361-.47-.69-.661-.976a1.6,1.6,0,0,0-1.281-.855h0a1.607,1.607,0,0,0-1.283.852l0,0c-.194.293-.422.628-.673,1-1.912,2.809-4.8,7.054-4.8,9.9a6.5,6.5,0,0,0,6.761,6.65,6.5,6.5,0,0,0,6.761-6.65Zm-11.568,0c0-2.247,2.9-6.512,4.463-8.8l.343-.5.331.486c1.565,2.3,4.478,6.569,4.478,8.821a4.56,4.56,0,0,1-4.808,4.7A4.51,4.51,0,0,1,1149.249-533.968Z" transform="translate(-30.329 -61.521)" fill="#fff"/>
    </g>
  </g>
</svg>
