<svg xmlns="http://www.w3.org/2000/svg" width="1008" height="255" viewBox="0 0 1008 255">
  <g id="t1-i8" transform="translate(0 -554)">
    <rect id="Rectángulo_5006" data-name="Rectángulo 5006" width="1008" height="255" transform="translate(0 554)" fill="#f6f6f6"/>
    <g id="Group_80415" data-name="Group 80415">
      <path id="Rectángulo_3043" data-name="Rectángulo 3043" d="M11.573-1.5H246.628A13.073,13.073,0,0,1,259.7,11.573V61.948A13.073,13.073,0,0,1,246.628,75.02H11.573A13.073,13.073,0,0,1-1.5,61.948V11.573A13.073,13.073,0,0,1,11.573-1.5ZM246.628,72.02A10.084,10.084,0,0,0,256.7,61.948V11.573A10.084,10.084,0,0,0,246.628,1.5H11.573A10.084,10.084,0,0,0,1.5,11.573V61.948A10.084,10.084,0,0,0,11.573,72.02Z" transform="translate(374.9 580.827)" fill="#ee8d3f"/>
      <rect id="Rectángulo_3043-2" data-name="Rectángulo 3043" width="238.825" height="59.204" rx="11.573" transform="translate(384.588 587.985)" fill="#a3121d"/>
      <path id="Línea_186" data-name="Línea 186" d="M57.935,1.5H0v-3H57.935Z" transform="translate(633.1 617.588)" fill="#ee8d3f"/>
      <g id="Grupo_18091" data-name="Grupo 18091">
        <path id="Trazado_17637" data-name="Trazado 17637" d="M688.6,625.894l9.356-8.3-9.356-8.306Z" fill="#ee8d3f"/>
      </g>
      <path id="Rectángulo_3043-3" data-name="Rectángulo 3043" d="M11.573-1.5H246.628A13.073,13.073,0,0,1,259.7,11.573V61.948A13.073,13.073,0,0,1,246.628,75.02H11.573A13.073,13.073,0,0,1-1.5,61.948V11.573A13.073,13.073,0,0,1,11.573-1.5ZM246.628,72.02A10.084,10.084,0,0,0,256.7,61.948V11.573A10.084,10.084,0,0,0,246.628,1.5H11.573A10.084,10.084,0,0,0,1.5,11.573V61.948A10.084,10.084,0,0,0,11.573,72.02Z" transform="translate(709.611 580.827)" fill="#ee8d3f"/>
      <rect id="Rectángulo_3043-4" data-name="Rectángulo 3043" width="238.825" height="59.204" rx="11.573" transform="translate(719.299 587.985)" fill="#a3121d"/>
      <path id="Rectángulo_3043-5" data-name="Rectángulo 3043" d="M11.573-1.5H246.628A13.073,13.073,0,0,1,259.7,11.573V61.948A13.073,13.073,0,0,1,246.628,75.02H11.573A13.073,13.073,0,0,1-1.5,61.948V11.573A13.073,13.073,0,0,1,11.573-1.5ZM246.628,72.02A10.084,10.084,0,0,0,256.7,61.948V11.573A10.084,10.084,0,0,0,246.628,1.5H11.573A10.084,10.084,0,0,0,1.5,11.573V61.948A10.084,10.084,0,0,0,11.573,72.02Z" transform="translate(709.611 708.653)" fill="#ee8d3f"/>
      <rect id="Rectángulo_3043-6" data-name="Rectángulo 3043" width="238.825" height="59.204" rx="11.573" transform="translate(719.299 715.811)" fill="#a3121d"/>
      <path id="Rectángulo_3043-7" data-name="Rectángulo 3043" d="M11.573-1.5H246.628A13.073,13.073,0,0,1,259.7,11.573V61.948A13.073,13.073,0,0,1,246.628,75.02H11.573A13.073,13.073,0,0,1-1.5,61.948V11.573A13.073,13.073,0,0,1,11.573-1.5ZM246.628,72.02A10.084,10.084,0,0,0,256.7,61.948V11.573A10.084,10.084,0,0,0,246.628,1.5H11.573A10.084,10.084,0,0,0,1.5,11.573V61.948A10.084,10.084,0,0,0,11.573,72.02Z" transform="translate(40.188 580.827)" fill="#ee8d3f"/>
      <rect id="Rectángulo_3043-8" data-name="Rectángulo 3043" width="238.825" height="59.204" rx="11.573" transform="translate(49.876 587.985)" fill="#a3121d"/>
      <g id="Calidad" style="isolation: isolate">
        <text id="Calidad-2" data-name="Calidad" transform="translate(169.289 621.557)" fill="#fff" font-size="18.931" font-family="SegoeUI-Bold, Segoe UI" font-weight="700" style="isolation: isolate"><tspan x="-33.194" y="0">Calidad</tspan></text>
      </g>
      <g id="Estilo_y_diseño" data-name="Estilo y diseño">
        <g id="Group_80410" data-name="Group 80410">
          <text id="Estilo_y_diseño-2" data-name="Estilo y diseño" transform="translate(504 621.055)" fill="#fff" font-size="18.931" font-family="SegoeUI-Bold, Segoe UI" font-weight="700" style="isolation: isolate"><tspan x="-63.717" y="0">Estilo y diseño</tspan></text>
        </g>
      </g>
      <path id="Rectángulo_3043-9" data-name="Rectángulo 3043" d="M11.573-1.5H246.628A13.073,13.073,0,0,1,259.7,11.573V61.948A13.073,13.073,0,0,1,246.628,75.02H11.573A13.073,13.073,0,0,1-1.5,61.948V11.573A13.073,13.073,0,0,1,11.573-1.5ZM246.628,72.02A10.084,10.084,0,0,0,256.7,61.948V11.573A10.084,10.084,0,0,0,246.628,1.5H11.573A10.084,10.084,0,0,0,1.5,11.573V61.948A10.084,10.084,0,0,0,11.573,72.02Z" transform="translate(374.9 708.653)" fill="#ee8d3f"/>
      <rect id="Rectángulo_3043-10" data-name="Rectángulo 3043" width="238.825" height="59.204" rx="11.573" transform="translate(384.588 715.811)" fill="#a3121d"/>
      <path id="Línea_186-2" data-name="Línea 186" d="M57.935,1.5H0v-3H57.935Z" transform="translate(633.1 745.413)" fill="#ee8d3f"/>
      <g id="Grupo_18091-2" data-name="Grupo 18091">
        <path id="Trazado_17637-2" data-name="Trazado 17637" d="M688.6,753.72l9.356-8.306-9.356-8.306Z" fill="#ee8d3f"/>
      </g>
      <path id="Rectángulo_3043-11" data-name="Rectángulo 3043" d="M11.573-1.5H246.628A13.073,13.073,0,0,1,259.7,11.573V61.948A13.073,13.073,0,0,1,246.628,75.02H11.573A13.073,13.073,0,0,1-1.5,61.948V11.573A13.073,13.073,0,0,1,11.573-1.5ZM246.628,72.02A10.084,10.084,0,0,0,256.7,61.948V11.573A10.084,10.084,0,0,0,246.628,1.5H11.573A10.084,10.084,0,0,0,1.5,11.573V61.948A10.084,10.084,0,0,0,11.573,72.02Z" transform="translate(40.188 708.653)" fill="#ee8d3f"/>
      <rect id="Rectángulo_3043-12" data-name="Rectángulo 3043" width="238.825" height="59.204" rx="11.573" transform="translate(49.876 715.811)" fill="#a3121d"/>
      <path id="Línea_186-3" data-name="Línea 186" d="M57.935,1.5H0v-3H57.935Z" transform="translate(298.389 745.413)" fill="#ee8d3f"/>
      <g id="Grupo_18091-3" data-name="Grupo 18091">
        <path id="Trazado_17637-3" data-name="Trazado 17637" d="M353.886,753.72l9.356-8.306-9.356-8.306Z" fill="#ee8d3f"/>
      </g>
      <g id="Marca_y_Branding" data-name="Marca y Branding">
        <g id="Group_80411" data-name="Group 80411">
          <text id="Marca_y_Branding-2" data-name="Marca y Branding" transform="translate(838.711 621.968)" fill="#fff" font-size="18.931" font-family="SegoeUI-Bold, Segoe UI" font-weight="700" style="isolation: isolate"><tspan x="-78.664" y="0">Marca y Branding</tspan></text>
        </g>
      </g>
      <g id="Empaque">
        <g id="Group_80412" data-name="Group 80412">
          <text id="Empaque-2" data-name="Empaque" transform="translate(169.289 749.793)" fill="#fff" font-size="18.931" font-family="SegoeUI-Bold, Segoe UI" font-weight="700" style="isolation: isolate"><tspan x="-41.379" y="0">Empaque</tspan></text>
        </g>
      </g>
      <g id="Etiquetado">
        <g id="Group_80413" data-name="Group 80413">
          <text id="Etiquetado-2" data-name="Etiquetado" transform="translate(504 749.383)" fill="#fff" font-size="18.931" font-family="SegoeUI-Bold, Segoe UI" font-weight="700" style="isolation: isolate"><tspan x="-48.543" y="0">Etiquetado</tspan></text>
        </g>
      </g>
      <g id="Garantía">
        <g id="Group_80414" data-name="Group 80414">
          <text id="Garantía-2" data-name="Garantía" transform="translate(838.711 749.383)" fill="#fff" font-size="18.931" font-family="SegoeUI-Bold, Segoe UI" font-weight="700" style="isolation: isolate"><tspan x="-37.876" y="0">Garantía</tspan></text>
        </g>
      </g>
      <path id="Línea_186-4" data-name="Línea 186" d="M57.935,1.5H0v-3H57.935Z" transform="translate(298.389 617.588)" fill="#ee8d3f"/>
      <g id="Grupo_18091-4" data-name="Grupo 18091">
        <path id="Trazado_17637-4" data-name="Trazado 17637" d="M353.886,625.894l9.356-8.3-9.356-8.306Z" fill="#ee8d3f"/>
      </g>
      <g id="Grupo_18091-5" data-name="Grupo 18091">
        <path id="Trazado_17637-5" data-name="Trazado 17637" d="M156.753,694.222l8.3,9.356,8.306-9.356Z" fill="#ee8d3f"/>
      </g>
      <path id="Trazado_17641" data-name="Trazado 17641" d="M166.559,696.658h-3V680.34H837.211v-26h3v29H166.559Z" fill="#ee8d3f"/>
    </g>
  </g>
</svg>
